<svg width="300" height="300" viewBox="0 0 300 300" fill="none" xmlns="http://www.w3.org/2000/svg">
<rect width="300" height="300" fill="white"/>
<g clip-path="url(#clip0)">
<path d="M90.9076 203.752C111.071 203.752 128.374 190.418 128.344 172.061C128.338 169.052 127.737 166.074 126.576 163.298C125.415 160.523 123.718 158.004 121.58 155.886C119.443 153.769 116.908 152.094 114.122 150.959C111.336 149.824 108.353 149.251 105.344 149.273C97.4773 149.248 90.053 152.939 86.8591 159.188L88.7561 163.339C92.6349 156.576 99.0773 153.4 105.677 153.43C116.077 153.4 123.75 161.358 123.695 171.327C123.75 187.048 110.271 198.267 94.5318 198.267C77.4773 198.267 64.7136 183.545 64.7136 166.109C64.7136 147.727 80.8894 135.479 99.5682 135.479C104.38 135.479 109.447 136.455 113.871 138.109L113.926 138.055L110.986 130.291C95.053 129.527 80.0955 121.382 80.0955 108.079C80.0955 100.636 85.2106 94.8242 92.3379 94.8242C99.0227 94.8242 103.095 100.067 103.095 105.715C103.095 108.048 102.598 110.382 100.15 112.83L101.059 114.945L112.999 105.115C111.623 95.8303 103.477 90.7515 92.7743 90.7515C80.15 90.7515 67.6349 99.6303 67.6349 111.794C67.6349 120 72.4167 126.406 81.4409 130.206L84.2773 131.406C63.8106 135.073 49.9924 150.521 49.9924 166.624C49.9924 189.006 69.1743 203.752 90.9076 203.752V203.752ZM138.526 240.818C169.065 240.818 190.768 218.333 190.768 189.115C190.768 168.988 176.598 147.97 156.738 127.061C137.617 106.8 127.356 97.5394 127.356 83.8485C127.356 71.9273 134.702 64.2424 145.399 64.2424C155.52 64.2424 162.295 72.3091 162.295 82.3818C162.295 86.103 161.386 89.5273 159.459 92.4061L160.368 94.5212L178.168 80.0242C174.071 67.0424 164.38 59 149.72 59C129.138 59 117.065 74.8606 117.065 91.7515C117.065 107.558 127.714 121.467 144.708 140.206C165.95 163.642 177.471 179.255 177.471 198.945C177.471 221.594 161.623 236.176 137.859 236.176C115.52 236.176 95.247 220.345 95.2167 199.273C95.1924 182.109 107.544 168.364 124.302 168.339C136.32 168.309 145.314 176.891 145.314 187.212C145.278 190.896 144.313 194.51 142.508 197.721L143.417 199.842L160.659 185.909C159.283 171.648 144.156 162.8 128.586 162.8C107.453 162.8 90.7318 178.873 90.7015 198.782C90.6894 222.873 112.695 240.818 138.526 240.818ZM249.992 112.339C250.023 99.4667 240.198 89.9879 227.217 89.9879C215.441 89.9879 205.399 97.9758 205.399 109.382C205.399 118.448 211.865 126.679 221.217 127.63L223.332 124.994C214.914 124.018 210.126 116.794 210.126 109.897C210.156 101.745 216.568 96.5091 224.871 96.5091C234.611 96.5091 241.817 104.436 241.817 114.509C241.817 122.388 237.665 132.406 232.902 142.345C227.895 152.939 220.883 168.176 217.938 176.485C208.471 148.485 205.423 139.739 200.986 128.279C193.702 109.461 187.592 95.6667 184.98 90.2606L167.453 104.788L168.253 106.8C171.198 105.685 173.671 107.042 176.035 109.624C179.362 113.152 181.453 118.667 185.526 128.77C191.223 142.891 195.265 153.376 198.653 162.8C203.823 177.164 209.792 195.006 209.792 200.897C209.812 201.268 209.756 201.639 209.629 201.988V202.042H215.162C216.102 195.903 220.883 180.721 227.295 165.648C230.514 157.964 234.259 150.927 237.78 144.388C244.629 131.461 250.029 121.764 249.992 112.339" fill="#C2B291"/>
</g>
<defs>
<clipPath id="clip0">
<rect width="200" height="181.818" fill="white" transform="translate(50 59)"/>
</clipPath>
</defs>
</svg>
