<svg width="300" height="300" viewBox="0 0 300 300" fill="none" xmlns="http://www.w3.org/2000/svg">
<path d="M0 0H300V300H0V0Z" fill="#7AAF50"/>
<path d="M104.455 95.7273H22.0913V117.818H48.5458V204.273H72.5459V117.818H82.364C87.2731 108.818 94.9094 101.182 104.455 95.7273V95.7273ZM233.728 206.182C201.819 206.182 178.091 181.636 178.091 150.546V150.273C178.091 119.455 201.273 94.0909 234.819 94.0909C255.273 94.0909 267.546 100.909 277.637 111L262.364 128.455C253.909 120.818 245.455 116.182 234.546 116.182C216.273 116.182 203.182 131.455 203.182 150V150.273C203.182 168.818 216 184.364 234.546 184.364C247.091 184.364 254.455 179.455 262.909 171.545L278.182 186.818C267 198.818 254.728 206.182 233.728 206.182Z" fill="white"/>
<path d="M169.636 150C169.636 147.273 169.909 144.273 170.182 141.818H139.636V162.545H163.636V178.091C157.636 182.455 149.727 184.636 141.273 184.636C122.182 184.636 108.273 169.909 108.273 150.273V150C108.273 131.454 122.182 116.182 139.364 116.182C151.909 116.182 159.273 120.273 167.727 127.091L182.727 109.091C171.273 99.2727 159.818 94.3636 140.182 94.3636C107.182 94.3636 83.4545 119.455 83.4545 150.545V150.818C83.1818 183 106.364 206.455 140.182 206.455C158.182 206.455 172.364 199.909 183.273 191.727C174.545 180.545 169.364 166.364 169.364 150.545V150H169.636V150Z" fill="white"/>
<mask id="mask0" mask-type="alpha" maskUnits="userSpaceOnUse" x="0" y="0" width="300" height="300">
<rect width="300" height="300" fill="#C4C4C4"/>
</mask>
<g mask="url(#mask0)">
<rect width="150" height="300" fill="white" fill-opacity="0.25"/>
<rect x="150" width="150" height="300" fill="white" fill-opacity="0.1"/>
<g filter="url(#filter0_d)">
<circle cx="150.5" cy="149.5" r="0.5" fill="white" fill-opacity="0.1"/>
</g>
</g>
<defs>
<filter id="filter0_d" x="-40" y="-41" width="401" height="401" filterUnits="userSpaceOnUse" color-interpolation-filters="sRGB">
<feFlood flood-opacity="0" result="BackgroundImageFix"/>
<feColorMatrix in="SourceAlpha" type="matrix" values="0 0 0 0 0 0 0 0 0 0 0 0 0 0 0 0 0 0 127 0"/>
<feMorphology radius="100" operator="dilate" in="SourceAlpha" result="effect1_dropShadow"/>
<feOffset dx="10" dy="10"/>
<feGaussianBlur stdDeviation="50"/>
<feColorMatrix type="matrix" values="0 0 0 0 1 0 0 0 0 1 0 0 0 0 1 0 0 0 0.15 0"/>
<feBlend mode="normal" in2="BackgroundImageFix" result="effect1_dropShadow"/>
<feBlend mode="normal" in="SourceGraphic" in2="effect1_dropShadow" result="shape"/>
</filter>
</defs>
</svg>
