<?xml version="1.0" standalone="no"?><!DOCTYPE svg PUBLIC "-//W3C//DTD SVG 1.1//EN" "http://www.w3.org/Graphics/SVG/1.1/DTD/svg11.dtd"><svg class="mast__logo" viewBox="345 245.4 110 110" version="1.1" xmlns="http://www.w3.org/2000/svg" xmlns:xlink="http://www.w3.org/1999/xlink" style="border-bottom-color:rgb(121, 174, 74);border-left-color:rgb(121, 174, 74);border-right-color:rgb(121, 174, 74);border-top-color:rgb(121, 174, 74);color:rgb(121, 174, 74);cursor:pointer;display:block;height:72px;margin-right:16px;min-height:auto;min-width:auto;outline-color:rgb(121, 174, 74);text-decoration:none solid rgb(121, 174, 74);text-decoration-color:rgb(121, 174, 74);width:72px;column-rule-color:rgb(121, 174, 74);perspective-origin:36px 36px;-webkit-text-emphasis-color:rgb(121, 174, 74);-webkit-text-fill-color:rgb(121, 174, 74);-webkit-text-stroke-color:rgb(121, 174, 74);transform-origin:36px 36px;caret-color:rgb(121, 174, 74);">
<path fill="#7AAF50" d="M345 245.4h110v110H345z" style="border-bottom-color:rgb(121, 174, 74);border-left-color:rgb(121, 174, 74);border-right-color:rgb(121, 174, 74);border-top-color:rgb(121, 174, 74);color:rgb(121, 174, 74);cursor:pointer;height:auto;outline-color:rgb(121, 174, 74);overflow-x:visible;overflow-y:visible;text-decoration:none solid rgb(121, 174, 74);text-decoration-color:rgb(121, 174, 74);width:auto;column-rule-color:rgb(121, 174, 74);perspective-origin:0px 0px;-webkit-text-emphasis-color:rgb(121, 174, 74);-webkit-text-fill-color:rgb(121, 174, 74);-webkit-text-stroke-color:rgb(121, 174, 74);transform-origin:0px 0px;fill:rgb(122, 175, 80);d:path(&quot;M 345 245.4 H 455 V 355.4 H 345 Z&quot;);caret-color:rgb(121, 174, 74);"/>
<path fill="#FFF" d="M383.3 280.5h-30.2v8.1h9.7v31.7h8.8v-31.7h3.6c1.8-3.3 4.6-6.1 8.1-8.1zM430.7 321c-11.7 0-20.4-9-20.4-20.4v-.1c0-11.3 8.5-20.6 20.8-20.6 7.5 0 12 2.5 15.7 6.2l-5.6 6.4c-3.1-2.8-6.2-4.5-10.2-4.5-6.7 0-11.5 5.6-11.5 12.4v.1c0 6.8 4.7 12.5 11.5 12.5 4.6 0 7.3-1.8 10.4-4.7l5.6 5.6c-4.1 4.4-8.6 7.1-16.3 7.1z" style="border-bottom-color:rgb(121, 174, 74);border-left-color:rgb(121, 174, 74);border-right-color:rgb(121, 174, 74);border-top-color:rgb(121, 174, 74);color:rgb(121, 174, 74);cursor:pointer;height:auto;outline-color:rgb(121, 174, 74);overflow-x:visible;overflow-y:visible;text-decoration:none solid rgb(121, 174, 74);text-decoration-color:rgb(121, 174, 74);width:auto;column-rule-color:rgb(121, 174, 74);perspective-origin:0px 0px;-webkit-text-emphasis-color:rgb(121, 174, 74);-webkit-text-fill-color:rgb(121, 174, 74);-webkit-text-stroke-color:rgb(121, 174, 74);transform-origin:0px 0px;fill:rgb(255, 255, 255);d:path(&quot;M 383.3 280.5 H 353.1 V 288.6 H 362.8 V 320.3 H 371.6 V 288.6 H 375.2 C 377 285.3 379.8 282.5 383.3 280.5 Z M 430.7 321 C 419 321 410.3 312 410.3 300.6 V 300.5 C 410.3 289.2 418.8 279.9 431.1 279.9 C 438.6 279.9 443.1 282.4 446.8 286.1 L 441.2 292.5 C 438.1 289.7 435 288 431 288 C 424.3 288 419.5 293.6 419.5 300.4 V 300.5 C 419.5 307.3 424.2 313 431 313 C 435.6 313 438.3 311.2 441.4 308.3 L 447 313.9 C 442.9 318.3 438.4 321 430.7 321 Z&quot;);caret-color:rgb(121, 174, 74);"/>
<path fill="#FFF" d="M407.2 300.4c0-1 .1-2.1.2-3h-11.2v7.6h8.8v5.7c-2.2 1.6-5.1 2.4-8.2 2.4-7 0-12.1-5.4-12.1-12.6v-.1c0-6.8 5.1-12.4 11.4-12.4 4.6 0 7.3 1.5 10.4 4l5.5-6.6c-4.2-3.6-8.4-5.4-15.6-5.4-12.1 0-20.8 9.2-20.8 20.6v.1c-.1 11.8 8.4 20.4 20.8 20.4 6.6 0 11.8-2.4 15.8-5.4-3.2-4.1-5.1-9.3-5.1-15.1v-.2h.1z" style="border-bottom-color:rgb(121, 174, 74);border-left-color:rgb(121, 174, 74);border-right-color:rgb(121, 174, 74);border-top-color:rgb(121, 174, 74);color:rgb(121, 174, 74);cursor:pointer;height:auto;outline-color:rgb(121, 174, 74);overflow-x:visible;overflow-y:visible;text-decoration:none solid rgb(121, 174, 74);text-decoration-color:rgb(121, 174, 74);width:auto;column-rule-color:rgb(121, 174, 74);perspective-origin:0px 0px;-webkit-text-emphasis-color:rgb(121, 174, 74);-webkit-text-fill-color:rgb(121, 174, 74);-webkit-text-stroke-color:rgb(121, 174, 74);transform-origin:0px 0px;fill:rgb(255, 255, 255);d:path(&quot;M 407.2 300.4 C 407.2 299.4 407.3 298.3 407.4 297.4 H 396.2 V 305 H 405 V 310.7 C 402.8 312.3 399.9 313.1 396.8 313.1 C 389.8 313.1 384.7 307.7 384.7 300.5 V 300.4 C 384.7 293.6 389.8 288 396.1 288 C 400.7 288 403.4 289.5 406.5 292 L 412 285.4 C 407.8 281.8 403.6 280 396.4 280 C 384.3 280 375.6 289.2 375.6 300.6 V 300.7 C 375.5 312.5 384 321.1 396.4 321.1 C 403 321.1 408.2 318.7 412.2 315.7 C 409 311.6 407.1 306.4 407.1 300.6 V 300.4 H 407.2 Z&quot;);caret-color:rgb(121, 174, 74);"/>
</svg>