<svg width="400" height="300" viewBox="0 0 400 300" fill="none" xmlns="http://www.w3.org/2000/svg">
<path d="M196.69 279.77L345.9 191.58C350.65 188.91 354.73 184.58 350.09 181.66L200.35 95.36C198.1 93.97 194.69 93.06 192.41 94.36L35.77 185.29C31.02 188.05 30.17 195.75 34.92 198.51L177 279.63C179.986 281.365 183.373 282.291 186.826 282.315C190.28 282.34 193.68 281.462 196.69 279.77V279.77Z" fill="#FFC745"/>
<path d="M315.2 189.23L297.64 178.9L266.15 198.26L283.45 208.36C294.19 202.27 304.75 195.83 315.2 189.23Z" fill="url(#paint0_linear)"/>
<path d="M104.98 186.58L73.49 205.94L135.63 242.23L167.78 223.52L104.98 186.58Z" fill="url(#paint1_linear)"/>
<path d="M97.91 189.43V183.73L100.68 186.5C100.713 186.879 100.665 187.261 100.539 187.621C100.414 187.98 100.214 188.309 99.9519 188.586C99.6903 188.863 99.3732 189.081 99.0212 189.226C98.6693 189.372 98.2906 189.441 97.91 189.43V189.43Z" fill="#E75A59"/>
<path d="M100.07 185.58L204.58 125.58C205.695 124.934 206.961 124.594 208.25 124.594C209.539 124.594 210.805 124.934 211.92 125.58L267.7 158.21C268.352 158.588 268.893 159.131 269.269 159.784C269.645 160.436 269.843 161.177 269.843 161.93C269.843 162.684 269.645 163.424 269.269 164.077C268.893 164.73 268.352 165.272 267.7 165.65L164.3 225.47C162.812 226.332 161.121 226.782 159.402 226.771C157.682 226.76 155.997 226.291 154.52 225.41L100 193C99.3563 192.615 98.8247 192.068 98.4578 191.414C98.0909 190.759 97.9017 190.02 97.9087 189.27C97.9158 188.52 98.119 187.785 98.4981 187.137C98.8773 186.49 99.4192 185.953 100.07 185.58V185.58Z" fill="#E75A59"/>
<path d="M100.07 180.86L204.58 120.86C205.695 120.214 206.961 119.874 208.25 119.874C209.539 119.874 210.805 120.214 211.92 120.86L267.7 153.49C268.352 153.868 268.893 154.411 269.269 155.063C269.645 155.716 269.843 156.457 269.843 157.21C269.843 157.964 269.645 158.704 269.269 159.357C268.893 160.01 268.352 160.552 267.7 160.93L164.3 220.75C162.812 221.612 161.121 222.061 159.402 222.051C157.682 222.04 155.997 221.57 154.52 220.69L100 188.29C99.354 187.905 98.8202 187.358 98.4517 186.703C98.0833 186.047 97.8931 185.307 97.9002 184.555C97.9073 183.803 98.1113 183.066 98.4921 182.418C98.8728 181.77 99.4169 181.232 100.07 180.86V180.86Z" fill="#FFDDDC"/>
<path d="M202 128.38C202.58 128.57 255.37 159.38 255.37 159.38L167.23 211L114 180.27L202 128.38Z" fill="white"/>
<path d="M144.48 206.14C144.648 206.045 144.795 205.915 144.909 205.759C145.023 205.603 145.103 205.424 145.143 205.235C145.182 205.046 145.181 204.85 145.139 204.661C145.098 204.472 145.016 204.295 144.9 204.14C144.154 203.359 143.286 202.703 142.33 202.2C141.43 201.63 140.49 201.15 139.57 200.61L132.47 196.45L126.65 193.04C126.268 192.803 125.838 192.655 125.392 192.606C124.945 192.558 124.494 192.61 124.07 192.76C123.457 192.973 122.928 193.376 122.56 193.91C122.468 194.062 122.41 194.232 122.389 194.409C122.369 194.585 122.386 194.764 122.44 194.934C122.494 195.103 122.583 195.259 122.702 195.391C122.821 195.523 122.967 195.629 123.13 195.7L133.86 201.91L138.49 204.59L141.17 206.16C141.577 206.402 142.033 206.552 142.505 206.599C142.977 206.646 143.453 206.588 143.9 206.43C144.106 206.36 144.301 206.263 144.48 206.14V206.14Z" fill="#E75A59"/>
<path d="M117.94 191.62C118.967 191.62 119.8 190.931 119.8 190.08C119.8 189.23 118.967 188.54 117.94 188.54C116.913 188.54 116.08 189.23 116.08 190.08C116.08 190.931 116.913 191.62 117.94 191.62Z" fill="#E75A59"/>
<path d="M295.9 166.26C295.9 166.26 293.52 186.73 304.35 190.69C315.18 194.65 320.97 184.35 321.14 166.26" fill="#B9D9EB"/>
<path opacity="0.33" d="M295.9 166.26C295.9 166.26 293.52 186.73 304.35 190.69C315.18 194.65 320.97 184.35 321.14 166.26" fill="#2E2E75"/>
<path d="M308.52 173.55C315.49 173.55 321.14 170.286 321.14 166.26C321.14 162.234 315.49 158.97 308.52 158.97C301.55 158.97 295.9 162.234 295.9 166.26C295.9 170.286 301.55 173.55 308.52 173.55Z" fill="#F2696A"/>
<path d="M311.75 150C311.75 150 306.75 142.85 308.96 137.91C308.96 137.91 310.74 134.73 313.27 134.23C313.27 134.23 313.02 141.01 315.54 140.14C318.06 139.27 315.54 133.05 315.54 133.05C315.54 133.05 318.19 129.46 321.09 129.57C323.99 129.68 321.09 135.91 323.09 134.88C325.09 133.85 323.22 128.55 325.49 127.88C327.569 127.406 329.677 127.072 331.8 126.88C331.8 126.88 333.95 133.06 331.8 133.95C329.65 134.84 326.5 135.13 328.01 136.5C329.52 137.87 333.82 136.3 333.82 136.3C333.82 136.3 334.09 139.78 332.63 141.3C331.17 142.82 322.63 139.48 324.1 142.47C325.57 145.46 331.29 143.96 331.29 143.96C331.29 143.96 328.39 148.11 324.98 149.96C321.57 151.81 311.75 150 311.75 150Z" fill="#8CCC00"/>
<path d="M312.91 167.93C312.91 167.93 309.33 164.4 310.03 161.36C310.382 160.29 311.11 159.384 312.08 158.81C312.08 158.81 312.66 162.69 314 161.92C315.34 161.15 313.24 157.92 313.24 157.92C313.24 157.92 314.36 155.6 316.02 155.35C317.68 155.1 316.7 158.95 317.73 158.15C318.76 157.35 317.13 154.54 318.35 153.94C319.477 153.446 320.637 153.029 321.82 152.69C321.82 152.69 323.7 155.97 322.57 156.69C321.44 157.41 319.69 157.93 320.69 158.54C321.69 159.15 323.96 157.8 323.96 157.8C323.96 157.8 324.48 159.75 323.82 160.8C323.16 161.85 317.93 160.8 319.1 162.37C320.27 163.94 323.34 162.45 323.34 162.45C322.628 163.99 321.63 165.381 320.4 166.55C318.7 168 312.91 167.93 312.91 167.93Z" fill="#8CCC00"/>
<path d="M299.75 160.3C299.75 160.3 291.06 160.64 288.05 156.16C288.05 156.16 286.33 152.95 287.26 150.55C287.26 150.55 292.84 154.41 293.47 151.81C294.1 149.21 287.47 148 287.47 148C287.47 148 285.87 143.84 287.52 141.45C289.17 139.06 292.87 144.86 293.08 142.6C293.29 140.34 287.81 139.09 288.5 136.84C289.215 134.832 290.063 132.874 291.04 130.98C291.04 130.98 297.41 132.49 297.04 134.78C296.67 137.07 295.19 139.89 297.16 139.34C299.13 138.79 300.11 134.34 300.11 134.34C300.11 134.34 303.19 135.98 303.67 138.02C304.15 140.06 296.74 145.51 300.07 145.84C303.4 146.17 305.19 140.57 305.19 140.57C305.19 140.57 307.13 145.25 306.89 149.14C306.65 153.03 299.75 160.3 299.75 160.3Z" fill="#8CCC00"/>
<path d="M329.93 129.68C329.01 130.46 328.083 131.253 327.15 132.06C327.25 131.06 327.36 130.06 327.52 129.12C327.6 128.6 326.81 128.38 326.73 128.9C326.523 130.233 326.367 131.55 326.26 132.85C323.82 134.99 321.4 137.22 319.15 139.59C318.958 137.931 318.907 136.258 319 134.59C319 134.06 318.21 134.06 318.18 134.59C318.073 136.527 318.154 138.469 318.42 140.39C316.997 141.941 315.662 143.57 314.42 145.27C313.009 143.318 312.05 141.078 311.61 138.71C311.51 138.19 310.72 138.41 310.82 138.93C311.272 141.462 312.298 143.857 313.82 145.93C313.844 145.957 313.87 145.98 313.9 146C310.095 151.075 307.897 157.174 307.59 163.51C307.59 164.04 308.39 164.04 308.41 163.51C308.69 157.403 310.779 151.518 314.41 146.6C317.727 147.483 321.165 147.82 324.59 147.6C325.11 147.6 325.12 146.74 324.59 146.78C321.34 146.993 318.077 146.693 314.92 145.89C316.661 143.539 318.573 141.32 320.64 139.25H320.71C322.63 139.42 324.54 139.59 326.47 139.66C327.675 139.836 328.906 139.695 330.04 139.25C330.51 139.01 330.1 138.3 329.63 138.54C328.3 139.21 326.45 138.85 325.03 138.77C323.81 138.7 322.6 138.59 321.38 138.49C324.31 135.59 327.45 132.89 330.48 130.33C330.91 129.92 330.33 129.34 329.93 129.68Z" fill="#06577A"/>
<path d="M304.48 145.67C304.509 145.565 304.496 145.453 304.442 145.358C304.389 145.264 304.3 145.194 304.195 145.165C304.09 145.136 303.978 145.149 303.883 145.203C303.789 145.256 303.719 145.345 303.69 145.45C302.803 148.482 300.953 151.142 298.42 153.03C297.487 150.45 296.637 147.84 295.87 145.2C297.853 143.225 299.483 140.925 300.69 138.4C300.92 137.93 300.21 137.51 299.98 137.99C298.869 140.312 297.39 142.44 295.6 144.29C294.74 141.29 293.98 138.22 293.35 135.13C293.24 134.61 292.45 134.83 292.56 135.35C293.433 139.57 294.51 143.73 295.79 147.83C294.243 147.528 292.738 147.038 291.31 146.37C290.83 146.15 290.42 146.85 290.9 147.08C292.544 147.861 294.287 148.416 296.08 148.73V148.73C296.95 151.43 297.92 154.1 298.96 156.73C296.503 156.653 294.082 156.121 291.82 155.16C291.34 154.96 290.92 155.66 291.41 155.87C293.902 156.94 296.578 157.518 299.29 157.57C300.623 160.863 302.073 164.103 303.64 167.29C303.88 167.76 304.59 167.35 304.35 166.88C302.235 162.654 300.356 158.314 298.72 153.88V153.88C301.5 151.86 303.526 148.971 304.48 145.67V145.67Z" fill="#06577A"/>
<path d="M319.35 156.29L317.09 160.08C316.812 159.711 316.571 159.316 316.37 158.9C316.14 158.42 315.43 158.84 315.66 159.31C315.919 159.844 316.237 160.347 316.61 160.81L314.16 164.92C313.883 164.654 313.707 164.301 313.66 163.92C313.6 163.4 312.77 163.4 312.84 163.92C312.913 164.577 313.235 165.182 313.74 165.61L310.68 170.75C310.628 170.844 310.615 170.955 310.643 171.058C310.672 171.162 310.74 171.25 310.833 171.304C310.927 171.358 311.037 171.373 311.141 171.346C311.245 171.319 311.335 171.252 311.39 171.16L315.39 164.38C316.069 164.391 316.745 164.29 317.39 164.08C317.89 163.92 317.68 163.08 317.17 163.29C316.758 163.42 316.331 163.5 315.9 163.53L319.99 156.67C319.998 156.592 319.984 156.513 319.948 156.444C319.913 156.374 319.859 156.315 319.791 156.275C319.724 156.235 319.647 156.215 319.569 156.218C319.49 156.221 319.415 156.246 319.35 156.29Z" fill="#06577A"/>
<path d="M134.905 27.4889C134.905 27.4889 147.686 27.3745 156.341 34.7719C164.996 42.1694 134.905 36.24 134.905 36.24" fill="#06577A"/>
<path d="M102.905 140.207C109.507 144.507 117.344 146.264 125.059 145.174C137.227 143.056 106.436 134.489 106.436 134.489" fill="#06577A"/>
<path d="M157.936 95.5312C167.628 64.2396 160.401 34.2002 141.792 28.4364C123.184 22.6727 100.242 43.3671 90.5496 74.6588C80.8572 105.95 88.0849 135.99 106.693 141.754C125.301 147.517 148.244 126.823 157.936 95.5312Z" fill="#06577A"/>
<path d="M165.355 97.8301C175.047 66.5384 167.82 36.499 149.212 30.7352C130.603 24.9715 107.661 45.666 97.9688 76.9576C88.2764 108.249 95.5041 138.289 114.112 144.052C132.721 149.816 155.663 129.122 165.355 97.8301Z" fill="#B9D9EB"/>
<path d="M134.192 55.6681H134.294C134.42 55.5782 134.562 55.5203 134.71 55.4985C134.858 55.4767 135.009 55.4916 135.151 55.5421C135.293 55.5927 135.424 55.6776 135.534 55.7908C135.643 55.904 135.729 56.0428 135.785 56.1973C136.86 58.5279 137.341 61.1426 137.175 63.7568C137.175 64.6639 137.119 65.6215 137.006 66.6294C136.734 69.4453 136.514 72.2991 136.26 75.0583C136.26 75.0583 136.26 75.2095 136.26 75.2851C136.26 75.3607 136.26 75.5496 136.26 75.7197L136.667 75.4174L144.463 69.4831C144.988 69.0863 145.48 68.8406 145.92 69.143C146.254 69.49 146.505 69.9233 146.653 70.4045C146.801 70.8857 146.84 71.4 146.768 71.9022C146.726 73.208 146.455 74.4922 145.971 75.6819C145.717 76.3245 145.429 76.9293 145.141 77.5718C145.47 77.7185 145.787 77.8955 146.09 78.101C146.402 78.4663 146.635 78.9068 146.77 79.3886C146.905 79.8704 146.939 80.3804 146.869 80.8791C146.83 82.1447 146.571 83.3897 146.107 84.5455C145.86 85.0954 145.571 85.6203 145.242 86.1141C145.022 86.4732 144.785 86.7566 144.53 87.1346C144.717 87.5315 144.886 87.9095 145.039 88.2874C145.302 88.9797 145.424 89.7285 145.395 90.4797C145.358 92.3844 144.763 94.2232 143.7 95.7147C143.395 96.0926 143.09 96.4328 142.734 96.8486C142.87 97.3022 142.988 97.7368 143.09 98.1715C143.232 98.7498 143.295 99.3488 143.276 99.948C143.242 101.799 142.698 103.594 141.717 105.088C141.56 105.281 141.384 105.452 141.192 105.599L130.362 113.858C129.328 114.651 128.396 114.746 127.633 113.858C127.515 113.744 127.396 113.612 127.261 113.631C127.125 113.65 126.905 113.253 126.905 112.591C126.961 110.071 127.018 107.508 127.074 104.899C127.165 100.628 127.249 96.3509 127.328 92.0672C127.316 91.6016 127.409 91.14 127.6 90.7254C128.351 89.0364 128.92 87.2537 129.294 85.4148C130.413 80.4255 131.565 75.4174 132.684 70.447C133.081 68.812 133.309 67.1316 133.362 65.4388C133.362 65.0608 133.362 64.6891 133.362 64.3238C133.362 61.9992 133.277 59.618 133.226 57.2745C133.215 56.9778 133.293 56.6853 133.447 56.443C133.65 56.1353 133.903 55.8726 134.192 55.6681V55.6681Z" fill="white"/>
<path d="M146.461 86.8465C146.294 87.1424 146.237 87.4915 146.3 87.828C146.687 91.0336 146.06 94.2828 144.513 97.0876C144.361 97.3417 144.298 97.6427 144.335 97.9395C144.585 101.829 142.941 106.607 140.761 108.125L135.776 111.662L128.95 116.477C128.52 116.848 127.987 117.067 127.428 117.104C126.869 117.141 126.314 116.993 125.841 116.681L125.627 116.477C125.627 116.977 125.627 117.366 125.627 117.774C125.666 118.532 125.544 119.29 125.269 119.994C124.994 120.698 124.573 121.331 124.037 121.848L120.213 124.57L116.371 127.274C115.478 127.904 114.87 127.107 114.906 125.422L115.532 96.4209C115.493 95.667 115.614 94.9135 115.885 94.213C116.157 93.5125 116.573 92.8819 117.104 92.3652L124.698 86.8465C125.395 86.365 125.877 86.5502 126.109 87.6984V87.9762C126.217 87.6243 126.324 87.2724 126.413 86.902L130.666 69.7162C130.942 68.4473 131.039 67.1433 130.952 65.8456C130.952 63.1418 130.862 60.4565 130.809 57.7527C130.823 57.5162 130.877 57.2842 130.969 57.0675C131.413 55.8206 132.172 54.7204 133.167 53.8822C133.428 53.6524 133.752 53.5157 134.094 53.4924C134.435 53.469 134.774 53.5602 135.061 53.7525C136.366 54.66 137.027 56.8453 137.42 59.512C137.75 62.1678 137.75 64.8566 137.42 67.5124C137.241 69.1235 137.116 70.7162 136.955 72.4385L137.384 72.1422L141.976 68.9013L144.281 67.2716C144.46 67.1038 144.669 66.9751 144.896 66.8933C145.124 66.8115 145.365 66.7782 145.606 66.7955C145.846 66.8128 146.081 66.8803 146.295 66.9939C146.51 67.1076 146.7 67.265 146.854 67.4568C147.908 68.7717 148.087 71.8274 147.301 74.9941C147.211 75.3645 147.104 75.7164 147.033 76.0127C147.297 76.6711 147.524 77.3452 147.712 78.0313C148.198 81.0329 147.76 84.117 146.461 86.8465V86.8465ZM145.836 84.9946C146.325 83.862 146.598 82.642 146.64 81.4018C146.713 80.9131 146.678 80.4133 146.535 79.9412C146.393 79.4692 146.147 79.0374 145.818 78.6795C145.499 78.4781 145.164 78.3047 144.817 78.1609C145.139 77.4943 145.425 76.8831 145.693 76.309C146.203 75.1431 146.489 73.8848 146.532 72.6052C146.609 72.1131 146.568 71.6091 146.412 71.1375C146.256 70.666 145.991 70.2414 145.639 69.9013C145.175 69.605 144.656 69.9013 144.102 70.2347L135.883 76.0497L135.454 76.3461C135.454 76.1794 135.454 76.0312 135.454 75.9201C135.454 75.809 135.454 75.772 135.454 75.6979C135.704 72.9385 135.955 70.1421 136.241 67.4383C136.348 66.4506 136.407 65.5123 136.419 64.6234C136.594 62.0617 136.087 59.4995 134.954 57.2156C134.895 57.0643 134.804 56.9283 134.689 56.8173C134.573 56.7064 134.435 56.6232 134.285 56.5737C134.135 56.5242 133.976 56.5096 133.82 56.5309C133.664 56.5522 133.514 56.609 133.382 56.6971H133.274C132.984 56.9193 132.735 57.1956 132.542 57.512C132.397 57.7095 132.316 57.9492 132.31 58.1972C132.31 60.6232 132.31 62.9566 132.453 65.2345C132.453 65.5925 132.453 65.9567 132.453 66.3271C132.396 67.986 132.157 69.6326 131.738 71.2347C130.505 76.1053 129.29 81.0129 128.164 85.902C127.77 87.7039 127.17 89.4509 126.377 91.1059C126.177 91.5122 126.078 91.9645 126.092 92.4208C126.008 96.6061 125.919 100.798 125.824 104.995C125.824 107.465 125.764 109.977 125.645 112.533C125.645 113.199 125.645 113.551 126.02 113.551C126.395 113.551 126.288 113.662 126.413 113.774C127.235 114.57 128.2 114.477 129.29 113.774L140.708 105.681C140.91 105.537 141.096 105.369 141.261 105.181C142.296 103.716 142.87 101.958 142.905 100.143C142.925 99.5561 142.858 98.9692 142.709 98.4025C142.602 97.9766 142.459 97.5506 142.334 97.1062C142.709 96.6987 143.03 96.3839 143.352 95.995C144.473 94.5335 145.1 92.7316 145.139 90.8652C145.169 90.1291 145.041 89.3953 144.764 88.7169C144.603 88.3466 144.424 87.9947 144.228 87.5873C144.496 87.2354 144.746 86.9576 144.978 86.5872C145.324 86.1034 145.629 85.589 145.889 85.0501" fill="black"/>
<path d="M152.72 192.92L170.38 202.92C170.666 203.084 170.99 203.17 171.32 203.17C171.65 203.17 171.974 203.084 172.26 202.92L192.87 190.92C193.154 190.753 193.39 190.515 193.554 190.229C193.717 189.943 193.803 189.619 193.803 189.29C193.803 188.961 193.717 188.637 193.554 188.351C193.39 188.065 193.154 187.827 192.87 187.66L175.28 177.51C174.991 177.342 174.664 177.254 174.33 177.254C173.996 177.254 173.669 177.342 173.38 177.51L152.69 189.64C152.403 189.808 152.165 190.049 152.001 190.339C151.836 190.628 151.751 190.956 151.754 191.289C151.757 191.622 151.848 191.948 152.018 192.234C152.187 192.521 152.43 192.757 152.72 192.92V192.92Z" fill="#B9D9EB"/>
<path d="M141.81 171L159.47 181C159.756 181.164 160.08 181.25 160.41 181.25C160.74 181.25 161.064 181.164 161.35 181L182 169C182.284 168.833 182.52 168.595 182.683 168.309C182.847 168.023 182.933 167.7 182.933 167.37C182.933 167.041 182.847 166.717 182.683 166.431C182.52 166.145 182.284 165.907 182 165.74L164.41 155.59C164.121 155.422 163.794 155.334 163.46 155.334C163.126 155.334 162.798 155.422 162.51 155.59L141.82 167.72C141.531 167.885 141.29 168.123 141.122 168.41C140.954 168.698 140.865 169.024 140.864 169.357C140.863 169.69 140.95 170.017 141.116 170.306C141.282 170.594 141.522 170.834 141.81 171V171Z" fill="#E6E6E6"/>
<path d="M177.29 148.32L194.95 158.32C195.236 158.484 195.56 158.57 195.89 158.57C196.22 158.57 196.544 158.484 196.83 158.32L217.44 146.32C217.724 146.153 217.96 145.915 218.124 145.629C218.287 145.343 218.373 145.019 218.373 144.69C218.373 144.36 218.287 144.037 218.124 143.751C217.96 143.465 217.724 143.227 217.44 143.06L199.85 132.91C199.562 132.742 199.234 132.654 198.9 132.654C198.566 132.654 198.239 132.742 197.95 132.91L177.26 145.04C176.973 145.208 176.735 145.449 176.571 145.738C176.406 146.028 176.321 146.356 176.324 146.689C176.327 147.021 176.418 147.348 176.588 147.634C176.757 147.921 177 148.157 177.29 148.32V148.32Z" fill="#E6E6E6"/>
<path d="M171.87 122.61L189.53 132.61C189.816 132.774 190.14 132.86 190.47 132.86C190.8 132.86 191.124 132.774 191.41 132.61L212.02 120.61C212.304 120.443 212.54 120.205 212.703 119.919C212.867 119.633 212.953 119.309 212.953 118.98C212.953 118.65 212.867 118.327 212.703 118.041C212.54 117.755 212.304 117.517 212.02 117.35L194.43 107.2C194.141 107.032 193.814 106.944 193.48 106.944C193.146 106.944 192.819 107.032 192.53 107.2L171.84 119.33C171.553 119.498 171.315 119.739 171.151 120.029C170.986 120.318 170.901 120.646 170.904 120.979C170.907 121.312 170.998 121.638 171.168 121.924C171.337 122.211 171.58 122.447 171.87 122.61V122.61Z" fill="#B9D9EB"/>
<path d="M144.12 150.3L161.78 160.3C162.066 160.464 162.39 160.55 162.72 160.55C163.05 160.55 163.374 160.464 163.66 160.3L184.27 148.3C184.554 148.133 184.79 147.895 184.953 147.609C185.117 147.323 185.203 147 185.203 146.67C185.203 146.341 185.117 146.017 184.953 145.731C184.79 145.445 184.554 145.207 184.27 145.04L166.68 134.9C166.391 134.732 166.064 134.644 165.73 134.644C165.396 134.644 165.069 134.732 164.78 134.9L144.1 147C143.807 147.166 143.564 147.407 143.396 147.698C143.227 147.989 143.14 148.32 143.142 148.656C143.144 148.992 143.235 149.322 143.407 149.611C143.579 149.9 143.825 150.138 144.12 150.3Z" fill="#B9D9EB"/>
<path opacity="0.32" d="M252.69 231.59L199.55 263.51L173.29 248.25L220.19 220.95" fill="url(#paint2_linear)"/>
<path d="M191.76 218.48L249.18 183.48C249.488 183.302 249.839 183.209 250.195 183.211C250.551 183.214 250.9 183.311 251.206 183.494C251.511 183.676 251.763 183.937 251.934 184.249C252.106 184.562 252.19 184.914 252.18 185.27V205.27C252.183 205.631 252.092 205.986 251.917 206.302C251.742 206.617 251.488 206.882 251.18 207.07L193.74 241.35C193.433 241.527 193.085 241.62 192.73 241.618C192.376 241.616 192.029 241.521 191.723 241.341C191.418 241.161 191.166 240.903 190.994 240.593C190.821 240.284 190.733 239.934 190.74 239.58L190.44 220.98C190.417 220.483 190.528 219.99 190.76 219.55C190.992 219.111 191.337 218.741 191.76 218.48Z" fill="#E2AC00"/>
<path d="M205.5 228.75C203.44 231.63 199.82 232.44 197.42 230.56C195.02 228.68 194.74 224.82 196.81 221.95C198.88 219.08 202.49 218.26 204.89 220.14C207.29 222.02 207.56 225.87 205.5 228.75Z" fill="white"/>
<path d="M212.15 216.66L235.58 202.55C235.808 202.385 235.967 202.142 236.025 201.866C236.083 201.591 236.036 201.304 235.893 201.061C235.751 200.818 235.523 200.638 235.254 200.554C234.985 200.471 234.695 200.491 234.44 200.61L211 214.72C210.772 214.885 210.613 215.129 210.555 215.404C210.497 215.679 210.544 215.966 210.687 216.209C210.829 216.452 211.057 216.633 211.326 216.716C211.595 216.799 211.885 216.779 212.14 216.66H212.15Z" fill="#F2F2F2"/>
<path d="M213.12 222.39L245.41 202.95C245.638 202.785 245.797 202.541 245.855 202.266C245.913 201.991 245.866 201.703 245.723 201.461C245.581 201.218 245.353 201.037 245.084 200.954C244.815 200.871 244.525 200.891 244.27 201.01L212 220.45C211.772 220.615 211.613 220.858 211.555 221.134C211.497 221.409 211.544 221.696 211.687 221.939C211.829 222.182 212.057 222.362 212.326 222.446C212.595 222.529 212.885 222.509 213.14 222.39H213.12Z" fill="#F2F2F2"/>
<path d="M202.7 224.78L260.12 189.78C260.428 189.602 260.779 189.509 261.135 189.512C261.491 189.514 261.84 189.612 262.146 189.794C262.451 189.977 262.703 190.237 262.874 190.55C263.046 190.862 263.13 191.214 263.12 191.57V211.57C263.123 211.931 263.032 212.286 262.857 212.602C262.682 212.917 262.428 213.182 262.12 213.37L204.68 247.65C204.373 247.827 204.025 247.92 203.67 247.918C203.316 247.917 202.969 247.821 202.663 247.641C202.358 247.461 202.106 247.203 201.934 246.894C201.761 246.584 201.673 246.234 201.68 245.88L201.38 227.28C201.357 226.784 201.468 226.29 201.7 225.851C201.932 225.411 202.277 225.042 202.7 224.78V224.78Z" fill="#F47B56"/>
<path d="M216.44 235C214.38 237.88 210.76 238.69 208.36 236.81C205.96 234.93 205.68 231.07 207.75 228.2C209.82 225.33 213.43 224.51 215.83 226.39C218.23 228.27 218.5 232.17 216.44 235Z" fill="white"/>
<path d="M223.09 223L246.52 208.89C246.748 208.725 246.907 208.481 246.965 208.206C247.023 207.931 246.976 207.643 246.833 207.401C246.691 207.158 246.463 206.977 246.194 206.894C245.925 206.811 245.635 206.831 245.38 206.95L222 221C221.772 221.164 221.613 221.408 221.555 221.684C221.497 221.959 221.544 222.246 221.687 222.489C221.829 222.732 222.057 222.912 222.326 222.996C222.595 223.079 222.885 223.059 223.14 222.94L223.09 223Z" fill="#F2F2F2"/>
<path d="M224.06 228.69L256.35 209.25C256.578 209.085 256.737 208.841 256.795 208.566C256.853 208.29 256.806 208.003 256.663 207.761C256.521 207.518 256.293 207.337 256.024 207.254C255.755 207.17 255.465 207.19 255.21 207.31L222.92 226.75C222.692 226.914 222.533 227.158 222.475 227.434C222.417 227.709 222.464 227.996 222.607 228.239C222.749 228.482 222.977 228.662 223.246 228.746C223.515 228.829 223.805 228.809 224.06 228.69V228.69Z" fill="#F2F2F2"/>
<path d="M212.9 231.46L270.32 196.46C270.628 196.282 270.979 196.189 271.335 196.191C271.691 196.194 272.04 196.291 272.346 196.474C272.651 196.656 272.903 196.917 273.074 197.229C273.246 197.542 273.33 197.894 273.32 198.25V218.25C273.323 218.611 273.232 218.966 273.057 219.282C272.882 219.597 272.628 219.862 272.32 220.05L214.88 254.33C214.573 254.507 214.225 254.6 213.87 254.598C213.516 254.596 213.169 254.501 212.863 254.321C212.558 254.14 212.306 253.883 212.134 253.573C211.961 253.264 211.873 252.914 211.88 252.56L211.58 233.96C211.557 233.463 211.668 232.97 211.9 232.53C212.132 232.091 212.477 231.721 212.9 231.46V231.46Z" fill="#B9D9EB"/>
<path d="M212.9 231.46L270.32 196.46C270.628 196.282 270.979 196.189 271.335 196.191C271.691 196.194 272.04 196.291 272.346 196.474C272.651 196.656 272.903 196.917 273.074 197.229C273.246 197.542 273.33 197.894 273.32 198.25V218.25C273.323 218.611 273.232 218.966 273.057 219.282C272.882 219.597 272.628 219.862 272.32 220.05L214.88 254.33C214.573 254.507 214.225 254.6 213.87 254.598C213.516 254.596 213.169 254.501 212.863 254.321C212.558 254.14 212.306 253.883 212.134 253.573C211.961 253.264 211.873 252.914 211.88 252.56L211.58 233.96C211.557 233.463 211.668 232.97 211.9 232.53C212.132 232.091 212.477 231.721 212.9 231.46V231.46Z" fill="#B9D9EB"/>
<path d="M226.64 241.73C224.58 244.61 220.96 245.42 218.56 243.54C216.16 241.66 215.88 237.8 217.95 234.93C220.02 232.06 223.63 231.24 226.03 233.12C228.43 235 228.7 238.85 226.64 241.73Z" fill="white"/>
<path d="M233.29 229.64L256.72 215.53C256.948 215.365 257.107 215.122 257.165 214.846C257.223 214.571 257.176 214.284 257.033 214.041C256.891 213.798 256.663 213.618 256.394 213.534C256.125 213.451 255.835 213.471 255.58 213.59L232.15 227.7C231.922 227.865 231.763 228.108 231.705 228.384C231.647 228.659 231.694 228.946 231.837 229.189C231.979 229.432 232.207 229.613 232.476 229.696C232.745 229.779 233.035 229.759 233.29 229.64V229.64Z" fill="#F2F2F2"/>
<path d="M234.26 235.37L266.55 215.93C266.778 215.765 266.937 215.521 266.995 215.246C267.053 214.971 267.006 214.683 266.863 214.441C266.721 214.198 266.493 214.017 266.224 213.934C265.955 213.851 265.665 213.871 265.41 213.99L233.12 233.43C232.892 233.595 232.733 233.838 232.675 234.114C232.617 234.389 232.664 234.676 232.807 234.919C232.949 235.162 233.177 235.342 233.446 235.426C233.715 235.509 234.005 235.489 234.26 235.37V235.37Z" fill="#F2F2F2"/>
<path d="M155.694 141.633C156.943 141.338 158.179 141.068 159.408 140.788C159.524 140.756 159.645 140.748 159.765 140.766C159.884 140.784 159.998 140.826 160.1 140.891L162.583 142.394C162.815 142.534 162.804 142.611 162.542 142.668L162.491 142.66L160.682 143.081L160.622 143.072C159.969 143.237 159.955 143.506 160.563 143.884L162.234 145.032L162.611 144.965L165.113 144.403C165.244 144.35 165.386 144.334 165.526 144.354C165.666 144.375 165.797 144.433 165.907 144.521L168.138 146.075C168.321 146.198 168.282 146.28 168.1 146.331L165.804 146.863L165.433 146.948L165.793 147.167L174.154 152.242C174.49 152.449 174.536 152.491 174.245 152.57L174.1 152.601L170.731 153.357C170.59 153.413 170.437 153.431 170.287 153.408C170.137 153.386 169.996 153.325 169.877 153.23L161.549 148.177L161.172 147.947L159.52 148.313C159.367 148.376 159.2 148.397 159.036 148.372C158.872 148.348 158.718 148.279 158.589 148.174L156.243 146.752C155.947 146.568 155.928 146.522 156.218 146.451L156.295 146.463L158.01 146.08L157.673 145.882C156.826 145.354 155.915 144.843 155.131 144.308C153.669 143.217 153.946 142.054 155.694 141.633Z" fill="white"/>
<defs>
<linearGradient id="paint0_linear" x1="299.61" y1="180.91" x2="284.65" y2="202.39" gradientUnits="userSpaceOnUse">
<stop stop-color="#FF9504"/>
<stop offset="0.99" stop-color="#FFC745"/>
</linearGradient>
<linearGradient id="paint1_linear" x1="12182.2" y1="11513.6" x2="11558.6" y2="13031.8" gradientUnits="userSpaceOnUse">
<stop stop-color="#FF9504"/>
<stop offset="0.99" stop-color="#FFC745"/>
</linearGradient>
<linearGradient id="paint2_linear" x1="188.37" y1="257.88" x2="199.13" y2="250.03" gradientUnits="userSpaceOnUse">
<stop stop-color="white" stop-opacity="0"/>
<stop offset="0.99" stop-color="#DC841E"/>
</linearGradient>
</defs>
</svg>
