<svg width="320" height="370" viewBox="0 0 320 370" fill="none" xmlns="http://www.w3.org/2000/svg">
<rect width="320" height="370" rx="50" fill="#FEFEFA"/>
<rect x="1" y="1" width="318" height="368" rx="49" stroke="#D2D7EC" stroke-opacity="0.5" stroke-width="2"/>
<rect x="10" y="43" width="300" height="168.785"/>
<path d="M84.1129 255.336H89.6329V258H80.7529V241.248H84.1129V255.336ZM102.041 254.808H95.3685L94.2645 258H90.7365L96.7605 241.224H100.673L106.697 258H103.145L102.041 254.808ZM101.129 252.12L98.7045 245.112L96.2805 252.12H101.129ZM117.588 258L113.892 251.472H112.308V258H108.948V241.248H115.236C116.532 241.248 117.636 241.48 118.548 241.944C119.46 242.392 120.14 243.008 120.588 243.792C121.052 244.56 121.284 245.424 121.284 246.384C121.284 247.488 120.964 248.488 120.324 249.384C119.684 250.264 118.732 250.872 117.468 251.208L121.476 258H117.588ZM112.308 248.952H115.116C116.028 248.952 116.708 248.736 117.156 248.304C117.604 247.856 117.828 247.24 117.828 246.456C117.828 245.688 117.604 245.096 117.156 244.68C116.708 244.248 116.028 244.032 115.116 244.032H112.308V248.952ZM135.987 246.288C135.603 245.584 135.075 245.048 134.403 244.68C133.731 244.312 132.947 244.128 132.051 244.128C131.059 244.128 130.179 244.352 129.411 244.8C128.643 245.248 128.043 245.888 127.611 246.72C127.179 247.552 126.963 248.512 126.963 249.6C126.963 250.72 127.179 251.696 127.611 252.528C128.059 253.36 128.675 254 129.459 254.448C130.243 254.896 131.155 255.12 132.195 255.12C133.475 255.12 134.523 254.784 135.339 254.112C136.155 253.424 136.691 252.472 136.947 251.256H131.187V248.688H140.259V251.616C140.035 252.784 139.555 253.864 138.819 254.856C138.083 255.848 137.131 256.648 135.963 257.256C134.811 257.848 133.515 258.144 132.075 258.144C130.459 258.144 128.995 257.784 127.683 257.064C126.387 256.328 125.363 255.312 124.611 254.016C123.875 252.72 123.507 251.248 123.507 249.6C123.507 247.952 123.875 246.48 124.611 245.184C125.363 243.872 126.387 242.856 127.683 242.136C128.995 241.4 130.451 241.032 132.051 241.032C133.939 241.032 135.579 241.496 136.971 242.424C138.363 243.336 139.323 244.624 139.851 246.288H135.987ZM146.105 243.96V248.16H151.745V250.824H146.105V255.264H152.465V258H142.745V241.224H152.465V243.96H146.105ZM172.901 246.288C172.517 245.584 171.989 245.048 171.317 244.68C170.645 244.312 169.861 244.128 168.965 244.128C167.973 244.128 167.093 244.352 166.325 244.8C165.557 245.248 164.957 245.888 164.525 246.72C164.093 247.552 163.877 248.512 163.877 249.6C163.877 250.72 164.093 251.696 164.525 252.528C164.973 253.36 165.589 254 166.373 254.448C167.157 254.896 168.069 255.12 169.109 255.12C170.389 255.12 171.437 254.784 172.253 254.112C173.069 253.424 173.605 252.472 173.861 251.256H168.101V248.688H177.173V251.616C176.949 252.784 176.469 253.864 175.733 254.856C174.997 255.848 174.045 256.648 172.877 257.256C171.725 257.848 170.429 258.144 168.989 258.144C167.373 258.144 165.909 257.784 164.597 257.064C163.301 256.328 162.277 255.312 161.525 254.016C160.789 252.72 160.421 251.248 160.421 249.6C160.421 247.952 160.789 246.48 161.525 245.184C162.277 243.872 163.301 242.856 164.597 242.136C165.909 241.4 167.365 241.032 168.965 241.032C170.853 241.032 172.493 241.496 173.885 242.424C175.277 243.336 176.237 244.624 176.765 246.288H172.901ZM188.299 258L184.603 251.472H183.019V258H179.659V241.248H185.947C187.243 241.248 188.347 241.48 189.259 241.944C190.171 242.392 190.851 243.008 191.299 243.792C191.763 244.56 191.995 245.424 191.995 246.384C191.995 247.488 191.675 248.488 191.035 249.384C190.395 250.264 189.443 250.872 188.179 251.208L192.187 258H188.299ZM183.019 248.952H185.827C186.739 248.952 187.419 248.736 187.867 248.304C188.315 247.856 188.539 247.24 188.539 246.456C188.539 245.688 188.315 245.096 187.867 244.68C187.419 244.248 186.739 244.032 185.827 244.032H183.019V248.952ZM202.81 258.168C201.242 258.168 199.802 257.8 198.49 257.064C197.178 256.328 196.138 255.312 195.37 254.016C194.602 252.704 194.218 251.224 194.218 249.576C194.218 247.944 194.602 246.48 195.37 245.184C196.138 243.872 197.178 242.848 198.49 242.112C199.802 241.376 201.242 241.008 202.81 241.008C204.394 241.008 205.834 241.376 207.13 242.112C208.442 242.848 209.474 243.872 210.226 245.184C210.994 246.48 211.378 247.944 211.378 249.576C211.378 251.224 210.994 252.704 210.226 254.016C209.474 255.312 208.442 256.328 207.13 257.064C205.818 257.8 204.378 258.168 202.81 258.168ZM202.81 255.168C203.818 255.168 204.706 254.944 205.474 254.496C206.242 254.032 206.842 253.376 207.274 252.528C207.706 251.68 207.922 250.696 207.922 249.576C207.922 248.456 207.706 247.48 207.274 246.648C206.842 245.8 206.242 245.152 205.474 244.704C204.706 244.256 203.818 244.032 202.81 244.032C201.802 244.032 200.906 244.256 200.122 244.704C199.354 245.152 198.754 245.8 198.322 246.648C197.89 247.48 197.674 248.456 197.674 249.576C197.674 250.696 197.89 251.68 198.322 252.528C198.754 253.376 199.354 254.032 200.122 254.496C200.906 254.944 201.802 255.168 202.81 255.168ZM217.19 241.248V251.616C217.19 252.752 217.486 253.624 218.078 254.232C218.67 254.824 219.502 255.12 220.574 255.12C221.662 255.12 222.502 254.824 223.094 254.232C223.686 253.624 223.982 252.752 223.982 251.616V241.248H227.366V251.592C227.366 253.016 227.054 254.224 226.43 255.216C225.822 256.192 224.998 256.928 223.958 257.424C222.934 257.92 221.79 258.168 220.526 258.168C219.278 258.168 218.142 257.92 217.118 257.424C216.11 256.928 215.31 256.192 214.718 255.216C214.126 254.224 213.83 253.016 213.83 251.592V241.248H217.19ZM242.828 246.432C242.828 247.328 242.612 248.168 242.18 248.952C241.764 249.736 241.1 250.368 240.188 250.848C239.292 251.328 238.156 251.568 236.78 251.568H233.972V258H230.612V241.248H236.78C238.076 241.248 239.18 241.472 240.092 241.92C241.004 242.368 241.684 242.984 242.132 243.768C242.596 244.552 242.828 245.44 242.828 246.432ZM236.636 248.856C237.564 248.856 238.252 248.648 238.7 248.232C239.148 247.8 239.372 247.2 239.372 246.432C239.372 244.8 238.46 243.984 236.636 243.984H233.972V248.856H236.636Z" fill="#495874"/>
<path d="M74.4555 290.333C74.7848 290.385 75.0838 290.519 75.3525 290.736C75.6298 290.953 75.8465 291.221 76.0025 291.542C76.1671 291.863 76.2495 292.205 76.2495 292.569C76.2495 293.028 76.1325 293.444 75.8985 293.817C75.6645 294.181 75.3221 294.471 74.8715 294.688C74.4295 294.896 73.9051 295 73.2985 295H69.9185V285.939H73.1685C73.7838 285.939 74.3081 286.043 74.7415 286.251C75.1748 286.45 75.4998 286.723 75.7165 287.07C75.9331 287.417 76.0415 287.807 76.0415 288.24C76.0415 288.777 75.8941 289.224 75.5995 289.579C75.3135 289.926 74.9321 290.177 74.4555 290.333ZM71.1015 289.852H73.0905C73.6451 289.852 74.0741 289.722 74.3775 289.462C74.6808 289.202 74.8325 288.842 74.8325 288.383C74.8325 287.924 74.6808 287.564 74.3775 287.304C74.0741 287.044 73.6365 286.914 73.0645 286.914H71.1015V289.852ZM73.1945 294.025C73.7838 294.025 74.2431 293.886 74.5725 293.609C74.9018 293.332 75.0665 292.946 75.0665 292.452C75.0665 291.949 74.8931 291.555 74.5465 291.269C74.1998 290.974 73.7361 290.827 73.1555 290.827H71.1015V294.025H73.1945ZM78.5021 286.719C78.2768 286.719 78.0861 286.641 77.9301 286.485C77.7741 286.329 77.6961 286.138 77.6961 285.913C77.6961 285.688 77.7741 285.497 77.9301 285.341C78.0861 285.185 78.2768 285.107 78.5021 285.107C78.7188 285.107 78.9008 285.185 79.0481 285.341C79.2041 285.497 79.2821 285.688 79.2821 285.913C79.2821 286.138 79.2041 286.329 79.0481 286.485C78.9008 286.641 78.7188 286.719 78.5021 286.719ZM79.0741 287.876V295H77.8911V287.876H79.0741ZM90.5804 287.876L88.3574 295H87.1354L85.4194 289.345L83.7034 295H82.4814L80.2454 287.876H81.4544L83.0924 293.856L84.8604 287.876H86.0694L87.7984 293.869L89.4104 287.876H90.5804ZM98.2544 291.165C98.2544 291.39 98.2414 291.629 98.2154 291.88H92.5214C92.5648 292.582 92.8031 293.132 93.2364 293.531C93.6784 293.921 94.2114 294.116 94.8354 294.116C95.3468 294.116 95.7714 293.999 96.1094 293.765C96.4561 293.522 96.6988 293.202 96.8374 292.803H98.1114C97.9208 293.488 97.5394 294.047 96.9674 294.48C96.3954 294.905 95.6848 295.117 94.8354 295.117C94.1594 295.117 93.5528 294.965 93.0154 294.662C92.4868 294.359 92.0708 293.93 91.7674 293.375C91.4641 292.812 91.3124 292.162 91.3124 291.425C91.3124 290.688 91.4598 290.043 91.7544 289.488C92.0491 288.933 92.4608 288.509 92.9894 288.214C93.5268 287.911 94.1421 287.759 94.8354 287.759C95.5114 287.759 96.1094 287.906 96.6294 288.201C97.1494 288.496 97.5481 288.903 97.8254 289.423C98.1114 289.934 98.2544 290.515 98.2544 291.165ZM97.0324 290.918C97.0324 290.467 96.9328 290.082 96.7334 289.761C96.5341 289.432 96.2611 289.185 95.9144 289.02C95.5764 288.847 95.1994 288.76 94.7834 288.76C94.1854 288.76 93.6741 288.951 93.2494 289.332C92.8334 289.713 92.5951 290.242 92.5344 290.918H97.0324ZM106.316 291.165C106.316 291.39 106.303 291.629 106.277 291.88H100.583C100.626 292.582 100.865 293.132 101.298 293.531C101.74 293.921 102.273 294.116 102.897 294.116C103.408 294.116 103.833 293.999 104.171 293.765C104.518 293.522 104.76 293.202 104.899 292.803H106.173C105.982 293.488 105.601 294.047 105.029 294.48C104.457 294.905 103.746 295.117 102.897 295.117C102.221 295.117 101.614 294.965 101.077 294.662C100.548 294.359 100.132 293.93 99.8289 293.375C99.5256 292.812 99.3739 292.162 99.3739 291.425C99.3739 290.688 99.5213 290.043 99.8159 289.488C100.111 288.933 100.522 288.509 101.051 288.214C101.588 287.911 102.204 287.759 102.897 287.759C103.573 287.759 104.171 287.906 104.691 288.201C105.211 288.496 105.61 288.903 105.887 289.423C106.173 289.934 106.316 290.515 106.316 291.165ZM105.094 290.918C105.094 290.467 104.994 290.082 104.795 289.761C104.596 289.432 104.323 289.185 103.976 289.02C103.638 288.847 103.261 288.76 102.845 288.76C102.247 288.76 101.736 288.951 101.311 289.332C100.895 289.713 100.657 290.242 100.596 290.918H105.094ZM111.855 295L109.06 291.854V295H107.877V285.38H109.06V291.035L111.803 287.876H113.454L110.1 291.425L113.467 295H111.855ZM115.751 285.38V295H114.568V285.38H115.751ZM123.903 287.876L119.613 298.354H118.391L119.795 294.922L116.922 287.876H118.235L120.471 293.648L122.681 287.876H123.903ZM131.665 295.117C130.998 295.117 130.391 294.965 129.845 294.662C129.308 294.359 128.883 293.93 128.571 293.375C128.268 292.812 128.116 292.162 128.116 291.425C128.116 290.697 128.272 290.056 128.584 289.501C128.905 288.938 129.338 288.509 129.884 288.214C130.43 287.911 131.041 287.759 131.717 287.759C132.393 287.759 133.004 287.911 133.55 288.214C134.096 288.509 134.525 288.933 134.837 289.488C135.158 290.043 135.318 290.688 135.318 291.425C135.318 292.162 135.153 292.812 134.824 293.375C134.503 293.93 134.066 294.359 133.511 294.662C132.956 294.965 132.341 295.117 131.665 295.117ZM131.665 294.077C132.09 294.077 132.488 293.977 132.861 293.778C133.234 293.579 133.533 293.28 133.758 292.881C133.992 292.482 134.109 291.997 134.109 291.425C134.109 290.853 133.996 290.368 133.771 289.969C133.546 289.57 133.251 289.276 132.887 289.085C132.523 288.886 132.129 288.786 131.704 288.786C131.271 288.786 130.872 288.886 130.508 289.085C130.153 289.276 129.867 289.57 129.65 289.969C129.433 290.368 129.325 290.853 129.325 291.425C129.325 292.006 129.429 292.495 129.637 292.894C129.854 293.293 130.14 293.592 130.495 293.791C130.85 293.982 131.24 294.077 131.665 294.077ZM140.345 287.746C141.211 287.746 141.913 288.01 142.451 288.539C142.988 289.059 143.257 289.813 143.257 290.801V295H142.087V290.97C142.087 290.259 141.909 289.718 141.554 289.345C141.198 288.964 140.713 288.773 140.098 288.773C139.474 288.773 138.975 288.968 138.603 289.358C138.239 289.748 138.057 290.316 138.057 291.061V295H136.874V287.876H138.057V288.89C138.291 288.526 138.607 288.244 139.006 288.045C139.413 287.846 139.859 287.746 140.345 287.746ZM154.232 285.939V286.901H151.762V295H150.579V286.901H148.096V285.939H154.232ZM159.224 287.746C159.761 287.746 160.247 287.863 160.68 288.097C161.113 288.322 161.451 288.665 161.694 289.124C161.945 289.583 162.071 290.142 162.071 290.801V295H160.901V290.97C160.901 290.259 160.723 289.718 160.368 289.345C160.013 288.964 159.527 288.773 158.912 288.773C158.288 288.773 157.79 288.968 157.417 289.358C157.053 289.748 156.871 290.316 156.871 291.061V295H155.688V285.38H156.871V288.89C157.105 288.526 157.426 288.244 157.833 288.045C158.249 287.846 158.713 287.746 159.224 287.746ZM170.321 287.876V295H169.138V293.947C168.913 294.311 168.597 294.597 168.189 294.805C167.791 295.004 167.349 295.104 166.863 295.104C166.309 295.104 165.81 294.991 165.368 294.766C164.926 294.532 164.575 294.185 164.315 293.726C164.064 293.267 163.938 292.708 163.938 292.049V287.876H165.108V291.893C165.108 292.595 165.286 293.137 165.641 293.518C165.997 293.891 166.482 294.077 167.097 294.077C167.73 294.077 168.228 293.882 168.592 293.492C168.956 293.102 169.138 292.534 169.138 291.789V287.876H170.321ZM173.502 289.033C173.71 288.626 174.005 288.309 174.386 288.084C174.776 287.859 175.248 287.746 175.803 287.746V288.968H175.491C174.165 288.968 173.502 289.687 173.502 291.126V295H172.319V287.876H173.502V289.033ZM179.69 295.117C179.144 295.117 178.655 295.026 178.221 294.844C177.788 294.653 177.446 294.393 177.194 294.064C176.943 293.726 176.804 293.34 176.778 292.907H178C178.035 293.262 178.2 293.553 178.494 293.778C178.798 294.003 179.192 294.116 179.677 294.116C180.128 294.116 180.483 294.016 180.743 293.817C181.003 293.618 181.133 293.366 181.133 293.063C181.133 292.751 180.995 292.521 180.717 292.374C180.44 292.218 180.011 292.066 179.43 291.919C178.902 291.78 178.468 291.642 178.13 291.503C177.801 291.356 177.515 291.143 177.272 290.866C177.038 290.58 176.921 290.207 176.921 289.748C176.921 289.384 177.03 289.05 177.246 288.747C177.463 288.444 177.771 288.205 178.169 288.032C178.568 287.85 179.023 287.759 179.534 287.759C180.323 287.759 180.96 287.958 181.445 288.357C181.931 288.756 182.191 289.302 182.225 289.995H181.042C181.016 289.622 180.865 289.323 180.587 289.098C180.319 288.873 179.955 288.76 179.495 288.76C179.071 288.76 178.733 288.851 178.481 289.033C178.23 289.215 178.104 289.453 178.104 289.748C178.104 289.982 178.178 290.177 178.325 290.333C178.481 290.48 178.672 290.602 178.897 290.697C179.131 290.784 179.452 290.883 179.859 290.996C180.371 291.135 180.787 291.273 181.107 291.412C181.428 291.542 181.701 291.741 181.926 292.01C182.16 292.279 182.282 292.63 182.29 293.063C182.29 293.453 182.182 293.804 181.965 294.116C181.749 294.428 181.441 294.675 181.042 294.857C180.652 295.03 180.202 295.117 179.69 295.117ZM183.518 291.412C183.518 290.684 183.666 290.047 183.96 289.501C184.255 288.946 184.658 288.517 185.169 288.214C185.689 287.911 186.27 287.759 186.911 287.759C187.466 287.759 187.982 287.889 188.458 288.149C188.935 288.4 189.299 288.734 189.55 289.15V285.38H190.746V295H189.55V293.661C189.316 294.086 188.97 294.437 188.51 294.714C188.051 294.983 187.514 295.117 186.898 295.117C186.266 295.117 185.689 294.961 185.169 294.649C184.658 294.337 184.255 293.899 183.96 293.336C183.666 292.773 183.518 292.131 183.518 291.412ZM189.55 291.425C189.55 290.888 189.442 290.42 189.225 290.021C189.009 289.622 188.714 289.319 188.341 289.111C187.977 288.894 187.574 288.786 187.132 288.786C186.69 288.786 186.287 288.89 185.923 289.098C185.559 289.306 185.269 289.609 185.052 290.008C184.836 290.407 184.727 290.875 184.727 291.412C184.727 291.958 184.836 292.435 185.052 292.842C185.269 293.241 185.559 293.548 185.923 293.765C186.287 293.973 186.69 294.077 187.132 294.077C187.574 294.077 187.977 293.973 188.341 293.765C188.714 293.548 189.009 293.241 189.225 292.842C189.442 292.435 189.55 291.962 189.55 291.425ZM192.304 291.412C192.304 290.684 192.451 290.047 192.746 289.501C193.04 288.946 193.443 288.517 193.955 288.214C194.475 287.911 195.051 287.759 195.684 287.759C196.308 287.759 196.849 287.893 197.309 288.162C197.768 288.431 198.11 288.769 198.336 289.176V287.876H199.532V295H198.336V293.674C198.102 294.09 197.751 294.437 197.283 294.714C196.823 294.983 196.286 295.117 195.671 295.117C195.038 295.117 194.466 294.961 193.955 294.649C193.443 294.337 193.04 293.899 192.746 293.336C192.451 292.773 192.304 292.131 192.304 291.412ZM198.336 291.425C198.336 290.888 198.227 290.42 198.011 290.021C197.794 289.622 197.499 289.319 197.127 289.111C196.763 288.894 196.36 288.786 195.918 288.786C195.476 288.786 195.073 288.89 194.709 289.098C194.345 289.306 194.054 289.609 193.838 290.008C193.621 290.407 193.513 290.875 193.513 291.412C193.513 291.958 193.621 292.435 193.838 292.842C194.054 293.241 194.345 293.548 194.709 293.765C195.073 293.973 195.476 294.077 195.918 294.077C196.36 294.077 196.763 293.973 197.127 293.765C197.499 293.548 197.794 293.241 198.011 292.842C198.227 292.435 198.336 291.962 198.336 291.425ZM207.667 287.876L203.377 298.354H202.155L203.559 294.922L200.686 287.876H201.999L204.235 293.648L206.445 287.876H207.667ZM211.378 295.117C210.832 295.117 210.342 295.026 209.909 294.844C209.476 294.653 209.133 294.393 208.882 294.064C208.631 293.726 208.492 293.34 208.466 292.907H209.688C209.723 293.262 209.887 293.553 210.182 293.778C210.485 294.003 210.88 294.116 211.365 294.116C211.816 294.116 212.171 294.016 212.431 293.817C212.691 293.618 212.821 293.366 212.821 293.063C212.821 292.751 212.682 292.521 212.405 292.374C212.128 292.218 211.699 292.066 211.118 291.919C210.589 291.78 210.156 291.642 209.818 291.503C209.489 291.356 209.203 291.143 208.96 290.866C208.726 290.58 208.609 290.207 208.609 289.748C208.609 289.384 208.717 289.05 208.934 288.747C209.151 288.444 209.458 288.205 209.857 288.032C210.256 287.85 210.711 287.759 211.222 287.759C212.011 287.759 212.648 287.958 213.133 288.357C213.618 288.756 213.878 289.302 213.913 289.995H212.73C212.704 289.622 212.552 289.323 212.275 289.098C212.006 288.873 211.642 288.76 211.183 288.76C210.758 288.76 210.42 288.851 210.169 289.033C209.918 289.215 209.792 289.453 209.792 289.748C209.792 289.982 209.866 290.177 210.013 290.333C210.169 290.48 210.36 290.602 210.585 290.697C210.819 290.784 211.14 290.883 211.547 290.996C212.058 291.135 212.474 291.273 212.795 291.412C213.116 291.542 213.389 291.741 213.614 292.01C213.848 292.279 213.969 292.63 213.978 293.063C213.978 293.453 213.87 293.804 213.653 294.116C213.436 294.428 213.129 294.675 212.73 294.857C212.34 295.03 211.889 295.117 211.378 295.117ZM216.87 293.362L215.414 296.859H214.621L215.57 293.362H216.87ZM223.212 290.112C222.727 289.921 222.354 289.644 222.094 289.28C221.834 288.916 221.704 288.474 221.704 287.954C221.704 287.486 221.821 287.066 222.055 286.693C222.289 286.312 222.636 286.013 223.095 285.796C223.563 285.571 224.126 285.458 224.785 285.458C225.444 285.458 226.003 285.571 226.462 285.796C226.93 286.013 227.281 286.312 227.515 286.693C227.758 287.066 227.879 287.486 227.879 287.954C227.879 288.457 227.745 288.899 227.476 289.28C227.207 289.653 226.839 289.93 226.371 290.112C226.908 290.277 227.333 290.567 227.645 290.983C227.966 291.39 228.126 291.884 228.126 292.465C228.126 293.028 227.987 293.522 227.71 293.947C227.433 294.363 227.038 294.688 226.527 294.922C226.024 295.147 225.444 295.26 224.785 295.26C224.126 295.26 223.546 295.147 223.043 294.922C222.549 294.688 222.163 294.363 221.886 293.947C221.609 293.522 221.47 293.028 221.47 292.465C221.47 291.884 221.626 291.386 221.938 290.97C222.25 290.554 222.675 290.268 223.212 290.112ZM226.735 288.097C226.735 287.568 226.562 287.161 226.215 286.875C225.868 286.589 225.392 286.446 224.785 286.446C224.187 286.446 223.715 286.589 223.368 286.875C223.021 287.161 222.848 287.573 222.848 288.11C222.848 288.595 223.026 288.985 223.381 289.28C223.745 289.575 224.213 289.722 224.785 289.722C225.366 289.722 225.834 289.575 226.189 289.28C226.553 288.977 226.735 288.582 226.735 288.097ZM224.785 290.632C224.144 290.632 223.619 290.784 223.212 291.087C222.805 291.382 222.601 291.828 222.601 292.426C222.601 292.981 222.796 293.427 223.186 293.765C223.585 294.103 224.118 294.272 224.785 294.272C225.452 294.272 225.981 294.103 226.371 293.765C226.761 293.427 226.956 292.981 226.956 292.426C226.956 291.845 226.757 291.403 226.358 291.1C225.959 290.788 225.435 290.632 224.785 290.632ZM239.416 288.591C239.416 289.345 239.156 289.973 238.636 290.476C238.125 290.97 237.34 291.217 236.283 291.217H234.541V295H233.358V285.939H236.283C237.306 285.939 238.081 286.186 238.61 286.68C239.147 287.174 239.416 287.811 239.416 288.591ZM236.283 290.242C236.942 290.242 237.427 290.099 237.739 289.813C238.051 289.527 238.207 289.12 238.207 288.591C238.207 287.473 237.566 286.914 236.283 286.914H234.541V290.242H236.283ZM250.077 286.004V295H248.894V288.292L245.904 295H245.072L242.069 288.279V295H240.886V286.004H242.16L245.488 293.44L248.816 286.004H250.077ZM55.1581 307.612V308.308H51.4621V311.44H54.5821V312.136H51.4621V316H50.6221V307.612H55.1581ZM59.4081 316.096C58.7921 316.096 58.2361 315.96 57.7401 315.688C57.2521 315.408 56.8641 315.016 56.5761 314.512C56.2961 314 56.1561 313.404 56.1561 312.724C56.1561 312.044 56.3001 311.452 56.5881 310.948C56.8761 310.436 57.2681 310.044 57.7641 309.772C58.2601 309.492 58.8161 309.352 59.4321 309.352C60.0481 309.352 60.6041 309.492 61.1001 309.772C61.6041 310.044 61.9961 310.436 62.2761 310.948C62.5641 311.452 62.7081 312.044 62.7081 312.724C62.7081 313.396 62.5641 313.988 62.2761 314.5C61.9881 315.012 61.5921 315.408 61.0881 315.688C60.5841 315.96 60.0241 316.096 59.4081 316.096ZM59.4081 315.364C59.8401 315.364 60.2401 315.268 60.6081 315.076C60.9761 314.876 61.2721 314.58 61.4961 314.188C61.7281 313.788 61.8441 313.3 61.8441 312.724C61.8441 312.148 61.7321 311.664 61.5081 311.272C61.2841 310.872 60.9881 310.576 60.6201 310.384C60.2521 310.184 59.8521 310.084 59.4201 310.084C58.9881 310.084 58.5881 310.184 58.2201 310.384C57.8521 310.576 57.5561 310.872 57.3321 311.272C57.1161 311.664 57.0081 312.148 57.0081 312.724C57.0081 313.3 57.1161 313.788 57.3321 314.188C57.5561 314.58 57.8481 314.876 58.2081 315.076C58.5761 315.268 58.9761 315.364 59.4081 315.364ZM65.0793 310.612C65.2633 310.204 65.5433 309.888 65.9193 309.664C66.3033 309.44 66.7713 309.328 67.3233 309.328V310.204H67.0953C66.4873 310.204 65.9993 310.368 65.6313 310.696C65.2633 311.024 65.0793 311.572 65.0793 312.34V316H64.2393V309.448H65.0793V310.612ZM71.4959 312.712C71.4959 312.04 71.6279 311.452 71.8919 310.948C72.1639 310.436 72.5359 310.044 73.0079 309.772C73.4879 309.492 74.0279 309.352 74.6279 309.352C75.2519 309.352 75.7879 309.496 76.2359 309.784C76.6919 310.072 77.0199 310.44 77.2199 310.888V309.448H78.0599V316H77.2199V314.548C77.0119 314.996 76.6799 315.368 76.2239 315.664C75.7759 315.952 75.2399 316.096 74.6159 316.096C74.0239 316.096 73.4879 315.956 73.0079 315.676C72.5359 315.396 72.1639 315 71.8919 314.488C71.6279 313.976 71.4959 313.384 71.4959 312.712ZM77.2199 312.724C77.2199 312.196 77.1119 311.732 76.8959 311.332C76.6799 310.932 76.3839 310.624 76.0079 310.408C75.6399 310.192 75.2319 310.084 74.7839 310.084C74.3199 310.084 73.9039 310.188 73.5359 310.396C73.1679 310.604 72.8759 310.908 72.6599 311.308C72.4519 311.7 72.3479 312.168 72.3479 312.712C72.3479 313.248 72.4519 313.72 72.6599 314.128C72.8759 314.528 73.1679 314.836 73.5359 315.052C73.9039 315.26 74.3199 315.364 74.7839 315.364C75.2319 315.364 75.6399 315.256 76.0079 315.04C76.3839 314.824 76.6799 314.516 76.8959 314.116C77.1119 313.716 77.2199 313.252 77.2199 312.724ZM80.8176 307.12V316H79.9776V307.12H80.8176ZM83.5598 307.12V316H82.7198V307.12H83.5598ZM96.5549 309.328C97.3229 309.328 97.9469 309.572 98.4269 310.06C98.9149 310.54 99.1589 311.24 99.1589 312.16V316H98.3309V312.256C98.3309 311.544 98.1589 311 97.8149 310.624C97.4709 310.248 97.0029 310.06 96.4109 310.06C95.7949 310.06 95.3029 310.264 94.9349 310.672C94.5669 311.08 94.3829 311.672 94.3829 312.448V316H93.5549V312.256C93.5549 311.544 93.3829 311 93.0389 310.624C92.6949 310.248 92.2229 310.06 91.6229 310.06C91.0069 310.06 90.5149 310.264 90.1469 310.672C89.7789 311.08 89.5949 311.672 89.5949 312.448V316H88.7549V309.448H89.5949V310.576C89.8029 310.168 90.0989 309.86 90.4829 309.652C90.8669 309.436 91.2949 309.328 91.7669 309.328C92.3349 309.328 92.8309 309.464 93.2549 309.736C93.6869 310.008 93.9989 310.408 94.1909 310.936C94.3669 310.416 94.6669 310.02 95.0909 309.748C95.5229 309.468 96.0109 309.328 96.5549 309.328ZM106.952 312.388C106.952 312.676 106.944 312.896 106.928 313.048H101.492C101.516 313.544 101.636 313.968 101.852 314.32C102.068 314.672 102.352 314.94 102.704 315.124C103.056 315.3 103.44 315.388 103.856 315.388C104.4 315.388 104.856 315.256 105.224 314.992C105.6 314.728 105.848 314.372 105.968 313.924H106.856C106.696 314.564 106.352 315.088 105.824 315.496C105.304 315.896 104.648 316.096 103.856 316.096C103.24 316.096 102.688 315.96 102.2 315.688C101.712 315.408 101.328 315.016 101.048 314.512C100.776 314 100.64 313.404 100.64 312.724C100.64 312.044 100.776 311.448 101.048 310.936C101.32 310.424 101.7 310.032 102.188 309.76C102.676 309.488 103.232 309.352 103.856 309.352C104.48 309.352 105.024 309.488 105.488 309.76C105.96 310.032 106.32 310.4 106.568 310.864C106.824 311.32 106.952 311.828 106.952 312.388ZM106.1 312.364C106.108 311.876 106.008 311.46 105.8 311.116C105.6 310.772 105.324 310.512 104.972 310.336C104.62 310.16 104.236 310.072 103.82 310.072C103.196 310.072 102.664 310.272 102.224 310.672C101.784 311.072 101.54 311.636 101.492 312.364H106.1ZM116.289 309.328C117.057 309.328 117.681 309.572 118.161 310.06C118.649 310.54 118.893 311.24 118.893 312.16V316H118.065V312.256C118.065 311.544 117.893 311 117.549 310.624C117.205 310.248 116.737 310.06 116.145 310.06C115.529 310.06 115.037 310.264 114.669 310.672C114.301 311.08 114.117 311.672 114.117 312.448V316H113.289V312.256C113.289 311.544 113.117 311 112.773 310.624C112.429 310.248 111.957 310.06 111.357 310.06C110.741 310.06 110.249 310.264 109.881 310.672C109.513 311.08 109.329 311.672 109.329 312.448V316H108.489V309.448H109.329V310.576C109.537 310.168 109.833 309.86 110.217 309.652C110.601 309.436 111.029 309.328 111.501 309.328C112.069 309.328 112.565 309.464 112.989 309.736C113.421 310.008 113.733 310.408 113.925 310.936C114.101 310.416 114.401 310.02 114.825 309.748C115.257 309.468 115.745 309.328 116.289 309.328ZM121.587 310.9C121.803 310.444 122.135 310.072 122.583 309.784C123.039 309.496 123.575 309.352 124.191 309.352C124.791 309.352 125.327 309.492 125.799 309.772C126.271 310.044 126.639 310.436 126.903 310.948C127.175 311.452 127.311 312.04 127.311 312.712C127.311 313.384 127.175 313.976 126.903 314.488C126.639 315 126.267 315.396 125.787 315.676C125.315 315.956 124.783 316.096 124.191 316.096C123.567 316.096 123.027 315.956 122.571 315.676C122.123 315.388 121.795 315.016 121.587 314.56V316H120.759V307.12H121.587V310.9ZM126.459 312.712C126.459 312.168 126.351 311.7 126.135 311.308C125.927 310.908 125.639 310.604 125.271 310.396C124.903 310.188 124.487 310.084 124.023 310.084C123.575 310.084 123.163 310.192 122.787 310.408C122.419 310.624 122.127 310.932 121.911 311.332C121.695 311.732 121.587 312.196 121.587 312.724C121.587 313.252 121.695 313.716 121.911 314.116C122.127 314.516 122.419 314.824 122.787 315.04C123.163 315.256 123.575 315.364 124.023 315.364C124.487 315.364 124.903 315.26 125.271 315.052C125.639 314.836 125.927 314.528 126.135 314.128C126.351 313.72 126.459 313.248 126.459 312.712ZM134.784 312.388C134.784 312.676 134.776 312.896 134.76 313.048H129.324C129.348 313.544 129.468 313.968 129.684 314.32C129.9 314.672 130.184 314.94 130.536 315.124C130.888 315.3 131.272 315.388 131.688 315.388C132.232 315.388 132.688 315.256 133.056 314.992C133.432 314.728 133.68 314.372 133.8 313.924H134.688C134.528 314.564 134.184 315.088 133.656 315.496C133.136 315.896 132.48 316.096 131.688 316.096C131.072 316.096 130.52 315.96 130.032 315.688C129.544 315.408 129.16 315.016 128.88 314.512C128.608 314 128.472 313.404 128.472 312.724C128.472 312.044 128.608 311.448 128.88 310.936C129.152 310.424 129.532 310.032 130.02 309.76C130.508 309.488 131.064 309.352 131.688 309.352C132.312 309.352 132.856 309.488 133.32 309.76C133.792 310.032 134.152 310.4 134.4 310.864C134.656 311.32 134.784 311.828 134.784 312.388ZM133.932 312.364C133.94 311.876 133.84 311.46 133.632 311.116C133.432 310.772 133.156 310.512 132.804 310.336C132.452 310.16 132.068 310.072 131.652 310.072C131.028 310.072 130.496 310.272 130.056 310.672C129.616 311.072 129.372 311.636 129.324 312.364H133.932ZM137.161 310.612C137.345 310.204 137.625 309.888 138.001 309.664C138.385 309.44 138.853 309.328 139.405 309.328V310.204H139.177C138.569 310.204 138.081 310.368 137.713 310.696C137.345 311.024 137.161 311.572 137.161 312.34V316H136.321V309.448H137.161V310.612ZM142.925 316.096C142.173 316.096 141.557 315.924 141.077 315.58C140.605 315.228 140.341 314.752 140.285 314.152H141.149C141.189 314.52 141.361 314.82 141.665 315.052C141.977 315.276 142.393 315.388 142.913 315.388C143.369 315.388 143.725 315.28 143.981 315.064C144.245 314.848 144.377 314.58 144.377 314.26C144.377 314.036 144.305 313.852 144.161 313.708C144.017 313.564 143.833 313.452 143.609 313.372C143.393 313.284 143.097 313.192 142.721 313.096C142.233 312.968 141.837 312.84 141.533 312.712C141.229 312.584 140.969 312.396 140.753 312.148C140.545 311.892 140.441 311.552 140.441 311.128C140.441 310.808 140.537 310.512 140.729 310.24C140.921 309.968 141.193 309.752 141.545 309.592C141.897 309.432 142.297 309.352 142.745 309.352C143.449 309.352 144.017 309.532 144.449 309.892C144.881 310.244 145.113 310.732 145.145 311.356H144.305C144.281 310.972 144.129 310.664 143.849 310.432C143.577 310.192 143.201 310.072 142.721 310.072C142.297 310.072 141.953 310.172 141.689 310.372C141.425 310.572 141.293 310.82 141.293 311.116C141.293 311.372 141.369 311.584 141.521 311.752C141.681 311.912 141.877 312.04 142.109 312.136C142.341 312.224 142.653 312.324 143.045 312.436C143.517 312.564 143.893 312.688 144.173 312.808C144.453 312.928 144.693 313.104 144.893 313.336C145.093 313.568 145.197 313.876 145.205 314.26C145.205 314.612 145.109 314.928 144.917 315.208C144.725 315.48 144.457 315.696 144.113 315.856C143.769 316.016 143.373 316.096 142.925 316.096ZM147.23 310.828C147.054 310.828 146.906 310.768 146.786 310.648C146.674 310.528 146.618 310.38 146.618 310.204C146.618 310.028 146.674 309.884 146.786 309.772C146.906 309.652 147.054 309.592 147.23 309.592C147.398 309.592 147.538 309.652 147.65 309.772C147.77 309.884 147.83 310.028 147.83 310.204C147.83 310.38 147.77 310.528 147.65 310.648C147.538 310.768 147.398 310.828 147.23 310.828ZM147.842 314.608L146.594 317.752H146.018L146.906 314.608H147.842ZM155.87 309.328C156.654 309.328 157.294 309.572 157.79 310.06C158.286 310.54 158.534 311.24 158.534 312.16V316H157.706V312.256C157.706 311.544 157.526 311 157.166 310.624C156.814 310.248 156.33 310.06 155.714 310.06C155.082 310.06 154.578 310.26 154.202 310.66C153.826 311.06 153.638 311.648 153.638 312.424V316H152.798V309.448H153.638V310.564C153.846 310.164 154.146 309.86 154.538 309.652C154.93 309.436 155.374 309.328 155.87 309.328ZM163.26 316.096C162.644 316.096 162.088 315.96 161.592 315.688C161.104 315.408 160.716 315.016 160.428 314.512C160.148 314 160.008 313.404 160.008 312.724C160.008 312.044 160.152 311.452 160.44 310.948C160.728 310.436 161.12 310.044 161.616 309.772C162.112 309.492 162.668 309.352 163.284 309.352C163.9 309.352 164.456 309.492 164.952 309.772C165.456 310.044 165.848 310.436 166.128 310.948C166.416 311.452 166.56 312.044 166.56 312.724C166.56 313.396 166.416 313.988 166.128 314.5C165.84 315.012 165.444 315.408 164.94 315.688C164.436 315.96 163.876 316.096 163.26 316.096ZM163.26 315.364C163.692 315.364 164.092 315.268 164.46 315.076C164.828 314.876 165.124 314.58 165.348 314.188C165.58 313.788 165.696 313.3 165.696 312.724C165.696 312.148 165.584 311.664 165.36 311.272C165.136 310.872 164.84 310.576 164.472 310.384C164.104 310.184 163.704 310.084 163.272 310.084C162.84 310.084 162.44 310.184 162.072 310.384C161.704 310.576 161.408 310.872 161.184 311.272C160.968 311.664 160.86 312.148 160.86 312.724C160.86 313.3 160.968 313.788 161.184 314.188C161.408 314.58 161.7 314.876 162.06 315.076C162.428 315.268 162.828 315.364 163.26 315.364ZM173.64 316.096C172.888 316.096 172.272 315.924 171.792 315.58C171.32 315.228 171.056 314.752 171 314.152H171.864C171.904 314.52 172.076 314.82 172.38 315.052C172.692 315.276 173.108 315.388 173.628 315.388C174.084 315.388 174.44 315.28 174.696 315.064C174.96 314.848 175.092 314.58 175.092 314.26C175.092 314.036 175.02 313.852 174.876 313.708C174.732 313.564 174.548 313.452 174.324 313.372C174.108 313.284 173.812 313.192 173.436 313.096C172.948 312.968 172.552 312.84 172.248 312.712C171.944 312.584 171.684 312.396 171.468 312.148C171.26 311.892 171.156 311.552 171.156 311.128C171.156 310.808 171.252 310.512 171.444 310.24C171.636 309.968 171.908 309.752 172.26 309.592C172.612 309.432 173.012 309.352 173.46 309.352C174.164 309.352 174.732 309.532 175.164 309.892C175.596 310.244 175.828 310.732 175.86 311.356H175.02C174.996 310.972 174.844 310.664 174.564 310.432C174.292 310.192 173.916 310.072 173.436 310.072C173.012 310.072 172.668 310.172 172.404 310.372C172.14 310.572 172.008 310.82 172.008 311.116C172.008 311.372 172.084 311.584 172.236 311.752C172.396 311.912 172.592 312.04 172.824 312.136C173.056 312.224 173.368 312.324 173.76 312.436C174.232 312.564 174.608 312.688 174.888 312.808C175.168 312.928 175.408 313.104 175.608 313.336C175.808 313.568 175.912 313.876 175.92 314.26C175.92 314.612 175.824 314.928 175.632 315.208C175.44 315.48 175.172 315.696 174.828 315.856C174.484 316.016 174.088 316.096 173.64 316.096ZM177.921 308.212C177.753 308.212 177.609 308.152 177.489 308.032C177.369 307.912 177.309 307.764 177.309 307.588C177.309 307.412 177.369 307.268 177.489 307.156C177.609 307.036 177.753 306.976 177.921 306.976C178.089 306.976 178.233 307.036 178.353 307.156C178.473 307.268 178.533 307.412 178.533 307.588C178.533 307.764 178.473 307.912 178.353 308.032C178.233 308.152 178.089 308.212 177.921 308.212ZM178.341 309.448V316H177.501V309.448H178.341ZM182.991 309.352C183.607 309.352 184.143 309.496 184.599 309.784C185.055 310.072 185.383 310.436 185.583 310.876V309.448H186.423V316.168C186.423 316.768 186.291 317.3 186.027 317.764C185.771 318.228 185.411 318.584 184.947 318.832C184.483 319.088 183.955 319.216 183.363 319.216C182.523 319.216 181.823 319.016 181.263 318.616C180.711 318.216 180.367 317.672 180.231 316.984H181.059C181.203 317.44 181.475 317.804 181.875 318.076C182.283 318.348 182.779 318.484 183.363 318.484C183.787 318.484 184.167 318.392 184.503 318.208C184.839 318.032 185.103 317.768 185.295 317.416C185.487 317.064 185.583 316.648 185.583 316.168V314.548C185.375 314.996 185.043 315.368 184.587 315.664C184.139 315.952 183.607 316.096 182.991 316.096C182.391 316.096 181.851 315.956 181.371 315.676C180.899 315.396 180.527 315 180.255 314.488C179.991 313.976 179.859 313.384 179.859 312.712C179.859 312.04 179.991 311.452 180.255 310.948C180.527 310.436 180.899 310.044 181.371 309.772C181.851 309.492 182.391 309.352 182.991 309.352ZM185.583 312.724C185.583 312.196 185.475 311.732 185.259 311.332C185.043 310.932 184.747 310.624 184.371 310.408C184.003 310.192 183.595 310.084 183.147 310.084C182.683 310.084 182.267 310.188 181.899 310.396C181.531 310.604 181.239 310.908 181.023 311.308C180.815 311.7 180.711 312.168 180.711 312.712C180.711 313.248 180.815 313.72 181.023 314.128C181.239 314.528 181.531 314.836 181.899 315.052C182.267 315.26 182.683 315.364 183.147 315.364C183.595 315.364 184.003 315.256 184.371 315.04C184.747 314.824 185.043 314.516 185.259 314.116C185.475 313.716 185.583 313.252 185.583 312.724ZM191.413 309.328C192.197 309.328 192.837 309.572 193.333 310.06C193.829 310.54 194.077 311.24 194.077 312.16V316H193.249V312.256C193.249 311.544 193.069 311 192.709 310.624C192.357 310.248 191.873 310.06 191.257 310.06C190.625 310.06 190.121 310.26 189.745 310.66C189.369 311.06 189.181 311.648 189.181 312.424V316H188.341V309.448H189.181V310.564C189.389 310.164 189.689 309.86 190.081 309.652C190.473 309.436 190.917 309.328 191.413 309.328ZM200.003 311.2V311.908H195.335V311.2H200.003ZM207.833 309.448V316H206.993V314.848C206.801 315.256 206.505 315.568 206.105 315.784C205.705 316 205.257 316.108 204.761 316.108C203.977 316.108 203.337 315.868 202.841 315.388C202.345 314.9 202.097 314.196 202.097 313.276V309.448H202.925V313.18C202.925 313.892 203.101 314.436 203.453 314.812C203.813 315.188 204.301 315.376 204.917 315.376C205.549 315.376 206.053 315.176 206.429 314.776C206.805 314.376 206.993 313.788 206.993 313.012V309.448H207.833ZM210.579 310.888C210.787 310.448 211.115 310.084 211.563 309.796C212.019 309.5 212.559 309.352 213.183 309.352C213.775 309.352 214.307 309.492 214.779 309.772C215.259 310.044 215.631 310.436 215.895 310.948C216.167 311.452 216.303 312.04 216.303 312.712C216.303 313.384 216.167 313.976 215.895 314.488C215.631 315 215.259 315.396 214.779 315.676C214.307 315.956 213.775 316.096 213.183 316.096C212.567 316.096 212.031 315.952 211.575 315.664C211.119 315.368 210.787 315 210.579 314.56V319.096H209.751V309.448H210.579V310.888ZM215.451 312.712C215.451 312.168 215.343 311.7 215.127 311.308C214.919 310.908 214.631 310.604 214.263 310.396C213.895 310.188 213.479 310.084 213.015 310.084C212.567 310.084 212.155 310.192 211.779 310.408C211.411 310.624 211.119 310.932 210.903 311.332C210.687 311.732 210.579 312.196 210.579 312.724C210.579 313.252 210.687 313.716 210.903 314.116C211.119 314.516 211.411 314.824 211.779 315.04C212.155 315.256 212.567 315.364 213.015 315.364C213.479 315.364 213.895 315.26 214.263 315.052C214.631 314.836 214.919 314.528 215.127 314.128C215.343 313.72 215.451 313.248 215.451 312.712ZM221.982 310.612C222.166 310.204 222.446 309.888 222.822 309.664C223.206 309.44 223.674 309.328 224.226 309.328V310.204H223.998C223.39 310.204 222.902 310.368 222.534 310.696C222.166 311.024 221.982 311.572 221.982 312.34V316H221.142V309.448H221.982V310.612ZM231.417 312.388C231.417 312.676 231.409 312.896 231.393 313.048H225.957C225.981 313.544 226.101 313.968 226.317 314.32C226.533 314.672 226.817 314.94 227.169 315.124C227.521 315.3 227.905 315.388 228.321 315.388C228.865 315.388 229.321 315.256 229.689 314.992C230.065 314.728 230.313 314.372 230.433 313.924H231.321C231.161 314.564 230.817 315.088 230.289 315.496C229.769 315.896 229.113 316.096 228.321 316.096C227.705 316.096 227.153 315.96 226.665 315.688C226.177 315.408 225.793 315.016 225.513 314.512C225.241 314 225.105 313.404 225.105 312.724C225.105 312.044 225.241 311.448 225.513 310.936C225.785 310.424 226.165 310.032 226.653 309.76C227.141 309.488 227.697 309.352 228.321 309.352C228.945 309.352 229.489 309.488 229.953 309.76C230.425 310.032 230.785 310.4 231.033 310.864C231.289 311.32 231.417 311.828 231.417 312.388ZM230.565 312.364C230.573 311.876 230.473 311.46 230.265 311.116C230.065 310.772 229.789 310.512 229.437 310.336C229.085 310.16 228.701 310.072 228.285 310.072C227.661 310.072 227.129 310.272 226.689 310.672C226.249 311.072 226.005 311.636 225.957 312.364H230.565ZM232.57 312.712C232.57 312.04 232.706 311.452 232.978 310.948C233.25 310.436 233.622 310.044 234.094 309.772C234.574 309.492 235.114 309.352 235.714 309.352C236.33 309.352 236.866 309.5 237.322 309.796C237.778 310.084 238.102 310.448 238.294 310.888V309.448H239.134V319.096H238.294V314.56C238.102 315 237.774 315.368 237.31 315.664C236.854 315.952 236.314 316.096 235.69 316.096C235.098 316.096 234.562 315.956 234.082 315.676C233.61 315.396 233.238 315 232.966 314.488C232.702 313.976 232.57 313.384 232.57 312.712ZM238.294 312.724C238.294 312.196 238.186 311.732 237.97 311.332C237.754 310.932 237.458 310.624 237.082 310.408C236.714 310.192 236.306 310.084 235.858 310.084C235.394 310.084 234.978 310.188 234.61 310.396C234.242 310.604 233.95 310.908 233.734 311.308C233.526 311.7 233.422 312.168 233.422 312.712C233.422 313.248 233.526 313.72 233.734 314.128C233.95 314.528 234.242 314.836 234.61 315.052C234.978 315.26 235.394 315.364 235.858 315.364C236.306 315.364 236.714 315.256 237.082 315.04C237.458 314.824 237.754 314.516 237.97 314.116C238.186 313.716 238.294 313.252 238.294 312.724ZM246.728 309.448V316H245.888V314.848C245.696 315.256 245.4 315.568 245 315.784C244.6 316 244.152 316.108 243.656 316.108C242.872 316.108 242.232 315.868 241.736 315.388C241.24 314.9 240.992 314.196 240.992 313.276V309.448H241.82V313.18C241.82 313.892 241.996 314.436 242.348 314.812C242.708 315.188 243.196 315.376 243.812 315.376C244.444 315.376 244.948 315.176 245.324 314.776C245.7 314.376 245.888 313.788 245.888 313.012V309.448H246.728ZM249.066 308.212C248.898 308.212 248.754 308.152 248.634 308.032C248.514 307.912 248.454 307.764 248.454 307.588C248.454 307.412 248.514 307.268 248.634 307.156C248.754 307.036 248.898 306.976 249.066 306.976C249.234 306.976 249.378 307.036 249.498 307.156C249.618 307.268 249.678 307.412 249.678 307.588C249.678 307.764 249.618 307.912 249.498 308.032C249.378 308.152 249.234 308.212 249.066 308.212ZM249.486 309.448V316H248.646V309.448H249.486ZM252.228 310.612C252.412 310.204 252.692 309.888 253.068 309.664C253.452 309.44 253.92 309.328 254.472 309.328V310.204H254.244C253.636 310.204 253.148 310.368 252.78 310.696C252.412 311.024 252.228 311.572 252.228 312.34V316H251.388V309.448H252.228V310.612ZM261.663 312.388C261.663 312.676 261.655 312.896 261.639 313.048H256.203C256.227 313.544 256.347 313.968 256.563 314.32C256.779 314.672 257.063 314.94 257.415 315.124C257.767 315.3 258.151 315.388 258.567 315.388C259.111 315.388 259.567 315.256 259.935 314.992C260.311 314.728 260.559 314.372 260.679 313.924H261.567C261.407 314.564 261.063 315.088 260.535 315.496C260.015 315.896 259.359 316.096 258.567 316.096C257.951 316.096 257.399 315.96 256.911 315.688C256.423 315.408 256.039 315.016 255.759 314.512C255.487 314 255.351 313.404 255.351 312.724C255.351 312.044 255.487 311.448 255.759 310.936C256.031 310.424 256.411 310.032 256.899 309.76C257.387 309.488 257.943 309.352 258.567 309.352C259.191 309.352 259.735 309.488 260.199 309.76C260.671 310.032 261.031 310.4 261.279 310.864C261.535 311.32 261.663 311.828 261.663 312.388ZM260.811 312.364C260.819 311.876 260.719 311.46 260.511 311.116C260.311 310.772 260.035 310.512 259.683 310.336C259.331 310.16 258.947 310.072 258.531 310.072C257.907 310.072 257.375 310.272 256.935 310.672C256.495 311.072 256.251 311.636 256.203 312.364H260.811ZM262.816 312.712C262.816 312.04 262.952 311.452 263.224 310.948C263.496 310.436 263.868 310.044 264.34 309.772C264.82 309.492 265.36 309.352 265.96 309.352C266.536 309.352 267.056 309.492 267.52 309.772C267.984 310.052 268.324 310.416 268.54 310.864V307.12H269.38V316H268.54V314.536C268.34 314.992 268.012 315.368 267.556 315.664C267.1 315.952 266.564 316.096 265.948 316.096C265.348 316.096 264.808 315.956 264.328 315.676C263.856 315.396 263.484 315 263.212 314.488C262.948 313.976 262.816 313.384 262.816 312.712ZM268.54 312.724C268.54 312.196 268.432 311.732 268.216 311.332C268 310.932 267.704 310.624 267.328 310.408C266.96 310.192 266.552 310.084 266.104 310.084C265.64 310.084 265.224 310.188 264.856 310.396C264.488 310.604 264.196 310.908 263.98 311.308C263.772 311.7 263.668 312.168 263.668 312.712C263.668 313.248 263.772 313.72 263.98 314.128C264.196 314.528 264.488 314.836 264.856 315.052C265.224 315.26 265.64 315.364 266.104 315.364C266.552 315.364 266.96 315.256 267.328 315.04C267.704 314.824 268 314.516 268.216 314.116C268.432 313.716 268.54 313.252 268.54 312.724Z" fill="#495874"/>
</svg>
