<?xml version="1.0" encoding="utf-8"?>
<!-- Generator: Adobe Illustrator 24.0.3, SVG Export Plug-In . SVG Version: 6.00 Build 0)  -->
<svg version="1.1" id="Layer_1" opacity="0.7" xmlns="http://www.w3.org/2000/svg" xmlns:xlink="http://www.w3.org/1999/xlink"
	 x="0px" y="0px" viewBox="0 0 1440.1 1020.1" style="enable-background:new 0 0 1440.1 1020.1;" xml:space="preserve">
<style type="text/css">
	.st0{fill:#FCFCFC;}
	.st1{fill:#B6CDF3;}
	.st2{fill:#94BFFF;}
	.st3{fill:#FFFFFF;stroke:#000000;stroke-width:0.25;stroke-miterlimit:10;}
	.st4{fill:#9AA1A3;}
	.st5{fill:#D9DADB;}
	.st6{fill:#BFBFBF;}
	.st7{fill:#EFEFEF;}
	.st8{fill:#ADADAD;}
	.st9{fill:#C0C6C9;}
	.st10{fill:#DBDCE2;}
	.st11{fill:#C1C1C1;}
	.st12{fill:#B3B3B3;}
	.st13{fill:#AAC9FF;}
	.st14{fill:#666666;}
	.st15{fill:#FFFFFF;}
	.st16{fill:#C2D4F2;}
	.st17{fill:#B0CBF5;}
	.st18{fill:#ADBCEA;}
	.st19{fill:#D1D1D3;}
	.st20{fill:#B6BDBF;}
	.st21{fill:#999999;}
	.st22{fill:#CCCCCC;}
	.st23{fill:#E6E6E6;}
	.st24{fill:#FFFFFF;stroke:#000000;stroke-width:0.3;stroke-miterlimit:10;}
	.st25{display:none;}
	.st26{display:inline;}
	.st27{font-family:'BebasNeue-Bold';}
	.st28{font-size:75px;}
	.st29{letter-spacing:3;}
	.st30{font-family:'Poppins-Regular';}
	.st31{font-size:60px;}
	.st32{font-size:45px;}
	.st33{font-family:'Poppins-Italic';}
	.st34{font-size:25px;}
</style>
<g id="Layer_6">
	<rect x="0.2" class="st0" width="1440" height="886.5"/>
</g>
<g id="Layer_3">
	<path class="st1" d="M1439.4,822c-167.5-93.3-427.4-153.1-719.2-153.1S168.4,728.8,0.8,822.1v196.3h1438.6V822L1439.4,822z"/>
</g>
<g id="Layer_5">
	<rect x="1240.2" y="711.4" class="st1" width="18.2" height="34.2"/>
	<ellipse class="st1" cx="1249.4" cy="675.3" rx="39.6" ry="44.4"/>
	<ellipse class="st1" cx="1249.4" cy="630.9" rx="32.1" ry="37.5"/>
	<circle class="st1" cx="1249.4" cy="593.4" r="26.7"/>
	<rect x="234.4" y="705.6" class="st1" width="14.1" height="24.4"/>
	<ellipse class="st1" cx="241.4" cy="680" rx="30.6" ry="31.6"/>
	<ellipse class="st1" cx="241.4" cy="648.4" rx="24.8" ry="26.7"/>
	<ellipse class="st1" cx="241.4" cy="621.7" rx="20.6" ry="19"/>
	<rect x="170.9" y="730.6" class="st1" width="10.8" height="18.6"/>
	<ellipse class="st1" cx="176.4" cy="711" rx="23.6" ry="24.1"/>
	<ellipse class="st1" cx="176.4" cy="686.9" rx="19.1" ry="20.3"/>
	<ellipse class="st1" cx="176.4" cy="666.6" rx="15.9" ry="14.5"/>
</g>
<g id="Layer_2_1_">
	<path class="st2" d="M1439.4,881.7c-167.6-93.2-427.4-153.1-719.2-153.1S168.4,788.5,0.8,881.8v137.6h1438.6V881.7L1439.4,881.7z"
		/>
</g>
<g id="Layer_4">
	<rect x="337.8" y="736.7" class="st2" width="18.2" height="34.2"/>
	<ellipse class="st2" cx="346.8" cy="700.6" rx="39.6" ry="44.4"/>
	<ellipse class="st2" cx="346.8" cy="656.2" rx="32.1" ry="37.5"/>
	<circle class="st2" cx="346.8" cy="618.7" r="26.7"/>
	<rect x="1067" y="734.4" class="st2" width="15.8" height="27.4"/>
	<ellipse class="st2" cx="1074.9" cy="705.6" rx="34.3" ry="35.5"/>
	<ellipse class="st2" cx="1074.9" cy="670" rx="27.8" ry="30"/>
	<ellipse class="st2" cx="1074.9" cy="640.1" rx="23.1" ry="21.3"/>
	<rect x="1142.1" y="758.1" class="st2" width="11.6" height="20.8"/>
	<ellipse class="st2" cx="1148" cy="736.1" rx="25.3" ry="27"/>
	<ellipse class="st2" cx="1148" cy="709.1" rx="20.6" ry="22.8"/>
	<ellipse class="st2" cx="1148" cy="686.3" rx="17.1" ry="16.2"/>
</g>
<g id="LowLibrary">
	<path class="st3" d="M774,555.8c0.1,23.6-34.9,31.1-53.1,31.1s-53.1-7.5-53.1-31.1c0-23.8,34.3-32.1,53.1-32.1S774,531.9,774,555.8
		z"/>
	<path class="st4" d="M858.5,734c-93.9-5.9-188-5.8-281.9,0.1c0-36.6,0-73.1,0.1-109.7c93.8-7.4,188-7.4,281.8-0.1
		C858.3,660.9,858.5,697.5,858.5,734z"/>
	<path class="st5" d="M874.5,606.2c-7.9-0.5-11.8-0.8-19.8-1.4v-34.4c7.9,0.6,11.9,0.9,19.8,1.5
		C874.5,583.4,874.5,594.8,874.5,606.2z"/>
	<path class="st5" d="M581.5,603.2c-8,0.6-11.9,0.8-20,1.4c0-11.4,0-22.9,0-34.3c8-0.6,12-0.9,19.9-1.5
		C581.5,580.3,581.5,591.8,581.5,603.2z"/>
	<path class="st6" d="M581.5,576.6c-7.7,0.6-11.6,0.8-19.4,1.4c-2.8-3.2-4.2-4.8-6.9-8c10.5-0.9,15.8-1.3,26.3-2
		C581.5,571.4,581.5,573.1,581.5,576.6z"/>
	<path class="st7" d="M542.3,735.8c-16.7,1.3-33.3,3-50,4.9v-144c16.4-1.9,32.8-3.4,49.3-4.7C541.5,639.9,542,687.9,542.3,735.8z"/>
	<path class="st8" d="M854,577.2c7.9,0.6,11.9,0.9,19.8,1.5c2.8-2.8,4.2-4.2,7-7c-10.7-0.9-16-1.3-26.8-2.1V577.2z"/>
	<path class="st9" d="M581.5,568.8c-10.8,0.8-16.2,1.2-27,2.1v-7.8c10.8-0.9,16.2-1.4,27-2.1C581.5,564.1,581.5,565.6,581.5,568.8z"
		/>
	<path class="st9" d="M881.5,572.5c-10.7-0.9-16-1.3-26.8-2.1c0-3.8,0-5.6,0-9.4c10.8,0.8,16.1,1.3,26.8,2.2V572.5z"/>
	<path class="st3" d="M716.6,568c7.7,0,11.5,0,19.3,0l6.9-7.1c-10.5,0-15.7-0.1-26.2,0V568z"/>
	<path class="st3" d="M742.8,568.1c-7.7,0-11.6-0.1-19.3-0.1l-6.9-7.1c10.5,0,15.7,0,26.2,0C742.8,563.8,742.8,565.2,742.8,568.1z"
		/>
	<path class="st10" d="M561.8,734.4c-7.8,0.5-11.7,0.8-19.5,1.4c-0.2-47.9-0.8-95.8-0.7-143.8c8-3.1,12-4.7,20-7.8
		C561.6,634.3,561.6,684.3,561.8,734.4z"/>
	<path class="st9" d="M578.6,733.2c-9.6,0.6-14.3,0.9-23.8,1.6c-0.1-44.3-0.3-88.6-0.4-132.9c9.7-0.7,14.6-1,24.3-1.6
		C578.8,644.6,578.8,688.9,578.6,733.2z"/>
	<path class="st3" d="M742.8,568.1c-7.7,0-11.6-0.1-19.3-0.1l-6.9-7.1c10.5,0,15.7,0,26.2,0C742.8,563.8,742.8,565.2,742.8,568.1z"
		/>
	<path class="st7" d="M944,739.9c-16.7-1.9-33.4-3.6-50.1-5c0.8-47.7,0.5-95.2,0.4-142.9c16.6,1.3,33.2,2.7,49.7,4.6L944,739.9
		L944,739.9z"/>
	<path class="st10" d="M874.5,733.5c7.7,0.5,11.6,0.8,19.4,1.4c0.8-47.7,0.5-95.2,0.4-142.9l-19.7-7.7
		C874.5,634.1,874.8,683.8,874.5,733.5z"/>
	<path class="st11" d="M743,641.4c-17.5-0.2-34.9-0.2-52.4,0.1c0-9.2,0-13.7,0-23.1c17.5-0.2,34.9-0.2,52.4,0
		C742.8,627.7,743,632.3,743,641.4z"/>
	<path class="st9" d="M880,733.9c-8.6-0.6-12.8-0.9-21.6-1.5c0-44,0-88-0.1-132.1l21.9,1.5C880.3,645.9,880.3,689.9,880,733.9z"/>
	<path class="st12" d="M858.3,626.5c-93.1-7.5-186.6-7.5-279.6-0.1c0-3.7,0-5.6,0-9.4c93.1-6.9,186.5-6.8,279.6,0.1
		C858.3,621,858.3,622.8,858.3,626.5z"/>
	<path class="st13" d="M733,726.1h-32.6c0-26.1,0.1-52.2,0.1-78.3c10.9-0.1,21.7-0.1,32.5,0C733,673.9,733,700,733,726.1z"/>
	<path class="st14" d="M738.6,646.8c-14.7-0.2-29.3-0.2-43.9,0.1c-1.1-2.2-1.7-3.3-2.8-5.4c16.5-0.3,33-0.4,49.5,0
		C740.3,643.5,739.8,644.6,738.6,646.8z"/>
	<path class="st14" d="M706,630.4c8.5-0.1,12.7-0.1,21.2,0v-2.7c-8.5,0-12.7,0-21.2,0C706,628.8,706,629.4,706,630.4z"/>
	<path class="st15" d="M706,625c8.5-0.1,12.7-0.1,21.2,0"/>
	<path class="st16" d="M609.8,663.1c-6.8,0.5-10.1,0.8-16.9,1.5c0-10,0-20,0-30.1c6.8-0.6,10.1-0.9,16.9-1.4
		C609.8,643.1,609.8,653.1,609.8,663.1z"/>
	<path class="st16" d="M639.5,660.8c-6.8,0.4-10.2,0.7-17,1.1c0-9.9,0-19.9,0-29.8c6.8-0.5,10.2-0.7,17-1
		C639.5,641,639.5,650.9,639.5,660.8z"/>
	<path class="st16" d="M668.5,659.4c-6.8,0.3-10.2,0.5-17,0.8c0-9.9,0-19.7,0-29.6c6.8-0.3,10.2-0.4,17-0.7V659.4z"/>
	<path class="st16" d="M609.8,720.8c-6.8,0.4-10.2,0.6-17,1.1c0-11.9,0-23.9,0-35.8c6.8-0.6,10.2-0.9,16.9-1.4
		C609.8,696.7,609.8,708.7,609.8,720.8z"/>
	<path class="st16" d="M639.5,719.4c-6.8,0.2-10.2,0.4-17,0.7c0-12.1,0-24.2-0.1-36.3c6.8-0.4,10.2-0.6,17-1
		C639.5,695,639.5,707.2,639.5,719.4z"/>
	<path class="st16" d="M669.2,718.7c-6.8,0.1-10.2,0.2-17,0.3c0-12.3,0-24.5,0-36.8c6.8-0.3,10.2-0.4,17-0.7
		C669.2,694,669.2,706.4,669.2,718.7z"/>
	<path class="st16" d="M784,660.1c-6.8-0.4-10.2-0.5-17-0.8v-29.5c6.8,0.2,10.2,0.3,17,0.6V660.1z"/>
	<path class="st16" d="M813.6,661.9c-6.8-0.5-10.2-0.7-17-1.1c0-9.9,0-19.8,0-29.7c6.8,0.4,10.2,0.6,17,1
		C813.8,642,813.8,652,813.6,661.9z"/>
	<path class="st16" d="M840.6,664.1c-6.9-0.7-10.3-0.9-17.1-1.5c0-10,0-19.9,0.1-29.8c6.8,0.5,10.2,0.8,17,1.4
		C840.6,644.2,840.6,654.1,840.6,664.1z"/>
	<path class="st16" d="M784,719c-6.8-0.2-10.2-0.2-17-0.3c0-12.4,0-24.9,0-37.3c6.8,0.2,10.2,0.3,17,0.7V719z"/>
	<path class="st16" d="M813.5,720.1c-6.8-0.3-10.2-0.5-16.9-0.7c0-12.2,0-24.5,0-36.7c6.8,0.4,10.2,0.6,16.9,1
		C813.6,695.8,813.6,708,813.5,720.1z"/>
	<path class="st16" d="M840.8,721.6c-6.8-0.4-10.3-0.7-17.2-1c0-12,0-24,0-36.1c6.8,0.5,10.2,0.8,17.1,1.3L840.8,721.6z"/>
	<path class="st17" d="M539,647.3c-9.3,1.1-14,1.6-23.3,2.8l-0.2-35.5c9.2-0.9,13.9-1.2,23.3-2C538.8,624.3,539,635.8,539,647.3z"/>
	<path class="st17" d="M935.5,645.4c-9.5-1.2-14.3-1.7-24-2.8c-0.1-12.3-0.3-24.5-0.4-36.8c9.6,0.8,14.5,1.2,24.2,2.3
		C935.5,620.5,935.5,632.9,935.5,645.4z"/>
	<path class="st17" d="M935.3,715.5c-9.8-1.2-14.6-1.7-24.2-2.8c0.3-12.7,0.5-25.4,0.8-38.1c9.6,1.4,14.3,2.1,23.8,3.4
		C935.5,690.5,935.5,703,935.3,715.5z"/>
	<path class="st18" d="M539.3,712.3c-9.2,0.9-13.9,1.4-23.2,2.5c-0.1-12.2-0.2-24.3-0.3-36.5c9.3-1.3,14-2,23.2-3.3
		C539.2,687.4,539.3,699.9,539.3,712.3z"/>
	<path class="st16" d="M538.8,644.5c-8,0.9-12,1.3-20,2.3l-0.2-32.4c8-0.7,12-1,20-1.6L538.8,644.5z"/>
	<path class="st16" d="M932,642c-8.1-1-12.2-1.4-20.3-2.3c-0.1-11.3-0.2-22.6-0.4-33.9c8.2,0.7,12.2,1,20.5,1.9
		C931.8,619.1,932,630.6,932,642z"/>
	<path class="st16" d="M931.8,712.1c-8.2-1-12.3-1.5-20.4-2.4c0.2-11.7,0.5-23.3,0.7-35c8.1,1.2,12.2,1.8,20.1,2.9
		C932,689.1,932,700.6,931.8,712.1z"/>
	<path class="st17" d="M515.5,715.5c9.7-1.1,14.5-1.6,24-2.5c-0.1-12.9-0.2-25.8-0.2-38.8c-9.6,1.3-14.4,2-24.1,3.4
		C515.3,690.2,515.5,702.9,515.5,715.5z"/>
	<path class="st16" d="M518.8,712.1c8.3-0.9,12.5-1.4,20.7-2.2l-0.2-35.7c-8.3,1.1-12.4,1.7-20.7,2.9
		C518.5,688.7,518.6,700.4,518.8,712.1z"/>
	<path class="st7" d="M642.5,507.3c-0.9-3-0.9-6.2,0-9.1c7.9-25.4,56.6-27.1,77.9-27.1c21.5,0,70,1.6,77.8,27.1c0.9,3,0.9,6.2,0,9.2
		c-7.8,25.2-56.7,26.5-78,26.5C699.2,533.8,650.1,532.4,642.5,507.3z"/>
	<path class="st9" d="M763.6,514.9c5.8-1.3,11.6-2.5,17.5-3.4c-1-4,1-8.1,4.8-9.8c2.8-1.2,6.1-1.2,8.7-2.9l0.1-0.1
		c-44.6-15.7-103.5-15.6-148.2-0.3c1.5,0.9,2.6,2.4,2.9,4.1c0.7,0.6,1.3,1.3,1.7,2.1c14.6,0.1,28.8,4.2,43,6.3
		c14.5,2.2,29.4,3.5,44.1,4.4c7.3,0.5,14.7,0.9,22,1.1C761.3,515.8,762.5,515.2,763.6,514.9z"/>
	<path class="st7" d="M798.1,557.8c-51.9-1.4-103.8-1.4-155.8-0.1v-45.9c51.9-0.5,103.8-0.5,155.7,0
		C798.1,527.2,798.1,542.5,798.1,557.8z"/>
	<path class="st10" d="M828,535.8c-9.8-8.1-19.7-16.1-29.7-24c0,15.3,0,30.7,0,46c9.9,0.3,19.8,0.7,29.7,1.3
		C828,549.8,828,545.2,828,535.8z"/>
	<path class="st10" d="M612.6,535.7c9.8-8.1,19.7-16,29.7-23.8v45.9c-9.9,0.3-19.8,0.7-29.7,1.2C612.6,549.6,612.6,545,612.6,535.7z
		"/>
	<path class="st9" d="M842,560.1c-5.7-0.4-8.5-0.6-14.1-0.9c0-9.3,0-14,0-23.3c5.7,0.3,8.5,0.4,14.1,0.8
		C842,546,842,550.7,842,560.1z"/>
	<path class="st9" d="M612.6,558.9c-5.7,0.3-8.5,0.5-14.1,0.8c0-9.4,0-14.1,0-23.4c5.7-0.3,8.5-0.5,14.2-0.7
		C612.6,545,612.6,549.6,612.6,558.9z"/>
	<path class="st19" d="M615.3,527.7c-9.5,0.3-14.3,0.5-23.8,1.1v-8.2c9.5-0.5,14.3-0.7,23.8-0.9V527.7z"/>
	<path class="st5" d="M828.5,520.9c-2.2-2.1-3.3-3.1-5.6-5.2c-7.7-7.1-11.5-10.6-19.2-17.5l-1.8,7.5c8.9,7.6,17.8,15.3,26.5,23.1
		L828.5,520.9L828.5,520.9z"/>
	<path class="st19" d="M850.1,530.1c-8.7-0.6-12.9-0.9-21.5-1.3v-8.2c8.6,0.3,12.9,0.5,21.6,1.1
		C850.1,525.1,850.1,526.8,850.1,530.1z"/>
	<path class="st9" d="M842,536.6c2.8-2.9,4.2-4.4,7.1-7.4c-8.5-0.6-12.7-0.9-21.2-1.2c-9.6-8.6-19.3-17-29.1-25.3l-0.7,9.1
		c10,7.9,19.9,15.9,29.7,24C833.5,536.1,836.3,536.2,842,536.6z"/>
	<path class="st5" d="M612.6,520.1l5.4-5c7.5-6.9,11.2-10.3,18.7-17c0.7,2.9,1,4.4,1.7,7.4c-8.7,7.4-17.3,14.9-25.8,22.4
		L612.6,520.1L612.6,520.1z"/>
	<path class="st9" d="M598.5,536.3c-2.8-3-4.2-4.4-7.1-7.4c8.5-0.5,12.8-0.7,21.2-1c9.6-8.5,19.3-16.9,29.1-25.2
		c0.3,3.7,0.4,5.5,0.6,9.1c-10,7.8-19.9,15.7-29.7,23.8C607,535.9,604.1,536,598.5,536.3z"/>
	<path class="st6" d="M642,511.8c-2.3-3.9-3.5-5.9-5.8-9.9c56.6-0.5,113.2-0.5,169.9,0c-2.3,4-3.5,5.9-5.8,9.9
		C747.5,511.2,694.6,511.2,642,511.8z"/>
	<path class="st10" d="M806,502.6c-57.1-0.6-114.2-0.6-171.3,0c0-2.4,0-3.6,0-6c57.1-0.4,114.2-0.4,171.3,0V502.6L806,502.6z"/>
	<path class="st20" d="M774,555.8c0.1,23.6-34.9,31.1-53.1,31.1s-53.1-7.5-53.1-31.1c0-23.8,34.3-32.1,53.1-32.1
		S774,531.9,774,555.8z"/>
	<path class="st17" d="M769.8,560.2c0.1,23.4-32.2,31.2-48.9,31.2s-48.8-7.9-48.8-31.2s31.8-32,48.8-32S769.8,536.7,769.8,560.2z"/>
	<path class="st16" d="M767.6,563.2c0,21.7-29.3,30.5-46.8,30.5s-46.7-8.9-46.7-30.6c0-21.7,28.9-31.2,46.7-31.2
		S767.6,541.5,767.6,563.2z"/>
	<path class="st7" d="M864.8,617.6c-96.6-7.2-193.6-7.3-290.2-0.2c0-4.7,0-7.1,0-12.1c96.6-6.8,193.6-6.7,290.2,0.2
		C864.8,610.5,864.8,612.9,864.8,617.6z"/>
	<path class="st10" d="M864.8,605.5c-96.6-6.9-193.6-7-290.2-0.2c-2.8-4.8-4.2-7.2-7.1-12c100.4-7.1,201.2-7.1,301.6,0.1
		C867.2,598.2,866.5,600.7,864.8,605.5z"/>
	<path class="st7" d="M857.6,592.5c-91.9-6.7-184.1-6.8-276-0.2v-31.4c91.9-6.5,184.2-6.4,276.1,0.3L857.6,592.5z"/>
	<path class="st5" d="M861.8,561.6c-94.2-7.1-188.9-7.2-283.2-0.4c0-5,0-7.5,0-12.5c93.5-6.7,189.7-7,283.2,0.5V561.6z"/>
	<path class="st11" d="M858.3,565.2c-92.4-6.8-185.1-6.9-277.5-0.3c0-1.9,0-2.8,0-4.7c92.4-6.6,185.1-6.5,277.5,0.3V565.2z"/>
	<path class="st21" d="M641,730.7l-2.8,0.1c0-35.5,0-71,0-106.5l2.8-0.2C640.8,659.6,640.8,695.1,641,730.7z"/>
	<path class="st22" d="M648,730.5l-2.8,0.1c0-35.6,0-71.1,0-106.7l2.8-0.1C648,659.3,648,694.9,648,730.5z"/>
	<path class="st23" d="M645.1,730.6l-4.2,0.1c0-35.5,0-71.1,0-106.6l4.2-0.2C645.1,659.4,645.1,695,645.1,730.6z"/>
	<path class="st14" d="M650,624.3c-5.1,0.2-7.7,0.3-12.8,0.6v-2c5.1-0.3,7.7-0.4,12.8-0.6V624.3z"/>
	<path class="st21" d="M640.1,624.1c0,2-1.6,3.5-3.5,3.7c-1.8,0.1-3.4-1.2-3.5-3c0-0.1,0-0.2,0-0.3c0-2,1.6-3.6,3.5-3.7
		c1.8-0.1,3.4,1.2,3.5,3.1C640.1,624,640.1,624,640.1,624.1z"/>
	<path class="st21" d="M649.2,731.2c-5,0.1-7.5,0.2-12.5,0.4c-0.4,0.1-0.8-0.2-0.9-0.7l0,0v-1.7c0-0.4,0.4-0.8,0.8-0.8
		c5-0.2,7.5-0.2,12.5-0.4c0.4,0,0.8,0.3,0.8,0.7l0,0v1.7C650,730.9,649.8,731.2,649.2,731.2z"/>
	<path class="st22" d="M651.5,731.2c-6.8,0.2-10.2,0.2-17,0.5l1.4-1.6c5.7-0.2,8.5-0.3,14.1-0.4C650.6,730.3,651,730.6,651.5,731.2z
		"/>
	<path class="st15" d="M653,732.7c-7.9,0.2-11.9,0.3-19.8,0.6v-1.6c7.9-0.3,11.9-0.4,19.8-0.6V732.7z"/>
	<path class="st24" d="M638.8,627.3"/>
	<path class="st12" d="M638.8,624.2c0,1.2-1,2.1-2.1,2.2c-1.1,0.1-2.1-0.8-2.1-1.9v-0.1c0-1.2,1-2.1,2.1-2.2S638.8,623,638.8,624.2
		C638.8,624.1,638.8,624.1,638.8,624.2z"/>
	<path class="st21" d="M653,623.5c0,1.9-1.6,3.5-3.5,3.6c-1.8,0.1-3.4-1.2-3.5-3.1c0-0.1,0-0.2,0-0.2c0-2,1.6-3.5,3.5-3.6
		c1.8-0.1,3.4,1.3,3.5,3.1C653,623.4,653,623.5,653,623.5z"/>
	<path class="st12" d="M651.5,623.6c0,1.2-1,2.1-2.1,2.2c-1.1,0.1-2.1-0.8-2.1-1.9v-0.1c0-1.2,0.9-2.1,2.1-2.2
		C650.5,621.5,651.5,622.4,651.5,623.6C651.5,623.5,651.5,623.5,651.5,623.6z"/>
	<path class="st15" d="M642.3,728.2"/>
	<path class="st15" d="M640.2,728.3"/>
	<path class="st24" d="M641.5,624.7"/>
	<path class="st15" d="M647.2,728.1"/>
	<path class="st24" d="M647.3,626.9"/>
	<path class="st15" d="M647.2,728.1"/>
	<path class="st23" d="M637.3,624.3c0,0.4-0.3,0.7-0.7,0.7s-0.7-0.2-0.7-0.6c0,0,0,0,0-0.1c0-0.4,0.3-0.7,0.7-0.7
		C637,623.6,637.3,623.9,637.3,624.3C637.3,624.2,637.3,624.2,637.3,624.3z"/>
	<path class="st23" d="M650,623.7c0,0.4-0.3,0.7-0.7,0.7s-0.7-0.2-0.7-0.6l0,0c0-0.4,0.3-0.7,0.7-0.7C649.8,623,650,623.2,650,623.7
		C650,623.6,650,623.6,650,623.7z"/>
	<path class="st21" d="M641,730.7l-2.8,0.1c0-35.5,0-71,0-106.5l2.8-0.2C640.8,659.6,640.8,695.1,641,730.7z"/>
	<path class="st22" d="M648,730.5l-2.8,0.1c0-35.6,0-71.1,0-106.7l2.8-0.1C648,659.3,648,694.9,648,730.5z"/>
	<path class="st23" d="M645.1,730.6l-4.2,0.1c0-35.5,0-71.1,0-106.6l4.2-0.2C645.1,659.4,645.1,695,645.1,730.6z"/>
	<path class="st14" d="M650,624.3c-5.1,0.2-7.7,0.3-12.8,0.6v-2c5.1-0.3,7.7-0.4,12.8-0.6V624.3z"/>
	<path class="st21" d="M640.1,624.1c0,2-1.6,3.5-3.5,3.7c-1.8,0.1-3.4-1.2-3.5-3c0-0.1,0-0.2,0-0.3c0-2,1.6-3.6,3.5-3.7
		c1.8-0.1,3.4,1.2,3.5,3.1C640.1,624,640.1,624,640.1,624.1z"/>
	<path class="st21" d="M649.2,731.2c-5,0.1-7.5,0.2-12.5,0.4c-0.4,0.1-0.8-0.2-0.9-0.7l0,0v-1.7c0-0.4,0.4-0.8,0.8-0.8
		c5-0.2,7.5-0.2,12.5-0.4c0.4,0,0.8,0.3,0.8,0.7l0,0v1.7C650,730.9,649.8,731.2,649.2,731.2z"/>
	<path class="st22" d="M651.5,731.2c-6.8,0.2-10.2,0.2-17,0.5l1.4-1.6c5.7-0.2,8.5-0.3,14.1-0.4C650.6,730.3,651,730.6,651.5,731.2z
		"/>
	<path class="st15" d="M653,732.7c-7.9,0.2-11.9,0.3-19.8,0.6v-1.6c7.9-0.3,11.9-0.4,19.8-0.6V732.7z"/>
	<path class="st24" d="M638.8,627.3"/>
	<path class="st12" d="M638.8,624.2c0,1.2-1,2.1-2.1,2.2c-1.1,0.1-2.1-0.8-2.1-1.9v-0.1c0-1.2,1-2.1,2.1-2.2S638.8,623,638.8,624.2
		C638.8,624.1,638.8,624.1,638.8,624.2z"/>
	<path class="st21" d="M653,623.5c0,1.9-1.6,3.5-3.5,3.6c-1.8,0.1-3.4-1.2-3.5-3.1c0-0.1,0-0.2,0-0.2c0-2,1.6-3.5,3.5-3.6
		c1.8-0.1,3.4,1.3,3.5,3.1C653,623.4,653,623.5,653,623.5z"/>
	<path class="st12" d="M651.5,623.6c0,1.2-1,2.1-2.1,2.2c-1.1,0.1-2.1-0.8-2.1-1.9v-0.1c0-1.2,0.9-2.1,2.1-2.2
		C650.5,621.5,651.5,622.4,651.5,623.6C651.5,623.5,651.5,623.5,651.5,623.6z"/>
	<path class="st15" d="M642.3,728.2"/>
	<path class="st15" d="M640.2,728.3"/>
	<path class="st24" d="M641.5,624.7"/>
	<path class="st15" d="M647.2,728.1"/>
	<path class="st24" d="M647.3,626.9"/>
	<path class="st15" d="M647.2,728.1"/>
	<path class="st23" d="M637.3,624.3c0,0.4-0.3,0.7-0.7,0.7s-0.7-0.2-0.7-0.6c0,0,0,0,0-0.1c0-0.4,0.3-0.7,0.7-0.7
		C637,623.6,637.3,623.9,637.3,624.3C637.3,624.2,637.3,624.2,637.3,624.3z"/>
	<path class="st23" d="M650,623.7c0,0.4-0.3,0.7-0.7,0.7s-0.7-0.2-0.7-0.6l0,0c0-0.4,0.3-0.7,0.7-0.7C649.8,623,650,623.2,650,623.7
		C650,623.6,650,623.6,650,623.7z"/>
	<path class="st21" d="M641,730.7l-2.8,0.1c0-35.5,0-71,0-106.5l2.8-0.2C640.8,659.6,640.8,695.1,641,730.7z"/>
	<path class="st22" d="M648,730.5l-2.8,0.1c0-35.6,0-71.1,0-106.7l2.8-0.1C648,659.3,648,694.9,648,730.5z"/>
	<path class="st23" d="M645.1,730.6l-4.2,0.1c0-35.5,0-71.1,0-106.6l4.2-0.2C645.1,659.4,645.1,695,645.1,730.6z"/>
	<path class="st14" d="M650,624.3c-5.1,0.2-7.7,0.3-12.8,0.6v-2c5.1-0.3,7.7-0.4,12.8-0.6V624.3z"/>
	<path class="st21" d="M640.1,624.1c0,2-1.6,3.5-3.5,3.7c-1.8,0.1-3.4-1.2-3.5-3c0-0.1,0-0.2,0-0.3c0-2,1.6-3.6,3.5-3.7
		c1.8-0.1,3.4,1.2,3.5,3.1C640.1,624,640.1,624,640.1,624.1z"/>
	<path class="st21" d="M649.2,731.2c-5,0.1-7.5,0.2-12.5,0.4c-0.4,0.1-0.8-0.2-0.9-0.7l0,0v-1.7c0-0.4,0.4-0.8,0.8-0.8
		c5-0.2,7.5-0.2,12.5-0.4c0.4,0,0.8,0.3,0.8,0.7l0,0v1.7C650,730.9,649.8,731.2,649.2,731.2z"/>
	<path class="st22" d="M651.5,731.2c-6.8,0.2-10.2,0.2-17,0.5l1.4-1.6c5.7-0.2,8.5-0.3,14.1-0.4C650.6,730.3,651,730.6,651.5,731.2z
		"/>
	<path class="st15" d="M653,732.7c-7.9,0.2-11.9,0.3-19.8,0.6v-1.6c7.9-0.3,11.9-0.4,19.8-0.6V732.7z"/>
	<path class="st24" d="M638.8,627.3"/>
	<path class="st12" d="M638.8,624.2c0,1.2-1,2.1-2.1,2.2c-1.1,0.1-2.1-0.8-2.1-1.9v-0.1c0-1.2,1-2.1,2.1-2.2S638.8,623,638.8,624.2
		C638.8,624.1,638.8,624.1,638.8,624.2z"/>
	<path class="st21" d="M653,623.5c0,1.9-1.6,3.5-3.5,3.6c-1.8,0.1-3.4-1.2-3.5-3.1c0-0.1,0-0.2,0-0.2c0-2,1.6-3.5,3.5-3.6
		c1.8-0.1,3.4,1.3,3.5,3.1C653,623.4,653,623.5,653,623.5z"/>
	<path class="st12" d="M651.5,623.6c0,1.2-1,2.1-2.1,2.2c-1.1,0.1-2.1-0.8-2.1-1.9v-0.1c0-1.2,0.9-2.1,2.1-2.2
		C650.5,621.5,651.5,622.4,651.5,623.6C651.5,623.5,651.5,623.5,651.5,623.6z"/>
	<path class="st15" d="M642.3,728.2"/>
	<path class="st15" d="M640.2,728.3"/>
	<path class="st24" d="M641.5,624.7"/>
	<path class="st15" d="M647.2,728.1"/>
	<path class="st24" d="M647.3,626.9"/>
	<path class="st15" d="M647.2,728.1"/>
	<path class="st23" d="M637.3,624.3c0,0.4-0.3,0.7-0.7,0.7s-0.7-0.2-0.7-0.6c0,0,0,0,0-0.1c0-0.4,0.3-0.7,0.7-0.7
		C637,623.6,637.3,623.9,637.3,624.3C637.3,624.2,637.3,624.2,637.3,624.3z"/>
	<path class="st23" d="M650,623.7c0,0.4-0.3,0.7-0.7,0.7s-0.7-0.2-0.7-0.6l0,0c0-0.4,0.3-0.7,0.7-0.7C649.8,623,650,623.2,650,623.7
		C650,623.6,650,623.6,650,623.7z"/>
	<path class="st21" d="M641,730.7l-2.8,0.1c0-35.5,0-71,0-106.5l2.8-0.2C640.8,659.6,640.8,695.1,641,730.7z"/>
	<path class="st22" d="M648,730.5l-2.8,0.1c0-35.6,0-71.1,0-106.7l2.8-0.1C648,659.3,648,694.9,648,730.5z"/>
	<path class="st23" d="M645.1,730.6l-4.2,0.1c0-35.5,0-71.1,0-106.6l4.2-0.2C645.1,659.4,645.1,695,645.1,730.6z"/>
	<path class="st14" d="M650,624.3c-5.1,0.2-7.7,0.3-12.8,0.6v-2c5.1-0.3,7.7-0.4,12.8-0.6V624.3z"/>
	<path class="st21" d="M640.1,624.1c0,2-1.6,3.5-3.5,3.7c-1.8,0.1-3.4-1.2-3.5-3c0-0.1,0-0.2,0-0.3c0-2,1.6-3.6,3.5-3.7
		c1.8-0.1,3.4,1.2,3.5,3.1C640.1,624,640.1,624,640.1,624.1z"/>
	<path class="st21" d="M649.2,731.2c-5,0.1-7.5,0.2-12.5,0.4c-0.4,0.1-0.8-0.2-0.9-0.7l0,0v-1.7c0-0.4,0.4-0.8,0.8-0.8
		c5-0.2,7.5-0.2,12.5-0.4c0.4,0,0.8,0.3,0.8,0.7l0,0v1.7C650,730.9,649.8,731.2,649.2,731.2z"/>
	<path class="st22" d="M651.5,731.2c-6.8,0.2-10.2,0.2-17,0.5l1.4-1.6c5.7-0.2,8.5-0.3,14.1-0.4C650.6,730.3,651,730.6,651.5,731.2z
		"/>
	<path class="st15" d="M653,732.7c-7.9,0.2-11.9,0.3-19.8,0.6v-1.6c7.9-0.3,11.9-0.4,19.8-0.6V732.7z"/>
	<path class="st24" d="M638.8,627.3"/>
	<path class="st12" d="M638.8,624.2c0,1.2-1,2.1-2.1,2.2c-1.1,0.1-2.1-0.8-2.1-1.9v-0.1c0-1.2,1-2.1,2.1-2.2S638.8,623,638.8,624.2
		C638.8,624.1,638.8,624.1,638.8,624.2z"/>
	<path class="st21" d="M653,623.5c0,1.9-1.6,3.5-3.5,3.6c-1.8,0.1-3.4-1.2-3.5-3.1c0-0.1,0-0.2,0-0.2c0-2,1.6-3.5,3.5-3.6
		c1.8-0.1,3.4,1.3,3.5,3.1C653,623.4,653,623.5,653,623.5z"/>
	<path class="st12" d="M651.5,623.6c0,1.2-1,2.1-2.1,2.2c-1.1,0.1-2.1-0.8-2.1-1.9v-0.1c0-1.2,0.9-2.1,2.1-2.2
		C650.5,621.5,651.5,622.4,651.5,623.6C651.5,623.5,651.5,623.5,651.5,623.6z"/>
	<path class="st15" d="M642.3,728.2"/>
	<path class="st15" d="M640.2,728.3"/>
	<path class="st24" d="M641.5,624.7"/>
	<path class="st15" d="M647.2,728.1"/>
	<path class="st24" d="M647.3,626.9"/>
	<path class="st15" d="M647.2,728.1"/>
	<path class="st23" d="M637.3,624.3c0,0.4-0.3,0.7-0.7,0.7s-0.7-0.2-0.7-0.6c0,0,0,0,0-0.1c0-0.4,0.3-0.7,0.7-0.7
		C637,623.6,637.3,623.9,637.3,624.3C637.3,624.2,637.3,624.2,637.3,624.3z"/>
	<path class="st23" d="M650,623.7c0,0.4-0.3,0.7-0.7,0.7s-0.7-0.2-0.7-0.6l0,0c0-0.4,0.3-0.7,0.7-0.7C649.8,623,650,623.2,650,623.7
		C650,623.6,650,623.6,650,623.7z"/>
	<path class="st21" d="M669.2,730.1h-2.8c0-35.7,0-71.4,0-107.1l2.8-0.1C669.2,658.7,669.2,694.4,669.2,730.1z"/>
	<path class="st22" d="M676.2,730h-2.8c0-35.7,0-71.5,0-107.2l2.8-0.1C676.3,658.5,676.3,694.3,676.2,730z"/>
	<path class="st23" d="M673.5,730h-4.2c0-35.7,0-71.4,0-107.1l4.2-0.1C673.5,658.6,673.5,694.3,673.5,730z"/>
	<path class="st14" d="M678.5,623.4c-5.1,0.1-7.7,0.2-12.8,0.4v-2.1c5.1-0.2,7.7-0.2,12.8-0.4V623.4z"/>
	<path class="st21" d="M668.5,623c0,1.9-1.6,3.5-3.5,3.5c-1.8,0.1-3.4-1.3-3.5-3.1c0-0.1,0-0.1,0-0.2c0-1.9,1.6-3.5,3.5-3.6
		s3.4,1.3,3.5,3.2C668.5,622.9,668.5,622.9,668.5,623z"/>
	<path class="st21" d="M677.5,730.8c-5,0-7.5,0.1-12.5,0.1c-0.4,0-0.8-0.3-0.8-0.7l0,0v-1.7c0-0.4,0.4-0.8,0.8-0.8
		c5-0.1,7.5-0.1,12.5-0.1c0.4,0,0.8,0.3,0.8,0.7l0,0v1.7C678.3,730.5,678,730.8,677.5,730.8z"/>
	<path class="st22" d="M679.8,730.8c-6.8,0-10.2,0.1-17,0.2l1.4-1.6c5.7-0.1,8.5-0.1,14.1-0.2L679.8,730.8z"/>
	<path class="st15" d="M681.2,732.3c-7.9,0.1-11.9,0.1-19.8,0.2v-1.6c7.9-0.1,11.9-0.2,19.8-0.2V732.3z"/>
	<path class="st24" d="M667,626.1"/>
	<path class="st12" d="M667,623c0,1.2-1,2.1-2.1,2.1c-1.1,0.1-2.1-0.8-2.1-1.9v-0.1c0-1.2,1-2.1,2.1-2.1
		C666,620.9,667,621.8,667,623L667,623z"/>
	<path class="st21" d="M681.2,622.6c0,1.9-1.6,3.5-3.5,3.5c-1.9,0.1-3.4-1.3-3.5-3.2v-0.1c0-1.9,1.6-3.5,3.5-3.5
		C679.7,619.2,681.2,620.7,681.2,622.6L681.2,622.6z"/>
	<path class="st12" d="M679.8,622.7c0,1.2-1,2.1-2.1,2.1c-1.1,0.1-2.1-0.8-2.1-1.9v-0.1c0-1.2,1-2.1,2.1-2.1
		C678.8,620.6,679.8,621.5,679.8,622.7C679.8,622.6,679.8,622.6,679.8,622.7z"/>
	<path class="st15" d="M670.6,727.7"/>
	<path class="st15" d="M668.5,727.7"/>
	<path class="st24" d="M670,623.6"/>
	<path class="st15" d="M675.5,727.6"/>
	<path class="st24" d="M675.8,625.8"/>
	<path class="st15" d="M675.5,727.6"/>
	<path class="st23" d="M665.6,623.1c0,0.4-0.3,0.7-0.7,0.7s-0.7-0.3-0.7-0.6l0,0c0-0.4,0.3-0.7,0.7-0.7
		C665.3,622.4,665.6,622.7,665.6,623.1C665.6,623,665.6,623,665.6,623.1z"/>
	<path class="st23" d="M678.5,622.7c0,0.4-0.3,0.7-0.7,0.7s-0.7-0.3-0.7-0.6l0,0c0-0.4,0.3-0.7,0.7-0.7
		C678,622,678.3,622.3,678.5,622.7L678.5,622.7z"/>
	<path class="st21" d="M612.6,731.9l-2.8,0.2c0-35.3-0.1-70.7,0-106l2.8-0.2C612.5,661.2,612.6,696.5,612.6,731.9z"/>
	<path class="st22" d="M619.8,731.5l-2.8,0.1c0-35.4-0.2-70.7-0.1-106.1l2.8-0.2C619.5,660.7,619.6,696.1,619.8,731.5z"/>
	<path class="st23" d="M617,731.6l-4.2,0.2c0-35.3-0.2-70.7-0.1-106l4.2-0.3C616.8,660.9,616.8,696.3,617,731.6z"/>
	<path class="st14" d="M621.8,625.9c-5.1,0.3-7.6,0.5-12.7,0.9v-2.1c5.1-0.4,7.6-0.6,12.7-0.9V625.9z"/>
	<path class="st21" d="M612,625.9c0,2-1.6,3.6-3.5,3.8c-1.7,0.2-3.3-1.1-3.5-2.8c0-0.1,0-0.3,0-0.4c0-2,1.6-3.6,3.5-3.8
		c1.8-0.2,3.3,1.1,3.5,2.8C612,625.6,612,625.8,612,625.9z"/>
	<path class="st21" d="M621,732.2c-5,0.2-7.5,0.4-12.5,0.7c-0.4,0-0.8-0.2-0.8-0.7l0,0v-1.7c0-0.4,0.4-0.8,0.8-0.8
		c5-0.3,7.5-0.4,12.5-0.7c0.4,0,0.8,0.3,0.8,0.7l0,0v1.7C621.8,731.9,621.5,732.2,621,732.2z"/>
	<path class="st22" d="M623.2,732.1c-6.8,0.3-10.2,0.5-17,0.9c0.6-0.7,0.8-1,1.4-1.7c5.7-0.3,8.5-0.5,14.2-0.8L623.2,732.1z"/>
	<path class="st15" d="M624.6,733.6c-7.9,0.3-11.8,0.5-19.8,1.1v-1.6c8-0.5,11.9-0.7,19.8-1.1V733.6z"/>
	<path class="st24" d="M610.5,629.1"/>
	<path class="st12" d="M610.5,626c0,1.2-0.9,2.2-2.1,2.3c-1,0.1-2-0.7-2.1-1.7c0-0.1,0-0.1,0-0.2c0-1.2,0.9-2.2,2.1-2.3
		c1.1-0.1,2,0.7,2.1,1.7C610.5,625.9,610.5,625.9,610.5,626z"/>
	<path class="st21" d="M624.5,625c0,2-1.6,3.6-3.5,3.7c-1.8,0.2-3.3-1.1-3.5-2.9c0-0.1,0-0.2,0-0.3c0-2,1.6-3.6,3.5-3.8
		c1.8-0.1,3.4,1.2,3.5,3C624.5,624.8,624.5,624.9,624.5,625z"/>
	<path class="st12" d="M623.1,625.1c0,1.2-0.9,2.1-2.1,2.2c-1.1,0.1-2-0.7-2.1-1.7c0-0.1,0-0.1,0-0.2c0-1.2,0.9-2.2,2.1-2.2
		C622.1,623.1,623.1,623.9,623.1,625.1C623.1,625,623.1,625.1,623.1,625.1z"/>
	<path class="st15" d="M614,729.4"/>
	<path class="st15" d="M612,729.5"/>
	<path class="st24" d="M613.2,626.5"/>
	<path class="st15" d="M619,729.1"/>
	<path class="st24" d="M619,628.5"/>
	<path class="st15" d="M619,729.1"/>
	<path class="st23" d="M609,626.1c0,0.4-0.3,0.7-0.7,0.8c-0.4,0-0.7-0.2-0.7-0.6c0,0,0,0,0-0.1c0-0.4,0.3-0.7,0.7-0.8
		C608.8,625.4,609,625.7,609,626.1L609,626.1z"/>
	<path class="st23" d="M621.8,625.2c0,0.4-0.3,0.7-0.7,0.7s-0.7-0.2-0.7-0.6c0,0,0,0,0-0.1c0-0.4,0.3-0.7,0.7-0.7
		S621.8,624.8,621.8,625.2C621.8,625.1,621.8,625.2,621.8,625.2z"/>
	<path class="st21" d="M612.6,731.9l-2.8,0.2c0-35.3-0.1-70.7,0-106l2.8-0.2C612.5,661.2,612.6,696.5,612.6,731.9z"/>
	<path class="st22" d="M619.8,731.5l-2.8,0.1c0-35.4-0.2-70.7-0.1-106.1l2.8-0.2C619.5,660.7,619.6,696.1,619.8,731.5z"/>
	<path class="st23" d="M617,731.6l-4.2,0.2c0-35.3-0.2-70.7-0.1-106l4.2-0.3C616.8,660.9,616.8,696.3,617,731.6z"/>
	<path class="st14" d="M621.8,625.9c-5.1,0.3-7.6,0.5-12.7,0.9v-2.1c5.1-0.4,7.6-0.6,12.7-0.9V625.9z"/>
	<path class="st21" d="M612,625.9c0,2-1.6,3.6-3.5,3.8c-1.7,0.2-3.3-1.1-3.5-2.8c0-0.1,0-0.3,0-0.4c0-2,1.6-3.6,3.5-3.8
		c1.8-0.2,3.3,1.1,3.5,2.8C612,625.6,612,625.8,612,625.9z"/>
	<path class="st21" d="M621,732.2c-5,0.2-7.5,0.4-12.5,0.7c-0.4,0-0.8-0.2-0.8-0.7l0,0v-1.7c0-0.4,0.4-0.8,0.8-0.8
		c5-0.3,7.5-0.4,12.5-0.7c0.4,0,0.8,0.3,0.8,0.7l0,0v1.7C621.8,731.9,621.5,732.2,621,732.2z"/>
	<path class="st22" d="M623.2,732.1c-6.8,0.3-10.2,0.5-17,0.9c0.6-0.7,0.8-1,1.4-1.7c5.7-0.3,8.5-0.5,14.2-0.8L623.2,732.1z"/>
	<path class="st15" d="M624.6,733.6c-7.9,0.3-11.8,0.5-19.8,1.1v-1.6c8-0.5,11.9-0.7,19.8-1.1V733.6z"/>
	<path class="st24" d="M610.5,629.1"/>
	<path class="st12" d="M610.5,626c0,1.2-0.9,2.2-2.1,2.3c-1,0.1-2-0.7-2.1-1.7c0-0.1,0-0.1,0-0.2c0-1.2,0.9-2.2,2.1-2.3
		c1.1-0.1,2,0.7,2.1,1.7C610.5,625.9,610.5,625.9,610.5,626z"/>
	<path class="st21" d="M624.5,625c0,2-1.6,3.6-3.5,3.7c-1.8,0.2-3.3-1.1-3.5-2.9c0-0.1,0-0.2,0-0.3c0-2,1.6-3.6,3.5-3.8
		c1.8-0.1,3.4,1.2,3.5,3C624.5,624.8,624.5,624.9,624.5,625z"/>
	<path class="st12" d="M623.1,625.1c0,1.2-0.9,2.1-2.1,2.2c-1.1,0.1-2-0.7-2.1-1.7c0-0.1,0-0.1,0-0.2c0-1.2,0.9-2.2,2.1-2.2
		C622.1,623.1,623.1,623.9,623.1,625.1C623.1,625,623.1,625.1,623.1,625.1z"/>
	<path class="st15" d="M614,729.4"/>
	<path class="st15" d="M612,729.5"/>
	<path class="st24" d="M613.2,626.5"/>
	<path class="st15" d="M619,729.1"/>
	<path class="st24" d="M619,628.5"/>
	<path class="st15" d="M619,729.1"/>
	<path class="st23" d="M609,626.1c0,0.4-0.3,0.7-0.7,0.8c-0.4,0-0.7-0.2-0.7-0.6c0,0,0,0,0-0.1c0-0.4,0.3-0.7,0.7-0.8
		C608.8,625.4,609,625.7,609,626.1L609,626.1z"/>
	<path class="st23" d="M621.8,625.2c0,0.4-0.3,0.7-0.7,0.7s-0.7-0.2-0.7-0.6c0,0,0,0,0-0.1c0-0.4,0.3-0.7,0.7-0.7
		S621.8,624.8,621.8,625.2C621.8,625.1,621.8,625.2,621.8,625.2z"/>
	<path class="st21" d="M612.6,731.9l-2.8,0.2c0-35.3-0.1-70.7,0-106l2.8-0.2C612.5,661.2,612.6,696.5,612.6,731.9z"/>
	<path class="st22" d="M619.8,731.5l-2.8,0.1c0-35.4-0.2-70.7-0.1-106.1l2.8-0.2C619.5,660.7,619.6,696.1,619.8,731.5z"/>
	<path class="st23" d="M617,731.6l-4.2,0.2c0-35.3-0.2-70.7-0.1-106l4.2-0.3C616.8,660.9,616.8,696.3,617,731.6z"/>
	<path class="st14" d="M621.8,625.9c-5.1,0.3-7.6,0.5-12.7,0.9v-2.1c5.1-0.4,7.6-0.6,12.7-0.9V625.9z"/>
	<path class="st21" d="M612,625.9c0,2-1.6,3.6-3.5,3.8c-1.7,0.2-3.3-1.1-3.5-2.8c0-0.1,0-0.3,0-0.4c0-2,1.6-3.6,3.5-3.8
		c1.8-0.2,3.3,1.1,3.5,2.8C612,625.6,612,625.8,612,625.9z"/>
	<path class="st21" d="M621,732.2c-5,0.2-7.5,0.4-12.5,0.7c-0.4,0-0.8-0.2-0.8-0.7l0,0v-1.7c0-0.4,0.4-0.8,0.8-0.8
		c5-0.3,7.5-0.4,12.5-0.7c0.4,0,0.8,0.3,0.8,0.7l0,0v1.7C621.8,731.9,621.5,732.2,621,732.2z"/>
	<path class="st22" d="M623.2,732.1c-6.8,0.3-10.2,0.5-17,0.9c0.6-0.7,0.8-1,1.4-1.7c5.7-0.3,8.5-0.5,14.2-0.8L623.2,732.1z"/>
	<path class="st15" d="M624.6,733.6c-7.9,0.3-11.8,0.5-19.8,1.1v-1.6c8-0.5,11.9-0.7,19.8-1.1V733.6z"/>
	<path class="st24" d="M610.5,629.1"/>
	<path class="st12" d="M610.5,626c0,1.2-0.9,2.2-2.1,2.3c-1,0.1-2-0.7-2.1-1.7c0-0.1,0-0.1,0-0.2c0-1.2,0.9-2.2,2.1-2.3
		c1.1-0.1,2,0.7,2.1,1.7C610.5,625.9,610.5,625.9,610.5,626z"/>
	<path class="st21" d="M624.5,625c0,2-1.6,3.6-3.5,3.7c-1.8,0.2-3.3-1.1-3.5-2.9c0-0.1,0-0.2,0-0.3c0-2,1.6-3.6,3.5-3.8
		c1.8-0.1,3.4,1.2,3.5,3C624.5,624.8,624.5,624.9,624.5,625z"/>
	<path class="st12" d="M623.1,625.1c0,1.2-0.9,2.1-2.1,2.2c-1.1,0.1-2-0.7-2.1-1.7c0-0.1,0-0.1,0-0.2c0-1.2,0.9-2.2,2.1-2.2
		C622.1,623.1,623.1,623.9,623.1,625.1C623.1,625,623.1,625.1,623.1,625.1z"/>
	<path class="st15" d="M614,729.4"/>
	<path class="st15" d="M612,729.5"/>
	<path class="st24" d="M613.2,626.5"/>
	<path class="st15" d="M619,729.1"/>
	<path class="st24" d="M619,628.5"/>
	<path class="st15" d="M619,729.1"/>
	<path class="st23" d="M609,626.1c0,0.4-0.3,0.7-0.7,0.8c-0.4,0-0.7-0.2-0.7-0.6c0,0,0,0,0-0.1c0-0.4,0.3-0.7,0.7-0.8
		C608.8,625.4,609,625.7,609,626.1L609,626.1z"/>
	<path class="st23" d="M621.8,625.2c0,0.4-0.3,0.7-0.7,0.7s-0.7-0.2-0.7-0.6c0,0,0,0,0-0.1c0-0.4,0.3-0.7,0.7-0.7
		S621.8,624.8,621.8,625.2C621.8,625.1,621.8,625.2,621.8,625.2z"/>
	<path class="st21" d="M612.6,731.9l-2.8,0.2c0-35.3-0.1-70.7,0-106l2.8-0.2C612.5,661.2,612.6,696.5,612.6,731.9z"/>
	<path class="st22" d="M619.8,731.5l-2.8,0.1c0-35.4-0.2-70.7-0.1-106.1l2.8-0.2C619.5,660.7,619.6,696.1,619.8,731.5z"/>
	<path class="st23" d="M617,731.6l-4.2,0.2c0-35.3-0.2-70.7-0.1-106l4.2-0.3C616.8,660.9,616.8,696.3,617,731.6z"/>
	<path class="st14" d="M621.8,625.9c-5.1,0.3-7.6,0.5-12.7,0.9v-2.1c5.1-0.4,7.6-0.6,12.7-0.9V625.9z"/>
	<path class="st21" d="M612,625.9c0,2-1.6,3.6-3.5,3.8c-1.7,0.2-3.3-1.1-3.5-2.8c0-0.1,0-0.3,0-0.4c0-2,1.6-3.6,3.5-3.8
		c1.8-0.2,3.3,1.1,3.5,2.8C612,625.6,612,625.8,612,625.9z"/>
	<path class="st21" d="M621,732.2c-5,0.2-7.5,0.4-12.5,0.7c-0.4,0-0.8-0.2-0.8-0.7l0,0v-1.7c0-0.4,0.4-0.8,0.8-0.8
		c5-0.3,7.5-0.4,12.5-0.7c0.4,0,0.8,0.3,0.8,0.7l0,0v1.7C621.8,731.9,621.5,732.2,621,732.2z"/>
	<path class="st22" d="M623.2,732.1c-6.8,0.3-10.2,0.5-17,0.9c0.6-0.7,0.8-1,1.4-1.7c5.7-0.3,8.5-0.5,14.2-0.8L623.2,732.1z"/>
	<path class="st15" d="M624.6,733.6c-7.9,0.3-11.8,0.5-19.8,1.1v-1.6c8-0.5,11.9-0.7,19.8-1.1V733.6z"/>
	<path class="st24" d="M610.5,629.1"/>
	<path class="st12" d="M610.5,626c0,1.2-0.9,2.2-2.1,2.3c-1,0.1-2-0.7-2.1-1.7c0-0.1,0-0.1,0-0.2c0-1.2,0.9-2.2,2.1-2.3
		c1.1-0.1,2,0.7,2.1,1.7C610.5,625.9,610.5,625.9,610.5,626z"/>
	<path class="st21" d="M624.5,625c0,2-1.6,3.6-3.5,3.7c-1.8,0.2-3.3-1.1-3.5-2.9c0-0.1,0-0.2,0-0.3c0-2,1.6-3.6,3.5-3.8
		c1.8-0.1,3.4,1.2,3.5,3C624.5,624.8,624.5,624.9,624.5,625z"/>
	<path class="st12" d="M623.1,625.1c0,1.2-0.9,2.1-2.1,2.2c-1.1,0.1-2-0.7-2.1-1.7c0-0.1,0-0.1,0-0.2c0-1.2,0.9-2.2,2.1-2.2
		C622.1,623.1,623.1,623.9,623.1,625.1C623.1,625,623.1,625.1,623.1,625.1z"/>
	<path class="st15" d="M614,729.4"/>
	<path class="st15" d="M612,729.5"/>
	<path class="st24" d="M613.2,626.5"/>
	<path class="st15" d="M619,729.1"/>
	<path class="st24" d="M619,628.5"/>
	<path class="st15" d="M619,729.1"/>
	<path class="st23" d="M609,626.1c0,0.4-0.3,0.7-0.7,0.8c-0.4,0-0.7-0.2-0.7-0.6c0,0,0,0,0-0.1c0-0.4,0.3-0.7,0.7-0.8
		C608.8,625.4,609,625.7,609,626.1L609,626.1z"/>
	<path class="st23" d="M621.8,625.2c0,0.4-0.3,0.7-0.7,0.7s-0.7-0.2-0.7-0.6c0,0,0,0,0-0.1c0-0.4,0.3-0.7,0.7-0.7
		S621.8,624.8,621.8,625.2C621.8,625.1,621.8,625.2,621.8,625.2z"/>
	<path class="st21" d="M584.2,733.6l-2.8,0.2c0-35.2,0.1-70.3,0.1-105.5l2.8-0.2C584.2,663.3,584.2,698.5,584.2,733.6z"/>
	<path class="st22" d="M591.3,733.2l-2.8,0.2c0-35.2,0.1-70.4,0.1-105.6l2.8-0.2C591.3,662.7,591.3,698,591.3,733.2z"/>
	<path class="st23" d="M588.5,733.4l-4.2,0.3c0-35.2,0.1-70.4,0.1-105.5l4.3-0.3C588.5,663,588.5,698.1,588.5,733.4z"/>
	<path class="st14" d="M593.5,628.1l-12.8,1v-2.2l12.8-1V628.1z"/>
	<path class="st21" d="M583.6,628.1c0,2-1.6,3.6-3.6,3.8c-1.8,0.2-3.3-1.1-3.5-2.8c0-0.1,0-0.3,0-0.4c0-2,1.6-3.7,3.6-3.8
		c1.8-0.2,3.4,1.1,3.5,2.9C583.6,627.9,583.6,628,583.6,628.1z"/>
	<path class="st21" d="M592.6,733.9l-12.5,0.8c-0.4,0.1-0.8-0.2-0.8-0.6c0,0,0,0,0-0.1v-1.7c0-0.4,0.4-0.8,0.8-0.8l12.5-0.8
		c0.4,0,0.8,0.2,0.8,0.7l0,0v1.7C593.5,733.5,593,733.9,592.6,733.9z"/>
	<path class="st22" d="M595,733.7c-6.8,0.4-10.2,0.6-17,1.1l1.4-1.7l14.2-0.9L595,733.7z"/>
	<path class="st15" d="M596.3,735.2c-8,0.5-11.9,0.7-19.8,1.2v-1.5c7.9-0.5,11.9-0.8,19.8-1.2C596.3,734.3,596.3,734.6,596.3,735.2z
		"/>
	<path class="st24" d="M582.2,631.4"/>
	<path class="st12" d="M582.2,628.3c0,1.2-0.9,2.2-2.1,2.3c-1.1,0.1-2-0.6-2.1-1.7c0-0.1,0-0.2,0-0.3c0-1.2,0.9-2.2,2.1-2.3
		c1.1-0.1,2,0.7,2.1,1.7C582.2,628.1,582.2,628.2,582.2,628.3z"/>
	<path class="st21" d="M596.3,627.1c0,2-1.6,3.6-3.5,3.8c-1.8,0.2-3.3-1.1-3.5-2.8c0-0.1,0-0.3,0-0.4c0-2,1.6-3.6,3.5-3.8
		c1.8-0.2,3.3,1.1,3.5,2.9C596.3,626.9,596.3,627,596.3,627.1z"/>
	<path class="st12" d="M595,627.2c0,1.2-0.9,2.2-2.1,2.3c-1.1,0.1-2-0.7-2.1-1.7c0-0.1,0-0.1,0-0.2c0-1.2,0.9-2.2,2.1-2.3
		c1-0.1,2,0.7,2.1,1.7C595,627.1,595,627.2,595,627.2z"/>
	<path class="st15" d="M585.6,731.1"/>
	<path class="st15" d="M583.5,731.3"/>
	<path class="st24" d="M585,628.7"/>
	<path class="st15" d="M590.6,730.8"/>
	<path class="st24" d="M591,630.7"/>
	<path class="st15" d="M590.6,730.8"/>
	<path class="st23" d="M580.8,628.4c0,0.4-0.3,0.7-0.7,0.8c-0.4,0-0.7-0.2-0.7-0.6v-0.1c0-0.4,0.3-0.7,0.7-0.8
		C580.5,627.7,580.8,628,580.8,628.4C580.8,628.3,580.8,628.4,580.8,628.4z"/>
	<path class="st23" d="M593.5,627.4c0,0.4-0.3,0.7-0.7,0.8c-0.3,0-0.7-0.2-0.7-0.6v-0.1c0-0.4,0.3-0.7,0.7-0.8
		C593.2,626.7,593.5,626.9,593.5,627.4C593.5,627.3,593.5,627.3,593.5,627.4z"/>
	<path class="st21" d="M584.2,733.6l-2.8,0.2c0-35.2,0.1-70.3,0.1-105.5l2.8-0.2C584.2,663.3,584.2,698.5,584.2,733.6z"/>
	<path class="st22" d="M591.3,733.2l-2.8,0.2c0-35.2,0.1-70.4,0.1-105.6l2.8-0.2C591.3,662.7,591.3,698,591.3,733.2z"/>
	<path class="st23" d="M588.5,733.4l-4.2,0.3c0-35.2,0.1-70.4,0.1-105.5l4.3-0.3C588.5,663,588.5,698.1,588.5,733.4z"/>
	<path class="st14" d="M593.5,628.1l-12.8,1v-2.2l12.8-1V628.1z"/>
	<path class="st21" d="M583.6,628.1c0,2-1.6,3.6-3.6,3.8c-1.8,0.2-3.3-1.1-3.5-2.8c0-0.1,0-0.3,0-0.4c0-2,1.6-3.7,3.6-3.8
		c1.8-0.2,3.4,1.1,3.5,2.9C583.6,627.9,583.6,628,583.6,628.1z"/>
	<path class="st21" d="M592.6,733.9l-12.5,0.8c-0.4,0.1-0.8-0.2-0.8-0.6c0,0,0,0,0-0.1v-1.7c0-0.4,0.4-0.8,0.8-0.8l12.5-0.8
		c0.4,0,0.8,0.2,0.8,0.7l0,0v1.7C593.5,733.5,593,733.9,592.6,733.9z"/>
	<path class="st22" d="M595,733.7c-6.8,0.4-10.2,0.6-17,1.1l1.4-1.7l14.2-0.9L595,733.7z"/>
	<path class="st15" d="M596.3,735.2c-8,0.5-11.9,0.7-19.8,1.2v-1.5c7.9-0.5,11.9-0.8,19.8-1.2C596.3,734.3,596.3,734.6,596.3,735.2z
		"/>
	<path class="st24" d="M582.2,631.4"/>
	<path class="st12" d="M582.2,628.3c0,1.2-0.9,2.2-2.1,2.3c-1.1,0.1-2-0.6-2.1-1.7c0-0.1,0-0.2,0-0.3c0-1.2,0.9-2.2,2.1-2.3
		c1.1-0.1,2,0.7,2.1,1.7C582.2,628.1,582.2,628.2,582.2,628.3z"/>
	<path class="st21" d="M596.3,627.1c0,2-1.6,3.6-3.5,3.8c-1.8,0.2-3.3-1.1-3.5-2.8c0-0.1,0-0.3,0-0.4c0-2,1.6-3.6,3.5-3.8
		c1.8-0.2,3.3,1.1,3.5,2.9C596.3,626.9,596.3,627,596.3,627.1z"/>
	<path class="st12" d="M595,627.2c0,1.2-0.9,2.2-2.1,2.3c-1.1,0.1-2-0.7-2.1-1.7c0-0.1,0-0.1,0-0.2c0-1.2,0.9-2.2,2.1-2.3
		c1-0.1,2,0.7,2.1,1.7C595,627.1,595,627.2,595,627.2z"/>
	<path class="st15" d="M585.6,731.1"/>
	<path class="st15" d="M583.5,731.3"/>
	<path class="st24" d="M585,628.7"/>
	<path class="st15" d="M590.6,730.8"/>
	<path class="st24" d="M591,630.7"/>
	<path class="st15" d="M590.6,730.8"/>
	<path class="st23" d="M580.8,628.4c0,0.4-0.3,0.7-0.7,0.8c-0.4,0-0.7-0.2-0.7-0.6v-0.1c0-0.4,0.3-0.7,0.7-0.8
		C580.5,627.7,580.8,628,580.8,628.4C580.8,628.3,580.8,628.4,580.8,628.4z"/>
	<path class="st23" d="M593.5,627.4c0,0.4-0.3,0.7-0.7,0.8c-0.3,0-0.7-0.2-0.7-0.6v-0.1c0-0.4,0.3-0.7,0.7-0.8
		C593.2,626.7,593.5,626.9,593.5,627.4C593.5,627.3,593.5,627.3,593.5,627.4z"/>
	<path class="st21" d="M584.2,733.6l-2.8,0.2c0-35.2,0.1-70.3,0.1-105.5l2.8-0.2C584.2,663.3,584.2,698.5,584.2,733.6z"/>
	<path class="st22" d="M591.3,733.2l-2.8,0.2c0-35.2,0.1-70.4,0.1-105.6l2.8-0.2C591.3,662.7,591.3,698,591.3,733.2z"/>
	<path class="st23" d="M588.5,733.4l-4.2,0.3c0-35.2,0.1-70.4,0.1-105.5l4.3-0.3C588.5,663,588.5,698.1,588.5,733.4z"/>
	<path class="st14" d="M593.5,628.1l-12.8,1v-2.2l12.8-1V628.1z"/>
	<path class="st21" d="M583.6,628.1c0,2-1.6,3.6-3.6,3.8c-1.8,0.2-3.3-1.1-3.5-2.8c0-0.1,0-0.3,0-0.4c0-2,1.6-3.7,3.6-3.8
		c1.8-0.2,3.4,1.1,3.5,2.9C583.6,627.9,583.6,628,583.6,628.1z"/>
	<path class="st21" d="M592.6,733.9l-12.5,0.8c-0.4,0.1-0.8-0.2-0.8-0.6c0,0,0,0,0-0.1v-1.7c0-0.4,0.4-0.8,0.8-0.8l12.5-0.8
		c0.4,0,0.8,0.2,0.8,0.7l0,0v1.7C593.5,733.5,593,733.9,592.6,733.9z"/>
	<path class="st22" d="M595,733.7c-6.8,0.4-10.2,0.6-17,1.1l1.4-1.7l14.2-0.9L595,733.7z"/>
	<path class="st15" d="M596.3,735.2c-8,0.5-11.9,0.7-19.8,1.2v-1.5c7.9-0.5,11.9-0.8,19.8-1.2C596.3,734.3,596.3,734.6,596.3,735.2z
		"/>
	<path class="st24" d="M582.2,631.4"/>
	<path class="st12" d="M582.2,628.3c0,1.2-0.9,2.2-2.1,2.3c-1.1,0.1-2-0.6-2.1-1.7c0-0.1,0-0.2,0-0.3c0-1.2,0.9-2.2,2.1-2.3
		c1.1-0.1,2,0.7,2.1,1.7C582.2,628.1,582.2,628.2,582.2,628.3z"/>
	<path class="st21" d="M596.3,627.1c0,2-1.6,3.6-3.5,3.8c-1.8,0.2-3.3-1.1-3.5-2.8c0-0.1,0-0.3,0-0.4c0-2,1.6-3.6,3.5-3.8
		c1.8-0.2,3.3,1.1,3.5,2.9C596.3,626.9,596.3,627,596.3,627.1z"/>
	<path class="st12" d="M595,627.2c0,1.2-0.9,2.2-2.1,2.3c-1.1,0.1-2-0.7-2.1-1.7c0-0.1,0-0.1,0-0.2c0-1.2,0.9-2.2,2.1-2.3
		c1-0.1,2,0.7,2.1,1.7C595,627.1,595,627.2,595,627.2z"/>
	<path class="st15" d="M585.6,731.1"/>
	<path class="st15" d="M583.5,731.3"/>
	<path class="st24" d="M585,628.7"/>
	<path class="st15" d="M590.6,730.8"/>
	<path class="st24" d="M591,630.7"/>
	<path class="st15" d="M590.6,730.8"/>
	<path class="st23" d="M580.8,628.4c0,0.4-0.3,0.7-0.7,0.8c-0.4,0-0.7-0.2-0.7-0.6v-0.1c0-0.4,0.3-0.7,0.7-0.8
		C580.5,627.7,580.8,628,580.8,628.4C580.8,628.3,580.8,628.4,580.8,628.4z"/>
	<path class="st23" d="M593.5,627.4c0,0.4-0.3,0.7-0.7,0.8c-0.3,0-0.7-0.2-0.7-0.6v-0.1c0-0.4,0.3-0.7,0.7-0.8
		C593.2,626.7,593.5,626.9,593.5,627.4C593.5,627.3,593.5,627.3,593.5,627.4z"/>
	<path class="st21" d="M584.2,733.6l-2.8,0.2c0-35.2,0.1-70.3,0.1-105.5l2.8-0.2C584.2,663.3,584.2,698.5,584.2,733.6z"/>
	<path class="st22" d="M591.3,733.2l-2.8,0.2c0-35.2,0.1-70.4,0.1-105.6l2.8-0.2C591.3,662.7,591.3,698,591.3,733.2z"/>
	<path class="st23" d="M588.5,733.4l-4.2,0.3c0-35.2,0.1-70.4,0.1-105.5l4.3-0.3C588.5,663,588.5,698.1,588.5,733.4z"/>
	<path class="st14" d="M593.5,628.1l-12.8,1v-2.2l12.8-1V628.1z"/>
	<path class="st21" d="M583.6,628.1c0,2-1.6,3.6-3.6,3.8c-1.8,0.2-3.3-1.1-3.5-2.8c0-0.1,0-0.3,0-0.4c0-2,1.6-3.7,3.6-3.8
		c1.8-0.2,3.4,1.1,3.5,2.9C583.6,627.9,583.6,628,583.6,628.1z"/>
	<path class="st21" d="M592.6,733.9l-12.5,0.8c-0.4,0.1-0.8-0.2-0.8-0.6c0,0,0,0,0-0.1v-1.7c0-0.4,0.4-0.8,0.8-0.8l12.5-0.8
		c0.4,0,0.8,0.2,0.8,0.7l0,0v1.7C593.5,733.5,593,733.9,592.6,733.9z"/>
	<path class="st22" d="M595,733.7c-6.8,0.4-10.2,0.6-17,1.1l1.4-1.7l14.2-0.9L595,733.7z"/>
	<path class="st15" d="M596.3,735.2c-8,0.5-11.9,0.7-19.8,1.2v-1.5c7.9-0.5,11.9-0.8,19.8-1.2C596.3,734.3,596.3,734.6,596.3,735.2z
		"/>
	<path class="st24" d="M582.2,631.4"/>
	<path class="st12" d="M582.2,628.3c0,1.2-0.9,2.2-2.1,2.3c-1.1,0.1-2-0.6-2.1-1.7c0-0.1,0-0.2,0-0.3c0-1.2,0.9-2.2,2.1-2.3
		c1.1-0.1,2,0.7,2.1,1.7C582.2,628.1,582.2,628.2,582.2,628.3z"/>
	<path class="st21" d="M596.3,627.1c0,2-1.6,3.6-3.5,3.8c-1.8,0.2-3.3-1.1-3.5-2.8c0-0.1,0-0.3,0-0.4c0-2,1.6-3.6,3.5-3.8
		c1.8-0.2,3.3,1.1,3.5,2.9C596.3,626.9,596.3,627,596.3,627.1z"/>
	<path class="st12" d="M595,627.2c0,1.2-0.9,2.2-2.1,2.3c-1.1,0.1-2-0.7-2.1-1.7c0-0.1,0-0.1,0-0.2c0-1.2,0.9-2.2,2.1-2.3
		c1-0.1,2,0.7,2.1,1.7C595,627.1,595,627.2,595,627.2z"/>
	<path class="st15" d="M585.6,731.1"/>
	<path class="st15" d="M583.5,731.3"/>
	<path class="st24" d="M585,628.7"/>
	<path class="st15" d="M590.6,730.8"/>
	<path class="st24" d="M591,630.7"/>
	<path class="st15" d="M590.6,730.8"/>
	<path class="st23" d="M580.8,628.4c0,0.4-0.3,0.7-0.7,0.8c-0.4,0-0.7-0.2-0.7-0.6v-0.1c0-0.4,0.3-0.7,0.7-0.8
		C580.5,627.7,580.8,628,580.8,628.4C580.8,628.3,580.8,628.4,580.8,628.4z"/>
	<path class="st23" d="M593.5,627.4c0,0.4-0.3,0.7-0.7,0.8c-0.3,0-0.7-0.2-0.7-0.6v-0.1c0-0.4,0.3-0.7,0.7-0.8
		C593.2,626.7,593.5,626.9,593.5,627.4C593.5,627.3,593.5,627.3,593.5,627.4z"/>
	<path class="st21" d="M695.6,730.1h-2.8c0-35.8,0-71.7,0-107.5h2.8C695.8,658.4,695.6,694.2,695.6,730.1z"/>
	<path class="st22" d="M702.8,730H700c0-35.9,0.1-71.7,0-107.6h2.8C702.8,658.3,702.8,694.2,702.8,730z"/>
	<path class="st23" d="M700,730.1h-4.2c0-35.8,0.1-71.7,0-107.5h4.2C700,658.3,700,694.2,700,730.1z"/>
	<path class="st14" d="M705,623.1c-5.1,0-7.7,0.1-12.8,0.1v-2c5.1-0.1,7.6-0.1,12.7-0.1C705,621.9,705,622.3,705,623.1z"/>
	<path class="st21" d="M695,622.5c0,1.9-1.6,3.5-3.5,3.5c-1.9,0.1-3.5-1.4-3.5-3.2v-0.1c0-1.9,1.6-3.5,3.5-3.5
		C693.2,619.1,694.8,620.6,695,622.5L695,622.5z"/>
	<path class="st21" d="M704,730.8h-12.5c-0.4,0-0.8-0.3-0.8-0.7l0,0v-1.7c0-0.4,0.4-0.8,0.8-0.8l0,0H704c0.4,0,0.8,0.3,0.8,0.8v1.7
		C704.8,730.5,704.5,730.8,704,730.8z"/>
	<path class="st22" d="M706.2,730.8c-6.8,0-10.2,0-17,0l1.4-1.6c5.7,0,8.5,0,14.2,0C705.5,729.9,705.8,730.2,706.2,730.8z"/>
	<path class="st15" d="M707.6,732.4c-7.9,0-11.9,0-19.8,0v-1.5c7.9,0,11.9,0,19.8,0V732.4z"/>
	<path class="st24" d="M693.5,625.6"/>
	<path class="st12" d="M693.5,622.5c0,1.2-1,2.1-2.1,2.1c-1.1,0.1-2.1-0.8-2.1-1.9v-0.1c0-1.2,1-2.1,2.1-2.1
		S693.5,621.4,693.5,622.5L693.5,622.5z"/>
	<path class="st21" d="M707.8,622.4c0,1.9-1.6,3.4-3.5,3.4c-1.9,0.1-3.5-1.4-3.5-3.3l0,0c0-2,1.6-3.6,3.5-3.6
		S707.8,620.4,707.8,622.4L707.8,622.4z"/>
	<path class="st12" d="M706.3,622.4c0,1.1-1,2-2.1,2s-2.1-0.9-2.1-2s1-2.1,2.1-2.1S706.2,621.2,706.3,622.4L706.3,622.4z"/>
	<path class="st15" d="M697,727.7"/>
	<path class="st15" d="M695,727.7"/>
	<path class="st24" d="M696.3,623.2"/>
	<path class="st15" d="M702,727.6"/>
	<path class="st24" d="M702.2,625.4"/>
	<path class="st15" d="M702,727.6"/>
	<path class="st23" d="M692.1,622.5c0,0.4-0.3,0.7-0.7,0.7l0,0c-0.4,0-0.7-0.3-0.7-0.6l0,0c0-0.4,0.3-0.7,0.7-0.7
		S692.1,622.2,692.1,622.5L692.1,622.5z"/>
	<path class="st23" d="M705,622.4c0,0.4-0.3,0.7-0.7,0.7s-0.7-0.3-0.7-0.7s0.3-0.7,0.7-0.7l0,0C704.6,621.7,705,622,705,622.4
		L705,622.4z"/>
	<path class="st21" d="M791,730.4l-2.8-0.1c0-35.6,0-71.2,0.1-106.8l2.8,0.1C791,659.3,791,694.8,791,730.4z"/>
	<path class="st22" d="M798,730.6l-2.8-0.1c0-35.5,0-71.1,0-106.6l2.9,0.2C798,659.6,798,695.1,798,730.6z"/>
	<path class="st23" d="M795.2,730.5l-4.2-0.1c0-35.6,0-71.1,0-106.7l4.2,0.2C795.2,659.4,795.1,695,795.2,730.5z"/>
	<path class="st14" d="M800.2,624.9c-5.1-0.3-7.7-0.4-12.8-0.6v-2.1c5.1,0.2,7.6,0.4,12.8,0.6V624.9z"/>
	<path class="st21" d="M790.3,623.7c0,1.8-1.5,3.3-3.3,3.3c-0.1,0-0.1,0-0.2,0c-1.9-0.1-3.5-1.7-3.5-3.6c0-1.8,1.5-3.3,3.3-3.3
		c0.1,0,0.1,0,0.2,0C788.8,620.1,790.2,621.7,790.3,623.7z"/>
	<path class="st21" d="M799.2,731.4c-5-0.2-7.5-0.2-12.5-0.4c-0.4,0-0.8-0.3-0.8-0.8v-1.7c0-0.4,0.4-0.7,0.8-0.7l0,0
		c5,0.1,7.5,0.2,12.5,0.4c0.4,0,0.8,0.4,0.8,0.8c0,0.7,0,1,0,1.7C800,731.1,799.8,731.4,799.2,731.4
		C799.3,731.4,799.3,731.4,799.2,731.4z"/>
	<path class="st22" d="M801.5,731.5c-6.7-0.2-10.1-0.3-17-0.5c0.6-0.6,0.9-0.9,1.4-1.5c5.7,0.1,8.5,0.2,14.1,0.4L801.5,731.5z"/>
	<path class="st15" d="M803,733.1c-7.9-0.3-11.8-0.4-19.8-0.6v-1.6c8,0.2,11.9,0.3,19.8,0.6V733.1z"/>
	<path class="st24" d="M789,626.7"/>
	<path class="st12" d="M789,623.6c0,1.1-0.9,2-2,2h-0.1c-1.2,0-2.1-1-2.1-2.2c0-1.1,0.9-2,2-2h0.1C788,621.5,789,622.4,789,623.6z"
		/>
	<path class="st21" d="M803.1,624.3c0,1.8-1.5,3.3-3.3,3.3c-0.1,0-0.2,0-0.3,0c-2-0.1-3.6-1.7-3.6-3.7c0-1.8,1.5-3.3,3.3-3.3
		c0.1,0,0.2,0,0.2,0C801.5,620.7,803,622.3,803.1,624.3z"/>
	<path class="st12" d="M801.6,624.2c0,1.1-0.9,2-2,2h-0.1c-1.2-0.1-2.1-1-2.1-2.2c0-1.1,0.9-2,2-2h0.1
		C800.8,622.1,801.6,623.1,801.6,624.2z"/>
	<path class="st15" d="M792.5,728"/>
	<path class="st15" d="M790.2,728"/>
	<path class="st24" d="M791.8,624.4"/>
	<path class="st15" d="M797.3,728.2"/>
	<path class="st24" d="M797.5,627.1"/>
	<path class="st15" d="M797.3,728.2"/>
	<path class="st23" d="M787.5,623.5c0,0.4-0.3,0.7-0.7,0.7l0,0c-0.4,0-0.7-0.3-0.7-0.7s0.3-0.7,0.7-0.7l0,0
		C787.1,622.8,787.5,623.1,787.5,623.5z"/>
	<path class="st23" d="M800.2,624.2c0,0.4-0.3,0.7-0.7,0.7l0,0c-0.4,0-0.7-0.3-0.7-0.7s0.3-0.7,0.7-0.7c0,0,0,0,0.1,0
		C800,623.5,800.2,623.8,800.2,624.2z"/>
	<path class="st21" d="M791,730.4l-2.8-0.1c0-35.6,0-71.2,0.1-106.8l2.8,0.1C791,659.3,791,694.8,791,730.4z"/>
	<path class="st22" d="M798,730.6l-2.8-0.1c0-35.5,0-71.1,0-106.6l2.9,0.2C798,659.6,798,695.1,798,730.6z"/>
	<path class="st23" d="M795.2,730.5l-4.2-0.1c0-35.6,0-71.1,0-106.7l4.2,0.2C795.2,659.4,795.1,695,795.2,730.5z"/>
	<path class="st14" d="M800.2,624.9c-5.1-0.3-7.7-0.4-12.8-0.6v-2.1c5.1,0.2,7.6,0.4,12.8,0.6V624.9z"/>
	<path class="st21" d="M790.3,623.7c0,1.8-1.5,3.3-3.3,3.3c-0.1,0-0.1,0-0.2,0c-1.9-0.1-3.5-1.7-3.5-3.6c0-1.8,1.5-3.3,3.3-3.3
		c0.1,0,0.1,0,0.2,0C788.8,620.1,790.2,621.7,790.3,623.7z"/>
	<path class="st21" d="M799.2,731.4c-5-0.2-7.5-0.2-12.5-0.4c-0.4,0-0.8-0.3-0.8-0.8v-1.7c0-0.4,0.4-0.7,0.8-0.7l0,0
		c5,0.1,7.5,0.2,12.5,0.4c0.4,0,0.8,0.4,0.8,0.8c0,0.7,0,1,0,1.7C800,731.1,799.8,731.4,799.2,731.4
		C799.3,731.4,799.3,731.4,799.2,731.4z"/>
	<path class="st22" d="M801.5,731.5c-6.7-0.2-10.1-0.3-17-0.5c0.6-0.6,0.9-0.9,1.4-1.5c5.7,0.1,8.5,0.2,14.1,0.4L801.5,731.5z"/>
	<path class="st15" d="M803,733.1c-7.9-0.3-11.8-0.4-19.8-0.6v-1.6c8,0.2,11.9,0.3,19.8,0.6V733.1z"/>
	<path class="st24" d="M789,626.7"/>
	<path class="st12" d="M789,623.6c0,1.1-0.9,2-2,2h-0.1c-1.2,0-2.1-1-2.1-2.2c0-1.1,0.9-2,2-2h0.1C788,621.5,789,622.4,789,623.6z"
		/>
	<path class="st21" d="M803.1,624.3c0,1.8-1.5,3.3-3.3,3.3c-0.1,0-0.2,0-0.3,0c-2-0.1-3.6-1.7-3.6-3.7c0-1.8,1.5-3.3,3.3-3.3
		c0.1,0,0.2,0,0.2,0C801.5,620.7,803,622.3,803.1,624.3z"/>
	<path class="st12" d="M801.6,624.2c0,1.1-0.9,2-2,2h-0.1c-1.2-0.1-2.1-1-2.1-2.2c0-1.1,0.9-2,2-2h0.1
		C800.8,622.1,801.6,623.1,801.6,624.2z"/>
	<path class="st15" d="M792.5,728"/>
	<path class="st15" d="M790.2,728"/>
	<path class="st24" d="M791.8,624.4"/>
	<path class="st15" d="M797.3,728.2"/>
	<path class="st24" d="M797.5,627.1"/>
	<path class="st15" d="M797.3,728.2"/>
	<path class="st23" d="M787.5,623.5c0,0.4-0.3,0.7-0.7,0.7l0,0c-0.4,0-0.7-0.3-0.7-0.7s0.3-0.7,0.7-0.7l0,0
		C787.1,622.8,787.5,623.1,787.5,623.5z"/>
	<path class="st23" d="M800.2,624.2c0,0.4-0.3,0.7-0.7,0.7l0,0c-0.4,0-0.7-0.3-0.7-0.7s0.3-0.7,0.7-0.7c0,0,0,0,0.1,0
		C800,623.5,800.2,623.8,800.2,624.2z"/>
	<path class="st21" d="M791,730.4l-2.8-0.1c0-35.6,0-71.2,0.1-106.8l2.8,0.1C791,659.3,791,694.8,791,730.4z"/>
	<path class="st22" d="M798,730.6l-2.8-0.1c0-35.5,0-71.1,0-106.6l2.9,0.2C798,659.6,798,695.1,798,730.6z"/>
	<path class="st23" d="M795.2,730.5l-4.2-0.1c0-35.6,0-71.1,0-106.7l4.2,0.2C795.2,659.4,795.1,695,795.2,730.5z"/>
	<path class="st14" d="M800.2,624.9c-5.1-0.3-7.7-0.4-12.8-0.6v-2.1c5.1,0.2,7.6,0.4,12.8,0.6V624.9z"/>
	<path class="st21" d="M790.3,623.7c0,1.8-1.5,3.3-3.3,3.3c-0.1,0-0.1,0-0.2,0c-1.9-0.1-3.5-1.7-3.5-3.6c0-1.8,1.5-3.3,3.3-3.3
		c0.1,0,0.1,0,0.2,0C788.8,620.1,790.2,621.7,790.3,623.7z"/>
	<path class="st21" d="M799.2,731.4c-5-0.2-7.5-0.2-12.5-0.4c-0.4,0-0.8-0.3-0.8-0.8v-1.7c0-0.4,0.4-0.7,0.8-0.7l0,0
		c5,0.1,7.5,0.2,12.5,0.4c0.4,0,0.8,0.4,0.8,0.8c0,0.7,0,1,0,1.7C800,731.1,799.8,731.4,799.2,731.4
		C799.3,731.4,799.3,731.4,799.2,731.4z"/>
	<path class="st22" d="M801.5,731.5c-6.7-0.2-10.1-0.3-17-0.5c0.6-0.6,0.9-0.9,1.4-1.5c5.7,0.1,8.5,0.2,14.1,0.4L801.5,731.5z"/>
	<path class="st15" d="M803,733.1c-7.9-0.3-11.8-0.4-19.8-0.6v-1.6c8,0.2,11.9,0.3,19.8,0.6V733.1z"/>
	<path class="st24" d="M789,626.7"/>
	<path class="st12" d="M789,623.6c0,1.1-0.9,2-2,2h-0.1c-1.2,0-2.1-1-2.1-2.2c0-1.1,0.9-2,2-2h0.1C788,621.5,789,622.4,789,623.6z"
		/>
	<path class="st21" d="M803.1,624.3c0,1.8-1.5,3.3-3.3,3.3c-0.1,0-0.2,0-0.3,0c-2-0.1-3.6-1.7-3.6-3.7c0-1.8,1.5-3.3,3.3-3.3
		c0.1,0,0.2,0,0.2,0C801.5,620.7,803,622.3,803.1,624.3z"/>
	<path class="st12" d="M801.6,624.2c0,1.1-0.9,2-2,2h-0.1c-1.2-0.1-2.1-1-2.1-2.2c0-1.1,0.9-2,2-2h0.1
		C800.8,622.1,801.6,623.1,801.6,624.2z"/>
	<path class="st15" d="M792.5,728"/>
	<path class="st15" d="M790.2,728"/>
	<path class="st24" d="M791.8,624.4"/>
	<path class="st15" d="M797.3,728.2"/>
	<path class="st24" d="M797.5,627.1"/>
	<path class="st15" d="M797.3,728.2"/>
	<path class="st23" d="M787.5,623.5c0,0.4-0.3,0.7-0.7,0.7l0,0c-0.4,0-0.7-0.3-0.7-0.7s0.3-0.7,0.7-0.7l0,0
		C787.1,622.8,787.5,623.1,787.5,623.5z"/>
	<path class="st23" d="M800.2,624.2c0,0.4-0.3,0.7-0.7,0.7l0,0c-0.4,0-0.7-0.3-0.7-0.7s0.3-0.7,0.7-0.7c0,0,0,0,0.1,0
		C800,623.5,800.2,623.8,800.2,624.2z"/>
	<path class="st21" d="M791,730.4l-2.8-0.1c0-35.6,0-71.2,0.1-106.8l2.8,0.1C791,659.3,791,694.8,791,730.4z"/>
	<path class="st22" d="M798,730.6l-2.8-0.1c0-35.5,0-71.1,0-106.6l2.9,0.2C798,659.6,798,695.1,798,730.6z"/>
	<path class="st23" d="M795.2,730.5l-4.2-0.1c0-35.6,0-71.1,0-106.7l4.2,0.2C795.2,659.4,795.1,695,795.2,730.5z"/>
	<path class="st14" d="M800.2,624.9c-5.1-0.3-7.7-0.4-12.8-0.6v-2.1c5.1,0.2,7.6,0.4,12.8,0.6V624.9z"/>
	<path class="st21" d="M790.3,623.7c0,1.8-1.5,3.3-3.3,3.3c-0.1,0-0.1,0-0.2,0c-1.9-0.1-3.5-1.7-3.5-3.6c0-1.8,1.5-3.3,3.3-3.3
		c0.1,0,0.1,0,0.2,0C788.8,620.1,790.2,621.7,790.3,623.7z"/>
	<path class="st21" d="M799.2,731.4c-5-0.2-7.5-0.2-12.5-0.4c-0.4,0-0.8-0.3-0.8-0.8v-1.7c0-0.4,0.4-0.7,0.8-0.7l0,0
		c5,0.1,7.5,0.2,12.5,0.4c0.4,0,0.8,0.4,0.8,0.8c0,0.7,0,1,0,1.7C800,731.1,799.8,731.4,799.2,731.4
		C799.3,731.4,799.3,731.4,799.2,731.4z"/>
	<path class="st22" d="M801.5,731.5c-6.7-0.2-10.1-0.3-17-0.5c0.6-0.6,0.9-0.9,1.4-1.5c5.7,0.1,8.5,0.2,14.1,0.4L801.5,731.5z"/>
	<path class="st15" d="M803,733.1c-7.9-0.3-11.8-0.4-19.8-0.6v-1.6c8,0.2,11.9,0.3,19.8,0.6V733.1z"/>
	<path class="st24" d="M789,626.7"/>
	<path class="st12" d="M789,623.6c0,1.1-0.9,2-2,2h-0.1c-1.2,0-2.1-1-2.1-2.2c0-1.1,0.9-2,2-2h0.1C788,621.5,789,622.4,789,623.6z"
		/>
	<path class="st21" d="M803.1,624.3c0,1.8-1.5,3.3-3.3,3.3c-0.1,0-0.2,0-0.3,0c-2-0.1-3.6-1.7-3.6-3.7c0-1.8,1.5-3.3,3.3-3.3
		c0.1,0,0.2,0,0.2,0C801.5,620.7,803,622.3,803.1,624.3z"/>
	<path class="st12" d="M801.6,624.2c0,1.1-0.9,2-2,2h-0.1c-1.2-0.1-2.1-1-2.1-2.2c0-1.1,0.9-2,2-2h0.1
		C800.8,622.1,801.6,623.1,801.6,624.2z"/>
	<path class="st15" d="M792.5,728"/>
	<path class="st15" d="M790.2,728"/>
	<path class="st24" d="M791.8,624.4"/>
	<path class="st15" d="M797.3,728.2"/>
	<path class="st24" d="M797.5,627.1"/>
	<path class="st15" d="M797.3,728.2"/>
	<path class="st23" d="M787.5,623.5c0,0.4-0.3,0.7-0.7,0.7l0,0c-0.4,0-0.7-0.3-0.7-0.7s0.3-0.7,0.7-0.7l0,0
		C787.1,622.8,787.5,623.1,787.5,623.5z"/>
	<path class="st23" d="M800.2,624.2c0,0.4-0.3,0.7-0.7,0.7l0,0c-0.4,0-0.7-0.3-0.7-0.7s0.3-0.7,0.7-0.7c0,0,0,0,0.1,0
		C800,623.5,800.2,623.8,800.2,624.2z"/>
	<path class="st21" d="M819.1,731.5l-2.8-0.1c0.1-35.4,0.1-70.8,0.2-106.2l2.8,0.2C819.2,660.7,819.2,696.1,819.1,731.5z"/>
	<path class="st22" d="M826.3,731.9l-2.9-0.2c0-35.3,0-70.7,0.2-106l2.8,0.2C826.2,661.2,826.3,696.5,826.3,731.9z"/>
	<path class="st23" d="M823.5,731.7l-4.3-0.2c0.1-35.4,0.1-70.7,0.2-106.1l4.2,0.3C823.5,661,823.5,696.4,823.5,731.7z"/>
	<path class="st14" d="M828.5,626.8c-5-0.4-7.6-0.6-12.7-1c0-0.8,0-1.3,0-2.1c5.1,0.3,7.6,0.5,12.7,1V626.8z"/>
	<path class="st21" d="M818.6,625.3c0,1.8-1.4,3.2-3.2,3.2c-0.1,0-0.2,0-0.3,0c-2-0.1-3.5-1.7-3.5-3.7c0-1.8,1.5-3.3,3.3-3.3
		c0.1,0,0.2,0,0.3,0C817.1,621.7,818.6,623.3,818.6,625.3z"/>
	<path class="st21" d="M827.6,732.7c-5.1-0.3-7.6-0.4-12.6-0.7c-0.4,0-0.8-0.3-0.8-0.8c0-0.7,0-1,0-1.7c0-0.4,0.4-0.7,0.8-0.7l0,0
		c5,0.2,7.5,0.4,12.6,0.7c0.4,0,0.8,0.4,0.8,0.8v1.7C828.5,732.4,828,732.7,827.6,732.7L827.6,732.7z"/>
	<path class="st22" d="M830,732.9c-6.9-0.4-10.3-0.6-17.1-0.9c0.6-0.6,0.9-0.9,1.4-1.5c5.7,0.3,8.5,0.4,14.3,0.8L830,732.9z"/>
	<path class="st15" d="M831.3,734.5c-8-0.5-12.1-0.7-20-1.1c0-0.6,0-0.9,0-1.5c7.9,0.3,11.9,0.6,20,1.1V734.5z"/>
	<path class="st24" d="M817.2,628.3"/>
	<path class="st12" d="M817.2,625.2c0,1.1-1,2-2.1,1.9H815c-1.2-0.1-2.1-1.1-2.1-2.3c0-1.1,0.9-2,2-2h0.1
		C816.3,623,817.2,624,817.2,625.2z"/>
	<path class="st21" d="M831.3,626.3c0,1.8-1.4,3.2-3.2,3.2c-0.1,0-0.2,0-0.3,0c-2-0.2-3.5-1.8-3.5-3.8c0-1.8,1.4-3.2,3.2-3.3
		c0.1,0,0.2,0,0.3,0C829.8,622.7,831.2,624.3,831.3,626.3z"/>
	<path class="st12" d="M830,626.2c0,1.1-0.8,1.9-1.9,1.9c-0.1,0-0.1,0-0.2,0c-1.2-0.1-2.1-1.1-2.1-2.2c0-1.1,0.8-1.9,1.9-1.9
		c0.1,0,0.1,0,0.2,0C829,624,830,625,830,626.2z"/>
	<path class="st15" d="M820.6,729.2"/>
	<path class="st15" d="M818.5,729.1"/>
	<path class="st24" d="M820,626.1"/>
	<path class="st15" d="M825.6,729.4"/>
	<path class="st24" d="M825.8,629"/>
	<path class="st15" d="M825.6,729.4"/>
	<path class="st23" d="M815.8,625.1c0,0.4-0.3,0.7-0.6,0.7c0,0,0,0-0.1,0c-0.4,0-0.7-0.3-0.7-0.7s0.3-0.7,0.6-0.7c0,0,0,0,0.1,0
		C815.5,624.4,815.8,624.7,815.8,625.1z"/>
	<path class="st23" d="M828.5,626.1c0,0.4-0.3,0.6-0.6,0.6c0,0,0,0-0.1,0c-0.4,0-0.7-0.4-0.7-0.8c0-0.4,0.3-0.6,0.6-0.7
		c0,0,0,0,0.1,0C828.2,625.3,828.5,625.7,828.5,626.1z"/>
	<path class="st21" d="M762.6,729.9h-2.8c0-35.8,0-71.5,0-107.3l2.8,0.1C762.6,658.4,762.6,694.1,762.6,729.9z"/>
	<path class="st22" d="M769.6,730h-2.8c0.1-35.7,0.1-71.4,0.1-107.1l2.8,0.1C769.8,658.6,769.8,694.3,769.6,730z"/>
	<path class="st23" d="M766.8,729.9h-4.2c0-35.7,0.1-71.5,0.1-107.2l4.3,0.1C767,658.5,767,694.2,766.8,729.9z"/>
	<path class="st14" d="M772,623.6c-5.1-0.2-7.7-0.2-12.8-0.4v-2.1c5.1,0.1,7.7,0.2,12.8,0.4V623.6z"/>
	<path class="st21" d="M762,622.6c0,1.9-1.6,3.4-3.4,3.3h-0.1c-1.9,0-3.5-1.6-3.5-3.5s1.6-3.4,3.4-3.4h0.1
		C760.3,619.1,761.8,620.7,762,622.6z"/>
	<path class="st21" d="M771,730.8c-5-0.1-7.5-0.1-12.5-0.1c-0.4,0-0.8-0.3-0.8-0.8l0,0v-1.7c0-0.4,0.4-0.8,0.8-0.8l0,0
		c5,0,7.5,0.1,12.5,0.2c0.4,0,0.8,0.3,0.8,0.8v1.7C771.8,730.5,771.3,730.8,771,730.8z"/>
	<path class="st22" d="M773.2,730.8c-6.8-0.1-10.2-0.1-17-0.2l1.4-1.6c5.7,0,8.5,0.1,14.1,0.2C772.3,729.8,772.6,730.2,773.2,730.8z
		"/>
	<path class="st15" d="M774.6,732.4c-7.9-0.1-11.9-0.2-19.8-0.2v-1.6c7.9,0,11.9,0.1,19.8,0.2V732.4z"/>
	<path class="st24" d="M760.5,625.6"/>
	<path class="st12" d="M760.5,622.6c0,1.1-0.9,2-2,2h-0.1c-1.2,0-2.1-0.9-2.1-2.1c0-1.1,0.9-2,2-2h0.1
		C759.5,620.5,760.5,621.4,760.5,622.6z"/>
	<path class="st21" d="M774.8,623c0,1.9-1.5,3.3-3.4,3.3c-0.1,0-0.1,0-0.2,0c-1.9,0-3.5-1.6-3.5-3.5s1.6-3.4,3.4-3.4h0.1
		C773.1,619.5,774.6,621.1,774.8,623z"/>
	<path class="st12" d="M773.3,623c0,1.1-0.9,2-2,2h-0.1c-1.2,0-2.1-1-2.1-2.1s0.9-2,2-2h0.1C772.3,620.9,773.2,621.8,773.3,623z"/>
	<path class="st15" d="M764,727.5"/>
	<path class="st15" d="M762,727.5"/>
	<path class="st24" d="M763.3,623.4"/>
	<path class="st15" d="M769,727.6"/>
	<path class="st24" d="M769.2,625.9"/>
	<path class="st15" d="M769,727.6"/>
	<path class="st23" d="M759.1,622.6c0,0.4-0.3,0.7-0.7,0.7l0,0c-0.4,0-0.7-0.3-0.7-0.7s0.3-0.7,0.7-0.7l0,0
		C758.8,621.9,759.1,622.2,759.1,622.6z"/>
	<path class="st23" d="M772,622.9c0,0.4-0.3,0.7-0.7,0.7l0,0c-0.4,0-0.7-0.3-0.7-0.7s0.3-0.7,0.7-0.7c0,0,0,0,0.1,0
		C771.6,622.2,772,622.5,772,622.9z"/>
	<path class="st21" d="M762.6,729.9h-2.8c0-35.8,0-71.5,0-107.3l2.8,0.1C762.6,658.4,762.6,694.1,762.6,729.9z"/>
	<path class="st22" d="M769.6,730h-2.8c0.1-35.7,0.1-71.4,0.1-107.1l2.8,0.1C769.8,658.6,769.8,694.3,769.6,730z"/>
	<path class="st23" d="M766.8,729.9h-4.2c0-35.7,0.1-71.5,0.1-107.2l4.3,0.1C767,658.5,767,694.2,766.8,729.9z"/>
	<path class="st14" d="M772,623.6c-5.1-0.2-7.7-0.2-12.8-0.4v-2.1c5.1,0.1,7.7,0.2,12.8,0.4V623.6z"/>
	<path class="st21" d="M762,622.6c0,1.9-1.6,3.4-3.4,3.3h-0.1c-1.9,0-3.5-1.6-3.5-3.5s1.6-3.4,3.4-3.4h0.1
		C760.3,619.1,761.8,620.7,762,622.6z"/>
	<path class="st21" d="M771,730.8c-5-0.1-7.5-0.1-12.5-0.1c-0.4,0-0.8-0.3-0.8-0.8l0,0v-1.7c0-0.4,0.4-0.8,0.8-0.8l0,0
		c5,0,7.5,0.1,12.5,0.2c0.4,0,0.8,0.3,0.8,0.8v1.7C771.8,730.5,771.3,730.8,771,730.8z"/>
	<path class="st22" d="M773.2,730.8c-6.8-0.1-10.2-0.1-17-0.2l1.4-1.6c5.7,0,8.5,0.1,14.1,0.2C772.3,729.8,772.6,730.2,773.2,730.8z
		"/>
	<path class="st15" d="M774.6,732.4c-7.9-0.1-11.9-0.2-19.8-0.2v-1.6c7.9,0,11.9,0.1,19.8,0.2V732.4z"/>
	<path class="st24" d="M760.5,625.6"/>
	<path class="st12" d="M760.5,622.6c0,1.1-0.9,2-2,2h-0.1c-1.2,0-2.1-0.9-2.1-2.1c0-1.1,0.9-2,2-2h0.1
		C759.5,620.5,760.5,621.4,760.5,622.6z"/>
	<path class="st21" d="M774.8,623c0,1.9-1.5,3.3-3.4,3.3c-0.1,0-0.1,0-0.2,0c-1.9,0-3.5-1.6-3.5-3.5s1.6-3.4,3.4-3.4h0.1
		C773.1,619.5,774.6,621.1,774.8,623z"/>
	<path class="st12" d="M773.3,623c0,1.1-0.9,2-2,2h-0.1c-1.2,0-2.1-1-2.1-2.1s0.9-2,2-2h0.1C772.3,620.9,773.2,621.8,773.3,623z"/>
	<path class="st15" d="M764,727.5"/>
	<path class="st15" d="M762,727.5"/>
	<path class="st24" d="M763.3,623.4"/>
	<path class="st15" d="M769,727.6"/>
	<path class="st24" d="M769.2,625.9"/>
	<path class="st15" d="M769,727.6"/>
	<path class="st23" d="M759.1,622.6c0,0.4-0.3,0.7-0.7,0.7l0,0c-0.4,0-0.7-0.3-0.7-0.7s0.3-0.7,0.7-0.7l0,0
		C758.8,621.9,759.1,622.2,759.1,622.6z"/>
	<path class="st23" d="M772,622.9c0,0.4-0.3,0.7-0.7,0.7l0,0c-0.4,0-0.7-0.3-0.7-0.7s0.3-0.7,0.7-0.7c0,0,0,0,0.1,0
		C771.6,622.2,772,622.5,772,622.9z"/>
	<path class="st21" d="M762.6,729.9h-2.8c0-35.8,0-71.5,0-107.3l2.8,0.1C762.6,658.4,762.6,694.1,762.6,729.9z"/>
	<path class="st22" d="M769.6,730h-2.8c0.1-35.7,0.1-71.4,0.1-107.1l2.8,0.1C769.8,658.6,769.8,694.3,769.6,730z"/>
	<path class="st23" d="M766.8,729.9h-4.2c0-35.7,0.1-71.5,0.1-107.2l4.3,0.1C767,658.5,767,694.2,766.8,729.9z"/>
	<path class="st14" d="M772,623.6c-5.1-0.2-7.7-0.2-12.8-0.4v-2.1c5.1,0.1,7.7,0.2,12.8,0.4V623.6z"/>
	<path class="st21" d="M762,622.6c0,1.9-1.6,3.4-3.4,3.3h-0.1c-1.9,0-3.5-1.6-3.5-3.5s1.6-3.4,3.4-3.4h0.1
		C760.3,619.1,761.8,620.7,762,622.6z"/>
	<path class="st21" d="M771,730.8c-5-0.1-7.5-0.1-12.5-0.1c-0.4,0-0.8-0.3-0.8-0.8l0,0v-1.7c0-0.4,0.4-0.8,0.8-0.8l0,0
		c5,0,7.5,0.1,12.5,0.2c0.4,0,0.8,0.3,0.8,0.8v1.7C771.8,730.5,771.3,730.8,771,730.8z"/>
	<path class="st22" d="M773.2,730.8c-6.8-0.1-10.2-0.1-17-0.2l1.4-1.6c5.7,0,8.5,0.1,14.1,0.2C772.3,729.8,772.6,730.2,773.2,730.8z
		"/>
	<path class="st15" d="M774.6,732.4c-7.9-0.1-11.9-0.2-19.8-0.2v-1.6c7.9,0,11.9,0.1,19.8,0.2V732.4z"/>
	<path class="st24" d="M760.5,625.6"/>
	<path class="st12" d="M760.5,622.6c0,1.1-0.9,2-2,2h-0.1c-1.2,0-2.1-0.9-2.1-2.1c0-1.1,0.9-2,2-2h0.1
		C759.5,620.5,760.5,621.4,760.5,622.6z"/>
	<path class="st21" d="M774.8,623c0,1.9-1.5,3.3-3.4,3.3c-0.1,0-0.1,0-0.2,0c-1.9,0-3.5-1.6-3.5-3.5s1.6-3.4,3.4-3.4h0.1
		C773.1,619.5,774.6,621.1,774.8,623z"/>
	<path class="st12" d="M773.3,623c0,1.1-0.9,2-2,2h-0.1c-1.2,0-2.1-1-2.1-2.1s0.9-2,2-2h0.1C772.3,620.9,773.2,621.8,773.3,623z"/>
	<path class="st15" d="M764,727.5"/>
	<path class="st15" d="M762,727.5"/>
	<path class="st24" d="M763.3,623.4"/>
	<path class="st15" d="M769,727.6"/>
	<path class="st24" d="M769.2,625.9"/>
	<path class="st15" d="M769,727.6"/>
	<path class="st23" d="M759.1,622.6c0,0.4-0.3,0.7-0.7,0.7l0,0c-0.4,0-0.7-0.3-0.7-0.7s0.3-0.7,0.7-0.7l0,0
		C758.8,621.9,759.1,622.2,759.1,622.6z"/>
	<path class="st23" d="M772,622.9c0,0.4-0.3,0.7-0.7,0.7l0,0c-0.4,0-0.7-0.3-0.7-0.7s0.3-0.7,0.7-0.7c0,0,0,0,0.1,0
		C771.6,622.2,772,622.5,772,622.9z"/>
	<path class="st21" d="M762.6,729.9h-2.8c0-35.8,0-71.5,0-107.3l2.8,0.1C762.6,658.4,762.6,694.1,762.6,729.9z"/>
	<path class="st22" d="M769.6,730h-2.8c0.1-35.7,0.1-71.4,0.1-107.1l2.8,0.1C769.8,658.6,769.8,694.3,769.6,730z"/>
	<path class="st23" d="M766.8,729.9h-4.2c0-35.7,0.1-71.5,0.1-107.2l4.3,0.1C767,658.5,767,694.2,766.8,729.9z"/>
	<path class="st14" d="M772,623.6c-5.1-0.2-7.7-0.2-12.8-0.4v-2.1c5.1,0.1,7.7,0.2,12.8,0.4V623.6z"/>
	<path class="st21" d="M762,622.6c0,1.9-1.6,3.4-3.4,3.3h-0.1c-1.9,0-3.5-1.6-3.5-3.5s1.6-3.4,3.4-3.4h0.1
		C760.3,619.1,761.8,620.7,762,622.6z"/>
	<path class="st21" d="M771,730.8c-5-0.1-7.5-0.1-12.5-0.1c-0.4,0-0.8-0.3-0.8-0.8l0,0v-1.7c0-0.4,0.4-0.8,0.8-0.8l0,0
		c5,0,7.5,0.1,12.5,0.2c0.4,0,0.8,0.3,0.8,0.8v1.7C771.8,730.5,771.3,730.8,771,730.8z"/>
	<path class="st22" d="M773.2,730.8c-6.8-0.1-10.2-0.1-17-0.2l1.4-1.6c5.7,0,8.5,0.1,14.1,0.2C772.3,729.8,772.6,730.2,773.2,730.8z
		"/>
	<path class="st15" d="M774.6,732.4c-7.9-0.1-11.9-0.2-19.8-0.2v-1.6c7.9,0,11.9,0.1,19.8,0.2V732.4z"/>
	<path class="st24" d="M760.5,625.6"/>
	<path class="st12" d="M760.5,622.6c0,1.1-0.9,2-2,2h-0.1c-1.2,0-2.1-0.9-2.1-2.1c0-1.1,0.9-2,2-2h0.1
		C759.5,620.5,760.5,621.4,760.5,622.6z"/>
	<path class="st21" d="M774.8,623c0,1.9-1.5,3.3-3.4,3.3c-0.1,0-0.1,0-0.2,0c-1.9,0-3.5-1.6-3.5-3.5s1.6-3.4,3.4-3.4h0.1
		C773.1,619.5,774.6,621.1,774.8,623z"/>
	<path class="st12" d="M773.3,623c0,1.1-0.9,2-2,2h-0.1c-1.2,0-2.1-1-2.1-2.1s0.9-2,2-2h0.1C772.3,620.9,773.2,621.8,773.3,623z"/>
	<path class="st15" d="M764,727.5"/>
	<path class="st15" d="M762,727.5"/>
	<path class="st24" d="M763.3,623.4"/>
	<path class="st15" d="M769,727.6"/>
	<path class="st24" d="M769.2,625.9"/>
	<path class="st15" d="M769,727.6"/>
	<path class="st23" d="M759.1,622.6c0,0.4-0.3,0.7-0.7,0.7l0,0c-0.4,0-0.7-0.3-0.7-0.7s0.3-0.7,0.7-0.7l0,0
		C758.8,621.9,759.1,622.2,759.1,622.6z"/>
	<path class="st23" d="M772,622.9c0,0.4-0.3,0.7-0.7,0.7l0,0c-0.4,0-0.7-0.3-0.7-0.7s0.3-0.7,0.7-0.7c0,0,0,0,0.1,0
		C771.6,622.2,772,622.5,772,622.9z"/>
	<path class="st21" d="M734.3,729.7h-2.8c0-35.9,0-71.7-0.1-107.6h2.8C734.3,658,734.5,693.9,734.3,729.7z"/>
	<path class="st22" d="M741.5,729.7h-2.8c0-35.8,0-71.7,0-107.5h2.8C741.5,658.1,741.5,693.9,741.5,729.7z"/>
	<path class="st23" d="M738.5,729.7h-4.2c0-35.8,0-71.7,0-107.6h4.2C738.6,658.1,738.5,693.9,738.5,729.7z"/>
	<path class="st14" d="M743.5,623c-5.1-0.1-7.7-0.1-12.8-0.1c0-0.8,0-1.2,0-2c5.1,0,7.7,0.1,12.8,0.1V623z"/>
	<path class="st21" d="M733.5,622.2c0,1.9-1.6,3.4-3.5,3.4c0,0,0,0-0.1,0c-1.9,0.1-3.5-1.3-3.6-3.2s1.3-3.5,3.2-3.6
		c0.1,0,0.2,0,0.4,0C732,618.7,733.5,620.3,733.5,622.2z"/>
	<path class="st21" d="M742.8,730.6c-5,0-7.5,0-12.5,0c-0.4,0-0.8-0.3-0.8-0.8v-1.7c0-0.4,0.4-0.8,0.8-0.8l0,0h12.5
		c0.4,0,0.8,0.3,0.8,0.8v1.7C743.5,730.2,743.1,730.6,742.8,730.6L742.8,730.6z"/>
	<path class="st22" d="M745,730.6c-6.8,0-10.2,0-17,0l1.4-1.6h14.2L745,730.6z"/>
	<path class="st15" d="M746.3,732.1c-7.9,0-11.9,0-19.8,0v-1.6c8,0,11.9,0,19.8,0V732.1z"/>
	<path class="st24" d="M732.1,625.2"/>
	<path class="st12" d="M732.1,622.2c0,1.1-1,2-2.1,2l0,0c-1.1,0-2.1-0.9-2.1-2s1-2,2.1-2C731.1,620.1,732,621,732.1,622.2z"/>
	<path class="st21" d="M746.3,622.3c0,1.9-1.6,3.4-3.4,3.3h-0.1c-1.9,0-3.5-1.5-3.5-3.4s1.6-3.4,3.5-3.4c0,0,0,0,0.1,0
		C744.8,618.8,746.2,620.4,746.3,622.3z"/>
	<path class="st12" d="M745,622.3c0,1.1-1,2-2.1,2l0,0c-1.2,0-2.1-0.9-2.1-2.1c0-1.1,1-2,2.1-2l0,0C744,620.2,744.8,621.1,745,622.3
		z"/>
	<path class="st15" d="M735.8,727.3"/>
	<path class="st15" d="M733.6,727.3"/>
	<path class="st24" d="M735,622.9"/>
	<path class="st15" d="M740.8,727.4"/>
	<path class="st24" d="M740.8,625.3"/>
	<path class="st15" d="M740.8,727.4"/>
	<path class="st23" d="M730.8,622.1c0,0.4-0.3,0.7-0.7,0.7l0,0c-0.4,0-0.7-0.3-0.7-0.7s0.3-0.7,0.7-0.7l0,0
		C730.5,621.5,730.8,621.8,730.8,622.1L730.8,622.1z"/>
	<path class="st23" d="M743.5,622.3c0,0.4-0.3,0.7-0.7,0.7l0,0c-0.4,0-0.7-0.3-0.7-0.7s0.3-0.7,0.7-0.7l0,0
		C743.1,621.6,743.5,621.9,743.5,622.3z"/>
	<path class="st21" d="M734.3,729.7h-2.8c0-35.9,0-71.7-0.1-107.6h2.8C734.3,658,734.5,693.9,734.3,729.7z"/>
	<path class="st22" d="M741.5,729.7h-2.8c0-35.8,0-71.7,0-107.5h2.8C741.5,658.1,741.5,693.9,741.5,729.7z"/>
	<path class="st23" d="M738.5,729.7h-4.2c0-35.8,0-71.7,0-107.6h4.2C738.6,658.1,738.5,693.9,738.5,729.7z"/>
	<path class="st14" d="M743.5,623c-5.1-0.1-7.7-0.1-12.8-0.1c0-0.8,0-1.2,0-2c5.1,0,7.7,0.1,12.8,0.1V623z"/>
	<path class="st21" d="M733.5,622.2c0,1.9-1.6,3.4-3.5,3.4c0,0,0,0-0.1,0c-1.9,0.1-3.5-1.3-3.6-3.2s1.3-3.5,3.2-3.6
		c0.1,0,0.2,0,0.4,0C732,618.7,733.5,620.3,733.5,622.2z"/>
	<path class="st21" d="M742.8,730.6c-5,0-7.5,0-12.5,0c-0.4,0-0.8-0.3-0.8-0.8v-1.7c0-0.4,0.4-0.8,0.8-0.8l0,0h12.5
		c0.4,0,0.8,0.3,0.8,0.8v1.7C743.5,730.2,743.1,730.6,742.8,730.6L742.8,730.6z"/>
	<path class="st22" d="M745,730.6c-6.8,0-10.2,0-17,0l1.4-1.6h14.2L745,730.6z"/>
	<path class="st15" d="M746.3,732.1c-7.9,0-11.9,0-19.8,0v-1.6c8,0,11.9,0,19.8,0V732.1z"/>
	<path class="st24" d="M732.1,625.2"/>
	<path class="st12" d="M732.1,622.2c0,1.1-1,2-2.1,2l0,0c-1.1,0-2.1-0.9-2.1-2s1-2,2.1-2C731.1,620.1,732,621,732.1,622.2z"/>
	<path class="st21" d="M746.3,622.3c0,1.9-1.6,3.4-3.4,3.3h-0.1c-1.9,0-3.5-1.5-3.5-3.4s1.6-3.4,3.5-3.4c0,0,0,0,0.1,0
		C744.8,618.8,746.2,620.4,746.3,622.3z"/>
	<path class="st12" d="M745,622.3c0,1.1-1,2-2.1,2l0,0c-1.2,0-2.1-0.9-2.1-2.1c0-1.1,1-2,2.1-2l0,0C744,620.2,744.8,621.1,745,622.3
		z"/>
	<path class="st15" d="M735.8,727.3"/>
	<path class="st15" d="M733.6,727.3"/>
	<path class="st24" d="M735,622.9"/>
	<path class="st15" d="M740.8,727.4"/>
	<path class="st24" d="M740.8,625.3"/>
	<path class="st15" d="M740.8,727.4"/>
	<path class="st23" d="M730.8,622.1c0,0.4-0.3,0.7-0.7,0.7l0,0c-0.4,0-0.7-0.3-0.7-0.7s0.3-0.7,0.7-0.7l0,0
		C730.5,621.5,730.8,621.8,730.8,622.1L730.8,622.1z"/>
	<path class="st23" d="M743.5,622.3c0,0.4-0.3,0.7-0.7,0.7l0,0c-0.4,0-0.7-0.3-0.7-0.7s0.3-0.7,0.7-0.7l0,0
		C743.1,621.6,743.5,621.9,743.5,622.3z"/>
	<path class="st21" d="M734.3,729.7h-2.8c0-35.9,0-71.7-0.1-107.6h2.8C734.3,658,734.5,693.9,734.3,729.7z"/>
	<path class="st22" d="M741.5,729.7h-2.8c0-35.8,0-71.7,0-107.5h2.8C741.5,658.1,741.5,693.9,741.5,729.7z"/>
	<path class="st23" d="M738.5,729.7h-4.2c0-35.8,0-71.7,0-107.6h4.2C738.6,658.1,738.5,693.9,738.5,729.7z"/>
	<path class="st14" d="M743.5,623c-5.1-0.1-7.7-0.1-12.8-0.1c0-0.8,0-1.2,0-2c5.1,0,7.7,0.1,12.8,0.1V623z"/>
	<path class="st21" d="M733.5,622.2c0,1.9-1.6,3.4-3.5,3.4c0,0,0,0-0.1,0c-1.9,0.1-3.5-1.3-3.6-3.2s1.3-3.5,3.2-3.6
		c0.1,0,0.2,0,0.4,0C732,618.7,733.5,620.3,733.5,622.2z"/>
	<path class="st21" d="M742.8,730.6c-5,0-7.5,0-12.5,0c-0.4,0-0.8-0.3-0.8-0.8v-1.7c0-0.4,0.4-0.8,0.8-0.8l0,0h12.5
		c0.4,0,0.8,0.3,0.8,0.8v1.7C743.5,730.2,743.1,730.6,742.8,730.6L742.8,730.6z"/>
	<path class="st22" d="M745,730.6c-6.8,0-10.2,0-17,0l1.4-1.6h14.2L745,730.6z"/>
	<path class="st15" d="M746.3,732.1c-7.9,0-11.9,0-19.8,0v-1.6c8,0,11.9,0,19.8,0V732.1z"/>
	<path class="st24" d="M732.1,625.2"/>
	<path class="st12" d="M732.1,622.2c0,1.1-1,2-2.1,2l0,0c-1.1,0-2.1-0.9-2.1-2s1-2,2.1-2C731.1,620.1,732,621,732.1,622.2z"/>
	<path class="st21" d="M746.3,622.3c0,1.9-1.6,3.4-3.4,3.3h-0.1c-1.9,0-3.5-1.5-3.5-3.4s1.6-3.4,3.5-3.4c0,0,0,0,0.1,0
		C744.8,618.8,746.2,620.4,746.3,622.3z"/>
	<path class="st12" d="M745,622.3c0,1.1-1,2-2.1,2l0,0c-1.2,0-2.1-0.9-2.1-2.1c0-1.1,1-2,2.1-2l0,0C744,620.2,744.8,621.1,745,622.3
		z"/>
	<path class="st15" d="M735.8,727.3"/>
	<path class="st15" d="M733.6,727.3"/>
	<path class="st24" d="M735,622.9"/>
	<path class="st15" d="M740.8,727.4"/>
	<path class="st24" d="M740.8,625.3"/>
	<path class="st15" d="M740.8,727.4"/>
	<path class="st23" d="M730.8,622.1c0,0.4-0.3,0.7-0.7,0.7l0,0c-0.4,0-0.7-0.3-0.7-0.7s0.3-0.7,0.7-0.7l0,0
		C730.5,621.5,730.8,621.8,730.8,622.1L730.8,622.1z"/>
	<path class="st23" d="M743.5,622.3c0,0.4-0.3,0.7-0.7,0.7l0,0c-0.4,0-0.7-0.3-0.7-0.7s0.3-0.7,0.7-0.7l0,0
		C743.1,621.6,743.5,621.9,743.5,622.3z"/>
	<path class="st21" d="M734.3,729.7h-2.8c0-35.9,0-71.7-0.1-107.6h2.8C734.3,658,734.5,693.9,734.3,729.7z"/>
	<path class="st22" d="M741.5,729.7h-2.8c0-35.8,0-71.7,0-107.5h2.8C741.5,658.1,741.5,693.9,741.5,729.7z"/>
	<path class="st23" d="M738.5,729.7h-4.2c0-35.8,0-71.7,0-107.6h4.2C738.6,658.1,738.5,693.9,738.5,729.7z"/>
	<path class="st14" d="M743.5,623c-5.1-0.1-7.7-0.1-12.8-0.1c0-0.8,0-1.2,0-2c5.1,0,7.7,0.1,12.8,0.1V623z"/>
	<path class="st21" d="M733.5,622.2c0,1.9-1.6,3.4-3.5,3.4c0,0,0,0-0.1,0c-1.9,0.1-3.5-1.3-3.6-3.2s1.3-3.5,3.2-3.6
		c0.1,0,0.2,0,0.4,0C732,618.7,733.5,620.3,733.5,622.2z"/>
	<path class="st21" d="M742.8,730.6c-5,0-7.5,0-12.5,0c-0.4,0-0.8-0.3-0.8-0.8v-1.7c0-0.4,0.4-0.8,0.8-0.8l0,0h12.5
		c0.4,0,0.8,0.3,0.8,0.8v1.7C743.5,730.2,743.1,730.6,742.8,730.6L742.8,730.6z"/>
	<path class="st22" d="M745,730.6c-6.8,0-10.2,0-17,0l1.4-1.6h14.2L745,730.6z"/>
	<path class="st15" d="M746.3,732.1c-7.9,0-11.9,0-19.8,0v-1.6c8,0,11.9,0,19.8,0V732.1z"/>
	<path class="st24" d="M732.1,625.2"/>
	<path class="st12" d="M732.1,622.2c0,1.1-1,2-2.1,2l0,0c-1.1,0-2.1-0.9-2.1-2s1-2,2.1-2C731.1,620.1,732,621,732.1,622.2z"/>
	<path class="st21" d="M746.3,622.3c0,1.9-1.6,3.4-3.4,3.3h-0.1c-1.9,0-3.5-1.5-3.5-3.4s1.6-3.4,3.5-3.4c0,0,0,0,0.1,0
		C744.8,618.8,746.2,620.4,746.3,622.3z"/>
	<path class="st12" d="M745,622.3c0,1.1-1,2-2.1,2l0,0c-1.2,0-2.1-0.9-2.1-2.1c0-1.1,1-2,2.1-2l0,0C744,620.2,744.8,621.1,745,622.3
		z"/>
	<path class="st15" d="M735.8,727.3"/>
	<path class="st15" d="M733.6,727.3"/>
	<path class="st24" d="M735,622.9"/>
	<path class="st15" d="M740.8,727.4"/>
	<path class="st24" d="M740.8,625.3"/>
	<path class="st15" d="M740.8,727.4"/>
	<path class="st23" d="M730.8,622.1c0,0.4-0.3,0.7-0.7,0.7l0,0c-0.4,0-0.7-0.3-0.7-0.7s0.3-0.7,0.7-0.7l0,0
		C730.5,621.5,730.8,621.8,730.8,622.1L730.8,622.1z"/>
	<path class="st23" d="M743.5,622.3c0,0.4-0.3,0.7-0.7,0.7l0,0c-0.4,0-0.7-0.3-0.7-0.7s0.3-0.7,0.7-0.7l0,0
		C743.1,621.6,743.5,621.9,743.5,622.3z"/>
	<path class="st21" d="M846,733.2l-2.8-0.2c0-35.2,0-70.4-0.1-105.7l2.8,0.2C845.8,662.8,845.8,698,846,733.2z"/>
	<path class="st22" d="M853,733.6l-2.8-0.2c0-35.2,0-70.3-0.1-105.5l2.8,0.2C853,663.3,853,698.5,853,733.6z"/>
	<path class="st23" d="M850.1,733.4l-4.2-0.3c0-35.2,0-70.4-0.1-105.6l4.3,0.3C850,663.1,850.1,698.3,850.1,733.4z"/>
	<path class="st14" d="M855,629l-12.8-1v-2.1l12.8,1V629z"/>
	<path class="st21" d="M845.1,627.5c0,1.8-1.4,3.2-3.2,3.2c-0.1,0-0.3,0-0.4,0c-2-0.2-3.5-1.8-3.5-3.8c0-1.8,1.4-3.2,3.2-3.3
		c0.1,0,0.2,0,0.4,0C843.5,623.9,845,625.5,845.1,627.5z"/>
	<path class="st21" d="M854.2,734.5l-12.5-0.8c-0.4,0-0.8-0.4-0.8-0.8v-1.7c0-0.4,0.4-0.7,0.8-0.7l0,0l12.5,0.8
		c0.4,0,0.8,0.4,0.8,0.8v1.7C855.1,734.2,854.8,734.5,854.2,734.5C854.3,734.5,854.3,734.5,854.2,734.5z"/>
	<path class="st22" d="M856.5,734.6l-17-1l1.4-1.5l14.2,0.9C855.6,733.6,856,734,856.5,734.6z"/>
	<path class="st15" d="M858,736.3c-7.9-0.5-11.8-0.7-19.8-1.2v-1.6c8,0.5,12,0.7,19.8,1.2V736.3z"/>
	<path class="st24" d="M843.6,630.5"/>
	<path class="st12" d="M843.6,627.4c0,1.1-0.8,1.9-1.9,1.9c-0.1,0-0.2,0-0.3,0c-1.2-0.1-2.1-1.1-2.1-2.3c0-1.1,0.9-1.9,1.9-1.9
		c0.1,0,0.1,0,0.2,0C842.8,625.2,843.6,626.2,843.6,627.4z"/>
	<path class="st21" d="M857.8,628.6c0,1.8-1.4,3.2-3.1,3.3c-0.1,0-0.3,0-0.4,0c-2-0.2-3.5-1.8-3.5-3.8c0-1.8,1.4-3.3,3.2-3.3
		c0.1,0,0.2,0,0.4,0C856.3,624.9,857.8,626.6,857.8,628.6z"/>
	<path class="st12" d="M856.5,628.4c0.1,1.1-0.8,2-1.8,2c-0.1,0-0.2,0-0.3,0c-1.2-0.1-2.1-1.1-2.1-2.3c-0.1-1.1,0.8-2,1.8-2
		c0.1,0,0.2,0,0.3,0C855.5,626.3,856.5,627.3,856.5,628.4z"/>
	<path class="st15" d="M847.3,730.9"/>
	<path class="st15" d="M845.1,730.8"/>
	<path class="st24" d="M846.5,628.4"/>
	<path class="st15" d="M852.2,731.2"/>
	<path class="st24" d="M852.3,631.2"/>
	<path class="st15" d="M852.2,731.2"/>
	<path class="st23" d="M842.2,627.3c0,0.4-0.3,0.6-0.6,0.6c0,0,0,0-0.1,0c-0.4,0-0.7-0.4-0.7-0.8c0-0.4,0.3-0.7,0.6-0.7
		c0,0,0,0,0.1,0C842,626.6,842.2,626.9,842.2,627.3z"/>
	<path class="st23" d="M855,628.3c0,0.4-0.3,0.7-0.6,0.7c0,0,0,0-0.1,0c-0.4,0-0.7-0.4-0.7-0.8c0-0.4,0.3-0.6,0.6-0.7h0.1
		C854.8,627.6,855,627.9,855,628.3z"/>
</g>
<g id="Layer_8" class="st25">
	<text transform="matrix(1 0 0 1 561.975 48.38)" class="st26 st27 st28 st29">SOON MVMT</text>
	<text transform="matrix(1 0 0 1 584.205 228.38)" class="st26 st27 st28 st29">COLUMBIA</text>
	<text transform="matrix(1 0 0 1 702.535 130.34)" class="st26 st30 st31 st29">x</text>
	<text transform="matrix(1 0 0 1 538.115 637.94)" class="st26 st27 st32">M</text>
	<text transform="matrix(1 0 0 1 562.685 637.94)" class="st26 st27 st32">O</text>
	<text transform="matrix(1 0 0 1 580.685 637.94)" class="st26 st27 st32">VEMENTS EVE</text>
	<text transform="matrix(1 0 0 1 768.965 637.94)" class="st26 st27 st32">R</text>
	<text transform="matrix(1 0 0 1 786.825 637.94)" class="st26 st27 st32">YWHERE</text>
	<text transform="matrix(1 0 0 1 356.555 698.13)" class="st26 st33 st34">so that everyone knows someone who truly follows Jesus</text>
	<polygon class="st26" points="718.1,781.3 730.6,761.3 705.6,761.3 	"/>
</g>
</svg>
