<?xml version="1.0" encoding="utf-8"?>
<!-- Generator: Adobe Illustrator 24.0.3, SVG Export Plug-In . SVG Version: 6.00 Build 0)  -->
<svg version="1.1" id="Layer_1" xmlns="http://www.w3.org/2000/svg" xmlns:xlink="http://www.w3.org/1999/xlink" x="0px" y="0px"
	 viewBox="0 0 1441.4 886.1" style="enable-background:new 0 0 1441.4 886.1;" xml:space="preserve">
<style type="text/css">
	.st0{fill:#94BFFF;}
	.st1{fill:#B3D1FF;}
</style>
<g id="Layer_1_1_">
	<rect y="-11.3" class="st0" width="1440" height="897"/>
	<path class="st1" d="M1441.4,882.7v-76.9c-130.4-79.7-404.1-134.5-720.6-134.5c-314.5,0-586.6,54.1-718,132.9v78.4h1438.6V882.7z"
		/>
	<path class="st1" d="M165.7,538.7h13c6.6,0,12,5.5,12,12.2v213.8c0,6.7-5.4,12.2-12,12.2h-13c-6.6,0-12-5.5-12-12.2V550.9
		C153.7,544.2,159,538.7,165.7,538.7z"/>
	<path class="st1" d="M104.1,604.5l133-12.2c5-0.5,9.4,3.2,9.9,8.3l1.5,16.3c0.5,5.1-3.2,9.5-8.2,10l-133,12.2
		c-5,0.5-9.4-3.2-9.9-8.3l-1.5-16.3C95.5,609.5,99.1,605.1,104.1,604.5z"/>
</g>
<g id="Layer_2_1_">
	<g id="Layer_4_2_">
		<rect x="1201.8" y="703.9" class="st1" width="15.8" height="27.4"/>
		<ellipse class="st1" cx="1209.7" cy="675" rx="34.3" ry="35.5"/>
		<ellipse class="st1" cx="1209.7" cy="639.5" rx="27.8" ry="30"/>
		<ellipse class="st1" cx="1209.7" cy="609.5" rx="23.1" ry="21.3"/>
		<rect x="1277" y="727.5" class="st1" width="11.6" height="20.8"/>
		<ellipse class="st1" cx="1282.8" cy="705.6" rx="25.3" ry="27"/>
		<ellipse class="st1" cx="1282.8" cy="678.5" rx="20.6" ry="22.8"/>
		<ellipse class="st1" cx="1282.8" cy="655.7" rx="17.1" ry="16.2"/>
	</g>
</g>
</svg>
