<svg width="400" height="300" viewBox="0 0 400 300" fill="none" xmlns="http://www.w3.org/2000/svg">
<path d="M196.69 279.77L345.9 191.58C350.65 188.91 354.73 184.58 350.09 181.66L200.35 95.36C198.1 93.97 194.69 93.06 192.41 94.36L35.77 185.29C31.02 188.05 30.17 195.75 34.92 198.51L177 279.63C179.986 281.365 183.373 282.291 186.826 282.315C190.28 282.34 193.68 281.462 196.69 279.77V279.77Z" fill="#87A7D6"/>
<path d="M286.48 178.29L255.1 196.19L279.13 210.29L314.89 188.92" fill="url(#paint0_linear)"/>
<path d="M197.67 215.69L151 242.32L186.75 263.29L239.92 231.51" fill="url(#paint1_linear)"/>
<path d="M174.1 135.52L127.43 162.15L163.18 183.11L216.35 151.34" fill="url(#paint2_linear)"/>
<path d="M103.23 184.09L56.57 210.72L92.31 231.68L145.49 199.91" fill="url(#paint3_linear)"/>
<path d="M107.67 143.49L214.74 205.31" stroke="#F2F2F2" stroke-miterlimit="10"/>
<path d="M137.27 203.18L161.18 216.97L210.34 188.46L261.33 171.31L270.06 166.04L237.72 147.57L226.1 154.7L214.74 148.51" stroke="#F2F2F2" stroke-miterlimit="10"/>
<path d="M284.11 151.75V185.75C284.11 185.75 316.79 187.57 316.79 185.75V151.75" fill="#B9D9EB"/>
<path d="M300.45 192.92C309.474 192.92 316.79 189.58 316.79 185.46C316.79 181.34 309.474 178 300.45 178C291.426 178 284.11 181.34 284.11 185.46C284.11 189.58 291.426 192.92 300.45 192.92Z" fill="#B9D9EB"/>
<path d="M300.45 159.21C309.474 159.21 316.79 155.87 316.79 151.75C316.79 147.63 309.474 144.29 300.45 144.29C291.426 144.29 284.11 147.63 284.11 151.75C284.11 155.87 291.426 159.21 300.45 159.21Z" fill="#3129A3"/>
<path d="M290.26 157.55L290.37 157.61C291 157.83 291.63 158.03 292.28 158.19L287.84 121C287.458 120.854 287.043 120.816 286.641 120.89C286.239 120.964 285.865 121.148 285.56 121.42L290.12 157.52L290.26 157.55Z" fill="#F78B72"/>
<path d="M295.34 158.7L296.72 123.75C296.366 123.548 295.964 123.447 295.557 123.457C295.149 123.468 294.753 123.59 294.41 123.81L293.28 158.41C293.961 158.545 294.648 158.642 295.34 158.7V158.7Z" fill="#F78B72"/>
<path d="M300.45 159.21L304.94 122.77L314.03 127.58L310.35 158.19C307.138 159.123 303.785 159.468 300.45 159.21V159.21Z" fill="#FCB749"/>
<path d="M199.84 175.55V217.55L232.6 236.29L269.59 214.43V172.43" fill="#B9D9EB"/>
<path d="M199.84 175.55L237.85 153.9L269.59 172.43L232.6 194.29L199.84 175.55Z" fill="#B9D9EB"/>
<path d="M232.6 194.29V236.29L269.59 214.43V172.43L232.6 194.29Z" fill="#B9D9EB"/>
<path opacity="0.17" d="M199.84 175.55V217.55L232.6 236.29L269.59 214.43V172.43" fill="#2E2E75"/>
<path d="M199.84 175.55L237.85 153.9L269.59 172.43L232.6 194.29L199.84 175.55Z" fill="#B9D9EB"/>
<path opacity="0.33" d="M232.6 194.29V236.29L269.59 214.43V172.43L232.6 194.29Z" fill="#2E2E75"/>
<path d="M92.31 152.87V193.93L124.33 212.24L160.48 190.88V149.82" fill="url(#paint4_linear)"/>
<path d="M92.31 152.87L129.46 131.71L160.48 149.82L124.33 171.19L92.31 152.87Z" fill="url(#paint5_linear)"/>
<path d="M200 175.439L238.147 154L270 172.349L232.88 194L200 175.439Z" fill="url(#paint6_linear)"/>
<path d="M124.33 171.19V212.24L160.48 190.88V149.82L124.33 171.19Z" fill="url(#paint7_linear)"/>
<path d="M125.41 145.14C125.72 144.983 126.063 144.902 126.41 144.902C126.757 144.902 127.1 144.983 127.41 145.14C128.01 145.46 128.09 146.01 127.57 146.33C127.261 146.489 126.918 146.571 126.57 146.571C126.222 146.571 125.879 146.489 125.57 146.33C124.93 146 124.89 145.46 125.41 145.14Z" fill="white"/>
<path d="M122 148.48C123.356 147.782 124.86 147.418 126.385 147.418C127.91 147.418 129.414 147.782 130.77 148.48C133.32 149.88 133.56 152.18 131.32 153.58C129.956 154.277 128.447 154.64 126.915 154.64C125.383 154.64 123.874 154.277 122.51 153.58C119.94 152.15 119.71 149.88 122 148.48ZM129.37 152.48C130.66 151.66 130.49 150.34 129.01 149.54C128.234 149.152 127.378 148.95 126.51 148.95C125.642 148.95 124.786 149.152 124.01 149.54C122.71 150.35 122.85 151.67 124.32 152.48C125.102 152.883 125.97 153.094 126.85 153.094C127.73 153.094 128.598 152.883 129.38 152.48" fill="white"/>
<path d="M130.2 143.3C133.26 144.83 136.2 146.44 139.05 148.12C141.9 149.8 141.97 152.01 139.35 153.76C138.92 154.04 138.49 154.32 138.04 154.6L135.8 156L133.8 157.27L132.44 158.1C130.952 158.968 129.271 159.451 127.549 159.505C125.828 159.559 124.119 159.183 122.58 158.41C119.553 156.951 116.603 155.339 113.74 153.58C111.06 151.94 110.95 150.18 113.26 148.38C114.492 147.419 115.774 146.525 117.1 145.7C118.578 144.78 120.107 143.945 121.68 143.2C123.016 142.573 124.476 142.256 125.951 142.273C127.427 142.29 128.879 142.641 130.2 143.3V143.3ZM136.95 148.95C134.4 147.49 131.79 146.06 129.12 144.67C128.172 144.095 127.084 143.791 125.975 143.791C124.866 143.791 123.778 144.095 122.83 144.67C122.34 144.94 121.83 145.23 121.41 145.51L119.21 146.9L117.1 148.2L115.72 149.08C115.349 149.327 115.013 149.623 114.72 149.96C113.98 150.82 114.12 151.7 115.33 152.4C118.29 154.093 121.323 155.76 124.43 157.4C125.092 157.721 125.812 157.901 126.547 157.931C127.282 157.96 128.015 157.837 128.7 157.57C129.326 157.35 129.929 157.069 130.5 156.73L133.29 155.01L136.64 152.91C136.956 152.706 137.257 152.478 137.54 152.23C138.89 151.04 138.75 150.04 136.91 148.98" fill="white"/>
<path d="M234.788 167.867C235.098 167.711 235.44 167.629 235.788 167.629C236.135 167.629 236.478 167.711 236.788 167.867C237.388 168.187 237.468 168.737 236.948 169.057C236.638 169.216 236.296 169.299 235.948 169.299C235.6 169.299 235.257 169.216 234.948 169.057C234.308 168.727 234.268 168.187 234.788 167.867Z" fill="white"/>
<path d="M231.378 171.207C232.734 170.51 234.238 170.146 235.763 170.146C237.288 170.146 238.791 170.51 240.148 171.207C242.698 172.607 242.938 174.907 240.698 176.307C239.334 177.004 237.824 177.368 236.293 177.368C234.761 177.368 233.252 177.004 231.888 176.307C229.318 174.877 229.088 172.607 231.378 171.207ZM238.748 175.207C240.038 174.387 239.868 173.067 238.388 172.267C237.612 171.879 236.756 171.677 235.888 171.677C235.02 171.677 234.164 171.879 233.388 172.267C232.088 173.077 232.228 174.397 233.698 175.207C234.48 175.611 235.348 175.821 236.228 175.821C237.108 175.821 237.975 175.611 238.758 175.207" fill="white"/>
<path d="M239.578 166.027C242.638 167.557 245.578 169.167 248.428 170.847C251.278 172.527 251.348 174.737 248.728 176.487C248.298 176.767 247.868 177.047 247.418 177.327L245.178 178.727L243.178 179.997L241.818 180.827C240.33 181.695 238.649 182.178 236.927 182.233C235.205 182.287 233.497 181.91 231.958 181.137C228.931 179.678 225.981 178.066 223.118 176.307C220.438 174.667 220.328 172.907 222.638 171.107C223.87 170.147 225.151 169.252 226.478 168.427C227.956 167.507 229.485 166.673 231.058 165.927C232.393 165.3 233.854 164.983 235.329 165.001C236.805 165.018 238.257 165.369 239.578 166.027V166.027ZM246.328 171.677C243.778 170.217 241.168 168.787 238.498 167.397C237.549 166.823 236.462 166.519 235.353 166.519C234.244 166.519 233.156 166.823 232.208 167.397C231.718 167.667 231.208 167.957 230.788 168.237L228.588 169.627L226.478 170.927L225.098 171.807C224.727 172.055 224.39 172.351 224.098 172.687C223.358 173.547 223.498 174.427 224.708 175.127C227.668 176.821 230.701 178.487 233.808 180.127C234.469 180.448 235.19 180.629 235.925 180.658C236.66 180.687 237.393 180.564 238.078 180.297C238.704 180.078 239.307 179.796 239.878 179.457L242.668 177.737L246.018 175.637C246.334 175.433 246.635 175.206 246.918 174.957C248.268 173.767 248.128 172.767 246.288 171.707" fill="white"/>
<path d="M174.76 234.3C175.02 234.662 175.225 235.059 175.37 235.48C175.446 235.81 175.503 236.144 175.54 236.48C175.557 236.528 175.585 236.571 175.621 236.605C175.658 236.64 175.702 236.666 175.75 236.68C179.703 238.067 182.24 239.96 183.36 242.36C183.794 243.282 183.93 244.316 183.751 245.319C183.572 246.322 183.086 247.245 182.36 247.96C181.683 248.744 180.91 249.439 180.06 250.03C177.61 251.639 174.868 252.753 171.99 253.31H171.8C172.12 253.123 172.417 252.933 172.69 252.74C174.47 251.49 175.36 250.1 175.34 248.52C173.125 249.739 170.563 250.172 168.07 249.75C168.356 249.597 168.634 249.426 168.9 249.24C169.188 249.047 169.444 248.811 169.66 248.54C169.18 248.7 168.71 248.88 168.19 249.01C167.638 249.15 167.076 249.251 166.51 249.31C165.916 249.376 165.318 249.399 164.72 249.38C164.147 249.364 163.575 249.307 163.01 249.21C162.483 249.108 161.962 248.974 161.45 248.81C162.274 248.591 163.062 248.254 163.79 247.81C161.987 248.167 160.127 248.109 158.35 247.64C157.322 247.425 156.386 246.898 155.67 246.13C161.08 245.85 165.55 244.65 169.11 242.48C168.77 242.39 168.46 242.31 168.11 242.21C165.94 241.49 164.97 240.45 165.19 239.11C165.363 238.431 165.798 237.849 166.4 237.49C167.621 236.71 169.015 236.243 170.46 236.13C170.648 236.135 170.835 236.09 171 236C171.045 235.97 171.086 235.933 171.12 235.89C171.603 235.309 171.945 234.625 172.12 233.89C172.5 234.111 172.818 234.425 173.042 234.803C173.266 235.181 173.389 235.611 173.4 236.05C173.57 235.87 173.75 235.69 173.91 235.51C174.072 235.32 174.223 235.119 174.36 234.91C174.53 234.69 174.64 234.49 174.76 234.3Z" fill="white"/>
<path d="M90.27 137.61L88.73 137.1L86.69 133.56L88.76 133.33" fill="#E03636"/>
<path d="M77.78 116.5L78.14 135.41C78.1534 135.609 78.2159 135.802 78.3218 135.971C78.4277 136.14 78.5737 136.28 78.7469 136.379C78.9202 136.478 79.1152 136.533 79.3146 136.538C79.514 136.543 79.7117 136.499 79.89 136.41L96.24 128.41C96.5104 128.28 96.738 128.075 96.8957 127.82C97.0534 127.565 97.1348 127.27 97.13 126.97L96.77 108.05C96.7618 107.83 96.6985 107.617 96.586 107.428C96.4735 107.239 96.3154 107.082 96.1262 106.971C95.937 106.859 95.7228 106.797 95.5033 106.79C95.2838 106.783 95.066 106.831 94.87 106.93L78.66 115.04C78.3883 115.173 78.1607 115.381 78.0046 115.64C77.8485 115.899 77.7705 116.198 77.78 116.5Z" fill="#E03636"/>
<path d="M97.66 107.72L95.76 106.86V108.28L97.66 107.72Z" fill="#E03636"/>
<path d="M80.23 137.1L78.85 136.48L79.85 135.83L80.23 137.1Z" fill="#E03636"/>
<path d="M79.39 117.26L79.75 136.17C79.7634 136.369 79.8259 136.562 79.9318 136.731C80.0377 136.9 80.1837 137.04 80.3569 137.139C80.5301 137.238 80.7251 137.293 80.9246 137.298C81.124 137.304 81.3217 137.26 81.5 137.17L97.85 129.17C98.1204 129.04 98.348 128.836 98.5057 128.58C98.6634 128.325 98.7447 128.03 98.74 127.73L98.38 108.81C98.3718 108.591 98.3085 108.377 98.196 108.188C98.0835 108 97.9254 107.842 97.7362 107.731C97.547 107.619 97.3328 107.557 97.1133 107.55C96.8938 107.543 96.676 107.591 96.48 107.69L80.27 115.8C79.9983 115.933 79.7707 116.141 79.6146 116.4C79.4585 116.659 79.3805 116.958 79.39 117.26V117.26Z" fill="#FF5454"/>
<path d="M93.62 130.03L90.27 137.61L87.29 132.3" fill="#FF5454"/>
<path d="M92.11 115.5C92.3327 115.358 92.5886 115.275 92.8526 115.261C93.1166 115.247 93.3798 115.301 93.6165 115.419C93.8532 115.537 94.0553 115.714 94.2032 115.933C94.351 116.153 94.4395 116.406 94.46 116.67C94.74 118.23 94.09 120.22 93.46 121.89C92.7831 123.66 92.012 125.392 91.15 127.08C91.07 127.24 90.01 129.42 89.87 129.49C89.73 129.56 89.55 129.33 89.43 129.27C89.06 129.07 88.7 128.85 88.35 128.62C86.904 127.789 85.7379 126.546 85 125.05C84.5341 124.206 84.3221 123.246 84.3896 122.284C84.457 121.322 84.8009 120.401 85.38 119.63C85.654 119.281 85.9937 118.989 86.38 118.77C86.6779 118.584 87.0195 118.479 87.3706 118.467C87.7217 118.455 88.0699 118.535 88.38 118.7C89.0115 119.232 89.4303 119.974 89.56 120.79C89.7409 119.36 90.1779 117.975 90.85 116.7C91.1459 116.187 91.5834 115.771 92.11 115.5V115.5Z" fill="white"/>
<path d="M111.88 94.3999L110.34 93.8899L108.3 90.3499L110.37 90.1299" fill="#E03636"/>
<path d="M99.39 73.3002L99.75 92.2102C99.7634 92.4093 99.8259 92.6019 99.9318 92.771C100.038 92.9401 100.184 93.0803 100.357 93.1793C100.53 93.2783 100.725 93.3329 100.925 93.3383C101.124 93.3437 101.322 93.2997 101.5 93.2102L117.85 85.2102C118.12 85.0803 118.348 84.8756 118.506 84.6204C118.663 84.3652 118.745 84.0702 118.74 83.7702L118.38 64.8502C118.372 64.6307 118.308 64.4169 118.196 64.2283C118.083 64.0397 117.925 63.8824 117.736 63.7708C117.547 63.6593 117.333 63.5971 117.113 63.59C116.894 63.5829 116.676 63.6311 116.48 63.7302L100.27 71.8402C99.9983 71.973 99.7707 72.1814 99.6146 72.4404C99.4585 72.6994 99.3805 72.998 99.39 73.3002V73.3002Z" fill="#E03636"/>
<path d="M119.27 64.5099L117.37 63.6499V65.0799L119.27 64.5099Z" fill="#E03636"/>
<path d="M101.84 93.8901L100.46 93.2801L101.47 92.6201L101.84 93.8901Z" fill="#E03636"/>
<path d="M101 74.06L101.36 93C101.373 93.199 101.436 93.3917 101.542 93.5608C101.648 93.7299 101.794 93.8701 101.967 93.9691C102.14 94.0681 102.335 94.1227 102.535 94.1281C102.734 94.1335 102.932 94.0895 103.11 94L119.46 86C119.73 85.8701 119.958 85.6654 120.116 85.4102C120.273 85.155 120.355 84.86 120.35 84.56L120 65.63C119.992 65.4105 119.928 65.1967 119.816 65.008C119.703 64.8194 119.545 64.6621 119.356 64.5506C119.167 64.4391 118.953 64.3769 118.733 64.3698C118.514 64.3627 118.296 64.4109 118.1 64.51L101.89 72.62C101.62 72.7499 101.392 72.9546 101.234 73.2098C101.077 73.465 100.995 73.76 101 74.06V74.06Z" fill="#FF5454"/>
<path d="M115.23 86.8198L111.88 94.3998L108.9 89.0998" fill="#FF5454"/>
<path d="M113.71 72.2901C113.933 72.1473 114.19 72.065 114.455 72.0514C114.72 72.0377 114.984 72.093 115.22 72.212C115.457 72.331 115.659 72.5095 115.807 72.7301C115.954 72.9506 116.041 73.2056 116.06 73.4701C116.35 75.0201 115.7 77.0001 115.06 78.6801C114.381 80.4493 113.61 82.1817 112.75 83.8701C112.67 84.0301 111.61 86.2101 111.47 86.2801C111.33 86.3501 111.15 86.1101 111.03 86.0501C110.66 85.8501 110.3 85.6401 109.95 85.4001C108.51 84.5688 107.348 83.3302 106.61 81.8401C106.144 80.9962 105.932 80.0356 106 79.074C106.067 78.1124 106.411 77.1907 106.99 76.4201C107.264 76.0705 107.603 75.7783 107.99 75.5601C108.287 75.3722 108.628 75.2659 108.979 75.2519C109.33 75.2379 109.679 75.3166 109.99 75.4801C110.623 76.0143 111.039 76.761 111.16 77.5801C111.344 76.1466 111.785 74.7579 112.46 73.4801C112.754 72.9721 113.188 72.5591 113.71 72.2901V72.2901Z" fill="white"/>
<path d="M165.19 85.2199V143.61L197.89 162.32L234.81 140.5V82.1099" fill="#AF1528"/>
<path d="M165.19 85.2199L203.13 63.6099L234.81 82.1099L197.89 103.92L165.19 85.2199Z" fill="#C41A26"/>
<path d="M197.89 103.92V162.32L234.81 140.5V82.1099L197.89 103.92Z" fill="#C41A26"/>
<path d="M211.56 83.0001C211.606 82.8834 211.643 82.763 211.67 82.6401C211.643 82.763 211.606 82.8834 211.56 83.0001V83.0001Z" fill="#CC2127"/>
<path d="M211.56 83C211.277 83.6313 210.801 84.1565 210.2 84.5C210.801 84.1565 211.277 83.6313 211.56 83V83Z" fill="#CC2127"/>
<path d="M189.15 80.9998C189.735 80.0742 190.543 79.3108 191.5 78.7798C190.543 79.3111 189.735 80.0745 189.15 80.9998V80.9998Z" fill="#CC2127"/>
<path d="M220.26 113C220.524 112.841 220.824 112.751 221.132 112.74C221.44 112.729 221.745 112.797 222.02 112.937C222.294 113.078 222.528 113.286 222.7 113.542C222.871 113.798 222.975 114.093 223 114.4C223.34 116.25 222.57 118.6 221.82 120.58C221.022 122.675 220.11 124.724 219.09 126.72C219 126.91 217.74 129.5 217.58 129.58C217.42 129.66 217.19 129.38 217.06 129.31C216.63 129.07 216.2 128.81 215.78 128.55C214.058 127.571 212.666 126.102 211.78 124.33C211.237 123.328 210.992 122.192 211.071 121.055C211.151 119.918 211.553 118.827 212.23 117.91C212.566 117.499 212.981 117.159 213.45 116.91C213.806 116.68 214.219 116.55 214.643 116.534C215.067 116.518 215.487 116.617 215.86 116.82C216.611 117.449 217.106 118.331 217.25 119.3C217.468 117.604 217.99 115.961 218.79 114.45C219.129 113.835 219.64 113.331 220.26 113Z" fill="white"/>
<path d="M254.203 196.261C254.467 196.102 254.767 196.012 255.075 196.001C255.383 195.99 255.689 196.058 255.963 196.198C256.237 196.338 256.471 196.546 256.643 196.802C256.815 197.058 256.918 197.354 256.943 197.661C257.283 199.511 256.513 201.861 255.763 203.841C254.965 205.935 254.054 207.985 253.033 209.981C252.943 210.171 251.683 212.761 251.523 212.841C251.363 212.921 251.133 212.641 251.003 212.571C250.573 212.331 250.143 212.071 249.723 211.811C248.001 210.831 246.609 209.363 245.723 207.591C245.181 206.589 244.935 205.452 245.015 204.315C245.094 203.179 245.496 202.088 246.173 201.171C246.51 200.76 246.924 200.42 247.393 200.171C247.75 199.941 248.162 199.811 248.586 199.795C249.01 199.779 249.431 199.878 249.803 200.081C250.555 200.709 251.049 201.592 251.193 202.561C251.411 200.865 251.933 199.222 252.733 197.711C253.073 197.095 253.583 196.592 254.203 196.261Z" fill="white"/>
<path d="M204.36 168.17C201.656 170.497 199.611 173.494 198.43 176.86C196.35 182.61 201.55 192.01 201.55 192.01L209.65 185.61" fill="#FF8F6F"/>
<path d="M203.46 244.19L201.26 242.98L201.81 239.84C201.81 239.84 205.08 240.15 205.37 241.31" fill="#003B94"/>
<path d="M204.29 244.14C204.78 243.84 205.29 243.57 205.81 243.29C207.08 242.6 208.91 241.88 209.69 240.57C209.847 240.308 209.922 240.004 209.904 239.699C209.886 239.394 209.777 239.102 209.59 238.86C208.43 237.47 205.92 239.76 204.59 238.21C204.33 237.9 204.22 233.07 204.22 233.07L199.32 234.39C199.32 234.39 198.49 244.11 198.58 244.71C198.67 245.31 200.36 245.89 200.36 245.89C200.859 245.79 201.336 245.604 201.77 245.34C202.28 244.97 201.77 240.41 202.47 241.05C203.17 241.69 203.41 244.18 203.41 244.18C203.704 244.205 204 244.192 204.29 244.14V244.14Z" fill="#B9D9EB"/>
<path d="M212.84 248.88L210.64 247.67L211.19 244.53C211.19 244.53 214.46 244.84 214.75 246" fill="#003B94"/>
<path d="M213.66 248.84C214.15 248.54 214.66 248.27 215.18 247.99C216.45 247.3 218.28 246.58 219.06 245.27C219.217 245.008 219.292 244.705 219.274 244.4C219.256 244.095 219.147 243.802 218.96 243.56C217.8 242.17 215.29 244.46 213.96 242.91C213.7 242.6 213.59 237.77 213.59 237.77L208.69 239.09C208.69 239.09 207.86 248.81 207.95 249.41C208.04 250.01 209.73 250.59 209.73 250.59C210.229 250.491 210.706 250.305 211.14 250.04C211.65 249.67 211.14 245.11 211.84 245.75C212.54 246.39 212.78 248.88 212.78 248.88C213.074 248.905 213.37 248.892 213.66 248.84V248.84Z" fill="#B9D9EB"/>
<path d="M196.88 217.29L195.46 236.59C195.46 236.59 197.75 239.76 205.46 238L205.53 225" fill="#3E2928"/>
<path d="M205.81 221.12C205.64 222.78 205.81 241.12 205.81 241.12C205.81 241.12 207.94 245.12 217.23 241.12L217.1 225.55" fill="#3E2928"/>
<path d="M196.16 223.67C196.79 224.1 197.01 221.86 197.67 222.24C200.075 223.638 202.627 224.765 205.28 225.6H205.34C205.403 225.57 205.471 225.553 205.541 225.55C205.61 225.547 205.68 225.557 205.745 225.582C205.81 225.606 205.87 225.643 205.921 225.691C205.971 225.739 206.012 225.796 206.04 225.86C207.681 226.342 209.351 226.72 211.04 226.99C213.21 227.34 215.04 225.73 217.23 225.62C217.23 217.1 217.23 192.82 213.64 187.7L202.91 184.11C202.91 185 197.7 190.98 197.82 198.26C197.797 204.452 197.426 210.639 196.71 216.79C196.69 217.23 196.18 223.2 196.16 223.67Z" fill="#3E2928"/>
<path d="M214.63 177.9L213.63 187.68C213.63 187.68 205.63 188 202.17 185.62V177.33" fill="#FF8F6F"/>
<path d="M224.82 171.46L224 172.58C224.435 171.672 224.819 170.741 225.15 169.79C225.38 169.14 224.34 168.88 224.15 169.53L224.03 169.86C224.13 169.514 224.223 169.18 224.31 168.86C224.305 168.745 224.263 168.633 224.191 168.543C224.118 168.453 224.018 168.389 223.906 168.36C223.794 168.331 223.676 168.338 223.568 168.381C223.461 168.425 223.37 168.501 223.31 168.6C223.085 169.503 222.814 170.394 222.5 171.27C222.676 170.492 222.803 169.704 222.88 168.91C222.95 168.23 221.88 168.25 221.81 168.91C221.721 169.812 221.561 170.704 221.33 171.58C221.33 171.274 221.303 170.967 221.25 170.66C221.243 170.583 221.22 170.509 221.182 170.441C221.144 170.374 221.092 170.316 221.03 170.27C221.03 170.15 220.97 170.03 220.92 169.91C220.879 169.791 220.797 169.69 220.689 169.625C220.581 169.559 220.453 169.534 220.328 169.553C220.204 169.572 220.089 169.634 220.006 169.729C219.922 169.823 219.874 169.944 219.87 170.07L219.8 174.07C219.606 174.487 219.354 174.875 219.05 175.22C219.566 175.585 220.063 175.975 220.54 176.39C220.968 176.758 221.375 177.148 221.76 177.56C222.107 177.134 222.44 176.697 222.76 176.25C222.798 176.218 222.832 176.181 222.86 176.14C223.82 174.727 224.82 173.334 225.86 171.96C226.16 171.44 225.22 170.92 224.82 171.46Z" fill="#FFB5A9"/>
<path d="M209.55 169C209.55 169 213.33 170 214.87 172.47C215.83 174.155 216.675 175.902 217.4 177.7L220.19 173.36C220.19 173.36 223.58 174.36 224.93 176.07C224.93 176.07 220.93 184.87 217.4 185.62C213.87 186.37 210.18 180.41 210.18 180.41C210.18 180.41 209.41 182.88 209.56 180.24" fill="#FF8F6F"/>
<path d="M212 178.38C210.9 177.487 210.07 176.306 209.6 174.97C209.15 173.42 209.72 172.07 210.25 170.63C210.826 169.205 211.164 167.695 211.25 166.16C211.25 164.65 211.12 163.16 211.02 161.65C211.006 161.587 211.006 161.522 211.02 161.46C210.52 159.76 209.48 158.33 207.44 158.16C202.16 157.71 201.86 163.56 201.9 165.94C201.94 168.32 202.19 169.94 200.44 170.94C198.69 171.94 197.44 174.54 199.09 176.65C200.74 178.76 199.26 177.99 198.15 179.86C197.04 181.73 197.32 184.07 199.61 184.92C201.9 185.77 212.53 184.18 213.51 183.19C213.86 182.795 214.04 182.277 214.01 181.75C213.771 180.42 213.057 179.222 212 178.38V178.38Z" fill="#007F68"/>
<path d="M189.488 76.687L186.088 75.737L181.258 68.117L185.738 67.397" fill="#E03636"/>
<path d="M160.008 31.337L162.858 73.157C162.889 73.6003 163.032 74.0286 163.273 74.4022C163.513 74.7757 163.845 75.0824 164.236 75.2938C164.627 75.5052 165.065 75.6145 165.509 75.6116C165.953 75.6087 166.39 75.4936 166.778 75.277L201.468 55.747C202.043 55.4234 202.514 54.9436 202.827 54.363C203.141 53.7825 203.283 53.1251 203.238 52.467L200.348 10.657C200.315 10.175 200.161 9.70925 199.898 9.30347C199.636 8.8977 199.275 8.56522 198.849 8.33726C198.423 8.10931 197.947 7.99335 197.464 8.00029C196.981 8.00724 196.507 8.13686 196.088 8.37697L161.748 28.077C161.182 28.403 160.719 28.8815 160.411 29.4578C160.104 30.0341 159.964 30.6852 160.008 31.337V31.337Z" fill="#E03636"/>
<path d="M163.598 32.8372L166.448 74.6572C166.485 75.0951 166.631 75.5166 166.873 75.8838C167.115 76.2509 167.444 76.5518 167.831 76.7594C168.219 76.967 168.652 77.0746 169.091 77.0725C169.531 77.0703 169.963 76.9585 170.348 76.7472L205.038 57.2472C205.613 56.9236 206.084 56.4438 206.397 55.8632C206.711 55.2827 206.853 54.6253 206.808 53.9672L203.958 12.1272C203.925 11.6452 203.771 11.1795 203.508 10.7737C203.246 10.3679 202.885 10.0354 202.459 9.80747C202.033 9.57951 201.557 9.46356 201.074 9.47051C200.59 9.47746 200.117 9.60707 199.698 9.84718L165.348 29.5772C164.78 29.9019 164.315 30.3798 164.005 30.9562C163.696 31.5326 163.555 32.1844 163.598 32.8372V32.8372Z" fill="#FF5454"/>
<path d="M195.938 59.5571L189.488 76.6871L182.428 65.2771" fill="#FF5454"/>
<path d="M191.448 27.4669C191.917 27.1634 192.455 26.9836 193.013 26.9443C193.57 26.9049 194.129 27.0073 194.636 27.2419C195.143 27.4765 195.582 27.8357 195.913 28.2859C196.244 28.7362 196.456 29.2629 196.528 29.8169C197.288 33.1669 196.028 37.5769 194.768 41.3169C193.416 45.2661 191.857 49.1415 190.098 52.9269C189.928 53.2969 187.768 58.2069 187.488 58.3569C187.208 58.5069 186.758 58.0369 186.488 57.9169C185.658 57.5269 184.838 57.1169 184.028 56.6669C180.791 55.0623 178.115 52.518 176.348 49.3669C174.748 46.3669 173.618 41.7169 176.718 37.5269C177.385 36.6253 178.242 35.8811 179.228 35.3469C179.846 34.9502 180.555 34.7173 181.288 34.6701C182.021 34.6228 182.754 34.7628 183.418 35.0769C184.868 36.1412 185.864 37.7119 186.208 39.4769C186.493 36.3165 187.347 33.2336 188.728 30.3769C189.325 29.1578 190.272 28.1446 191.448 27.4669Z" fill="white"/>
<defs>
<linearGradient id="paint0_linear" x1="295.34" y1="178.88" x2="278.19" y2="201.55" gradientUnits="userSpaceOnUse">
<stop stop-color="#36597C"/>
<stop offset="1" stop-color="#87A7D6"/>
</linearGradient>
<linearGradient id="paint1_linear" x1="18899.8" y1="10524.9" x2="18021.6" y2="12692.7" gradientUnits="userSpaceOnUse">
<stop stop-color="#36597C"/>
<stop offset="1" stop-color="#87A7D6"/>
</linearGradient>
<linearGradient id="paint2_linear" x1="16780.4" y1="6627.27" x2="15902.5" y2="8794.7" gradientUnits="userSpaceOnUse">
<stop stop-color="#36597C"/>
<stop offset="1" stop-color="#87A7D6"/>
</linearGradient>
<linearGradient id="paint3_linear" x1="10407.7" y1="8986.81" x2="9530.41" y2="11153.9" gradientUnits="userSpaceOnUse">
<stop stop-color="#36597C"/>
<stop offset="1" stop-color="#87A7D6"/>
</linearGradient>
<linearGradient id="paint4_linear" x1="106.97" y1="205.08" x2="150.83" y2="130.1" gradientUnits="userSpaceOnUse">
<stop stop-color="#FFDB7B"/>
<stop offset="0.23" stop-color="#DA2E81"/>
<stop offset="0.59" stop-color="#9736BB"/>
<stop offset="1" stop-color="#4E62D4"/>
</linearGradient>
<linearGradient id="paint5_linear" x1="6694.57" y1="6002.39" x2="13691.5" y2="7108.3" gradientUnits="userSpaceOnUse">
<stop stop-color="#FFDB7B"/>
<stop offset="0.23" stop-color="#DA2E81"/>
<stop offset="0.59" stop-color="#9736BB"/>
<stop offset="1" stop-color="#4E62D4"/>
</linearGradient>
<linearGradient id="paint6_linear" x1="6979.5" y1="6102" x2="14159.5" y2="7252.16" gradientUnits="userSpaceOnUse">
<stop stop-color="#FFDB7B"/>
<stop offset="0.23" stop-color="#DA2E81"/>
<stop offset="0.59" stop-color="#9736BB"/>
<stop offset="1" stop-color="#4E62D4"/>
</linearGradient>
<linearGradient id="paint7_linear" x1="4566.8" y1="13532" x2="7707.29" y2="10423.2" gradientUnits="userSpaceOnUse">
<stop stop-color="#FFDB7B"/>
<stop offset="0.23" stop-color="#DA2E81"/>
<stop offset="0.59" stop-color="#9736BB"/>
<stop offset="1" stop-color="#4E62D4"/>
</linearGradient>
</defs>
</svg>
